<?xml version="1.0" encoding="utf-8" standalone="no"?>
<!DOCTYPE svg PUBLIC "-//W3C//DTD SVG 1.1//EN"
  "http://www.w3.org/Graphics/SVG/1.1/DTD/svg11.dtd">
<svg xmlns:xlink="http://www.w3.org/1999/xlink" width="831.910375pt" height="544.949375pt" viewBox="0 0 831.910375 544.949375" xmlns="http://www.w3.org/2000/svg" version="1.1">
 <metadata>
  <rdf:RDF xmlns:dc="http://purl.org/dc/elements/1.1/" xmlns:cc="http://creativecommons.org/ns#" xmlns:rdf="http://www.w3.org/1999/02/22-rdf-syntax-ns#">
   <cc:Work>
    <dc:type rdf:resource="http://purl.org/dc/dcmitype/StillImage"/>
    <dc:date>2024-08-08T12:37:51.989013</dc:date>
    <dc:format>image/svg+xml</dc:format>
    <dc:creator>
     <cc:Agent>
      <dc:title>Matplotlib v3.8.2, https://matplotlib.org/</dc:title>
     </cc:Agent>
    </dc:creator>
   </cc:Work>
  </rdf:RDF>
 </metadata>
 <defs>
  <style type="text/css">*{stroke-linejoin: round; stroke-linecap: butt}</style>
 </defs>
 <g id="figure_1">
  <g id="patch_1">
   <path d="M 0 544.949375 
L 831.910375 544.949375 
L 831.910375 0 
L 0 0 
z
" style="fill: #ffffff"/>
  </g>
  <g id="axes_1">
   <g id="patch_2">
    <path d="M 73.384375 482.536875 
L 824.710375 482.536875 
L 824.710375 28.396875 
L 73.384375 28.396875 
z
" style="fill: #ffffff"/>
   </g>
   <g id="PathCollection_1">
    <defs>
     <path id="me627dc91ed" d="M 0 3.535534 
C 0.937635 3.535534 1.836992 3.163008 2.5 2.5 
C 3.163008 1.836992 3.535534 0.937635 3.535534 0 
C 3.535534 -0.937635 3.163008 -1.836992 2.5 -2.5 
C 1.836992 -3.163008 0.937635 -3.535534 0 -3.535534 
C -0.937635 -3.535534 -1.836992 -3.163008 -2.5 -2.5 
C -3.163008 -1.836992 -3.535534 -0.937635 -3.535534 0 
C -3.535534 0.937635 -3.163008 1.836992 -2.5 2.5 
C -1.836992 3.163008 -0.937635 3.535534 0 3.535534 
z
" style="stroke: #008000; stroke-width: 1.5"/>
    </defs>
    <g clip-path="url(#p27533cd294)">
     <use xlink:href="#me627dc91ed" x="107.535557" y="402.67285" style="fill: #008000; stroke: #008000; stroke-width: 1.5"/>
     <use xlink:href="#me627dc91ed" x="107.535557" y="402.67285" style="fill: #008000; stroke: #008000; stroke-width: 1.5"/>
     <use xlink:href="#me627dc91ed" x="107.535557" y="402.67285" style="fill: #008000; stroke: #008000; stroke-width: 1.5"/>
     <use xlink:href="#me627dc91ed" x="112.691114" y="379.850476" style="fill: #008000; stroke: #008000; stroke-width: 1.5"/>
     <use xlink:href="#me627dc91ed" x="112.691114" y="379.601265" style="fill: #008000; stroke: #008000; stroke-width: 1.5"/>
     <use xlink:href="#me627dc91ed" x="112.691114" y="379.352054" style="fill: #008000; stroke: #008000; stroke-width: 1.5"/>
     <use xlink:href="#me627dc91ed" x="116.4421" y="367.4367" style="fill: #008000; stroke: #008000; stroke-width: 1.5"/>
     <use xlink:href="#me627dc91ed" x="116.4421" y="367.03092" style="fill: #008000; stroke: #008000; stroke-width: 1.5"/>
     <use xlink:href="#me627dc91ed" x="116.4421" y="366.62514" style="fill: #008000; stroke: #008000; stroke-width: 1.5"/>
     <use xlink:href="#me627dc91ed" x="120.687002" y="357.644946" style="fill: #008000; stroke: #008000; stroke-width: 1.5"/>
     <use xlink:href="#me627dc91ed" x="120.687002" y="357.095974" style="fill: #008000; stroke: #008000; stroke-width: 1.5"/>
     <use xlink:href="#me627dc91ed" x="120.687002" y="356.547003" style="fill: #008000; stroke: #008000; stroke-width: 1.5"/>
     <use xlink:href="#me627dc91ed" x="130.305477" y="341.087353" style="fill: #008000; stroke: #008000; stroke-width: 1.5"/>
     <use xlink:href="#me627dc91ed" x="130.305477" y="340.242005" style="fill: #008000; stroke: #008000; stroke-width: 1.5"/>
     <use xlink:href="#me627dc91ed" x="130.305477" y="339.396657" style="fill: #008000; stroke: #008000; stroke-width: 1.5"/>
     <use xlink:href="#me627dc91ed" x="139.984083" y="330.098184" style="fill: #008000; stroke: #008000; stroke-width: 1.5"/>
     <use xlink:href="#me627dc91ed" x="139.984083" y="328.989582" style="fill: #008000; stroke: #008000; stroke-width: 1.5"/>
     <use xlink:href="#me627dc91ed" x="139.984083" y="327.880981" style="fill: #008000; stroke: #008000; stroke-width: 1.5"/>
     <use xlink:href="#me627dc91ed" x="148.875192" y="320.123234" style="fill: #008000; stroke: #008000; stroke-width: 1.5"/>
     <use xlink:href="#me627dc91ed" x="148.875192" y="318.744458" style="fill: #008000; stroke: #008000; stroke-width: 1.5"/>
     <use xlink:href="#me627dc91ed" x="148.875192" y="317.365683" style="fill: #008000; stroke: #008000; stroke-width: 1.5"/>
     <use xlink:href="#me627dc91ed" x="170.078797" y="303.468648" style="fill: #008000; stroke: #008000; stroke-width: 1.5"/>
     <use xlink:href="#me627dc91ed" x="170.078797" y="301.472471" style="fill: #008000; stroke: #008000; stroke-width: 1.5"/>
     <use xlink:href="#me627dc91ed" x="170.078797" y="299.476293" style="fill: #008000; stroke: #008000; stroke-width: 1.5"/>
     <use xlink:href="#me627dc91ed" x="190.472074" y="290.278892" style="fill: #008000; stroke: #008000; stroke-width: 1.5"/>
     <use xlink:href="#me627dc91ed" x="190.472074" y="287.64522" style="fill: #008000; stroke: #008000; stroke-width: 1.5"/>
     <use xlink:href="#me627dc91ed" x="190.472074" y="285.011547" style="fill: #008000; stroke: #008000; stroke-width: 1.5"/>
     <use xlink:href="#me627dc91ed" x="213.222379" y="280.432658" style="fill: #008000; stroke: #008000; stroke-width: 1.5"/>
     <use xlink:href="#me627dc91ed" x="213.222379" y="277.11369" style="fill: #008000; stroke: #008000; stroke-width: 1.5"/>
     <use xlink:href="#me627dc91ed" x="213.222379" y="273.794722" style="fill: #008000; stroke: #008000; stroke-width: 1.5"/>
     <use xlink:href="#me627dc91ed" x="232.065741" y="272.142339" style="fill: #008000; stroke: #008000; stroke-width: 1.5"/>
     <use xlink:href="#me627dc91ed" x="232.065741" y="268.193556" style="fill: #008000; stroke: #008000; stroke-width: 1.5"/>
     <use xlink:href="#me627dc91ed" x="232.065741" y="264.244773" style="fill: #008000; stroke: #008000; stroke-width: 1.5"/>
     <use xlink:href="#me627dc91ed" x="251.690491" y="265.884355" style="fill: #008000; stroke: #008000; stroke-width: 1.5"/>
     <use xlink:href="#me627dc91ed" x="251.690491" y="261.301813" style="fill: #008000; stroke: #008000; stroke-width: 1.5"/>
     <use xlink:href="#me627dc91ed" x="251.690491" y="256.71927" style="fill: #008000; stroke: #008000; stroke-width: 1.5"/>
     <use xlink:href="#me627dc91ed" x="272.128786" y="256.756834" style="fill: #008000; stroke: #008000; stroke-width: 1.5"/>
     <use xlink:href="#me627dc91ed" x="272.128786" y="251.371568" style="fill: #008000; stroke: #008000; stroke-width: 1.5"/>
     <use xlink:href="#me627dc91ed" x="272.128786" y="245.986301" style="fill: #008000; stroke: #008000; stroke-width: 1.5"/>
     <use xlink:href="#me627dc91ed" x="292.53171" y="246.78827" style="fill: #008000; stroke: #008000; stroke-width: 1.5"/>
     <use xlink:href="#me627dc91ed" x="292.53171" y="240.501621" style="fill: #008000; stroke: #008000; stroke-width: 1.5"/>
     <use xlink:href="#me627dc91ed" x="292.53171" y="234.214973" style="fill: #008000; stroke: #008000; stroke-width: 1.5"/>
     <use xlink:href="#me627dc91ed" x="312.950711" y="236.761098" style="fill: #008000; stroke: #008000; stroke-width: 1.5"/>
     <use xlink:href="#me627dc91ed" x="312.950711" y="229.498061" style="fill: #008000; stroke: #008000; stroke-width: 1.5"/>
     <use xlink:href="#me627dc91ed" x="312.950711" y="222.235023" style="fill: #008000; stroke: #008000; stroke-width: 1.5"/>
     <use xlink:href="#me627dc91ed" x="333.485474" y="227.109392" style="fill: #008000; stroke: #008000; stroke-width: 1.5"/>
     <use xlink:href="#me627dc91ed" x="333.485474" y="218.811066" style="fill: #008000; stroke: #008000; stroke-width: 1.5"/>
     <use xlink:href="#me627dc91ed" x="333.485474" y="210.51274" style="fill: #008000; stroke: #008000; stroke-width: 1.5"/>
     <use xlink:href="#me627dc91ed" x="353.95914" y="218.520286" style="fill: #008000; stroke: #008000; stroke-width: 1.5"/>
     <use xlink:href="#me627dc91ed" x="353.95914" y="209.17085" style="fill: #008000; stroke: #008000; stroke-width: 1.5"/>
     <use xlink:href="#me627dc91ed" x="353.95914" y="199.821414" style="fill: #008000; stroke: #008000; stroke-width: 1.5"/>
     <use xlink:href="#me627dc91ed" x="374.432807" y="212.274234" style="fill: #008000; stroke: #008000; stroke-width: 1.5"/>
     <use xlink:href="#me627dc91ed" x="374.432807" y="201.936196" style="fill: #008000; stroke: #008000; stroke-width: 1.5"/>
     <use xlink:href="#me627dc91ed" x="374.432807" y="191.598157" style="fill: #008000; stroke: #008000; stroke-width: 1.5"/>
     <use xlink:href="#me627dc91ed" x="397.954853" y="203.497221" style="fill: #008000; stroke: #008000; stroke-width: 1.5"/>
     <use xlink:href="#me627dc91ed" x="397.954853" y="191.869743" style="fill: #008000; stroke: #008000; stroke-width: 1.5"/>
     <use xlink:href="#me627dc91ed" x="397.954853" y="180.242265" style="fill: #008000; stroke: #008000; stroke-width: 1.5"/>
     <use xlink:href="#me627dc91ed" x="418.34813" y="197.177518" style="fill: #008000; stroke: #008000; stroke-width: 1.5"/>
     <use xlink:href="#me627dc91ed" x="418.34813" y="184.448723" style="fill: #008000; stroke: #008000; stroke-width: 1.5"/>
     <use xlink:href="#me627dc91ed" x="418.34813" y="171.719927" style="fill: #008000; stroke: #008000; stroke-width: 1.5"/>
     <use xlink:href="#me627dc91ed" x="438.805718" y="192.029555" style="fill: #008000; stroke: #008000; stroke-width: 1.5"/>
     <use xlink:href="#me627dc91ed" x="438.805718" y="178.223687" style="fill: #008000; stroke: #008000; stroke-width: 1.5"/>
     <use xlink:href="#me627dc91ed" x="438.805718" y="164.417818" style="fill: #008000; stroke: #008000; stroke-width: 1.5"/>
     <use xlink:href="#me627dc91ed" x="459.289032" y="187.313844" style="fill: #008000; stroke: #008000; stroke-width: 1.5"/>
     <use xlink:href="#me627dc91ed" x="459.289032" y="172.417473" style="fill: #008000; stroke: #008000; stroke-width: 1.5"/>
     <use xlink:href="#me627dc91ed" x="459.289032" y="157.521101" style="fill: #008000; stroke: #008000; stroke-width: 1.5"/>
     <use xlink:href="#me627dc91ed" x="479.740189" y="181.775662" style="fill: #008000; stroke: #008000; stroke-width: 1.5"/>
     <use xlink:href="#me627dc91ed" x="479.740189" y="165.690484" style="fill: #008000; stroke: #008000; stroke-width: 1.5"/>
     <use xlink:href="#me627dc91ed" x="479.740189" y="149.605306" style="fill: #008000; stroke: #008000; stroke-width: 1.5"/>
     <use xlink:href="#me627dc91ed" x="500.191346" y="177.356897" style="fill: #008000; stroke: #008000; stroke-width: 1.5"/>
     <use xlink:href="#me627dc91ed" x="500.191346" y="160.122481" style="fill: #008000; stroke: #008000; stroke-width: 1.5"/>
     <use xlink:href="#me627dc91ed" x="500.191346" y="142.888064" style="fill: #008000; stroke: #008000; stroke-width: 1.5"/>
     <use xlink:href="#me627dc91ed" x="520.546036" y="172.600173" style="fill: #008000; stroke: #008000; stroke-width: 1.5"/>
     <use xlink:href="#me627dc91ed" x="520.546036" y="154.155193" style="fill: #008000; stroke: #008000; stroke-width: 1.5"/>
     <use xlink:href="#me627dc91ed" x="520.546036" y="135.710212" style="fill: #008000; stroke: #008000; stroke-width: 1.5"/>
     <use xlink:href="#me627dc91ed" x="541.029349" y="168.15661" style="fill: #008000; stroke: #008000; stroke-width: 1.5"/>
     <use xlink:href="#me627dc91ed" x="541.029349" y="148.48088" style="fill: #008000; stroke: #008000; stroke-width: 1.5"/>
     <use xlink:href="#me627dc91ed" x="541.029349" y="128.805151" style="fill: #008000; stroke: #008000; stroke-width: 1.5"/>
     <use xlink:href="#me627dc91ed" x="561.544818" y="163.647402" style="fill: #008000; stroke: #008000; stroke-width: 1.5"/>
     <use xlink:href="#me627dc91ed" x="561.544818" y="142.694442" style="fill: #008000; stroke: #008000; stroke-width: 1.5"/>
     <use xlink:href="#me627dc91ed" x="561.544818" y="121.741482" style="fill: #008000; stroke: #008000; stroke-width: 1.5"/>
     <use xlink:href="#me627dc91ed" x="580.066621" y="159.244326" style="fill: #008000; stroke: #008000; stroke-width: 1.5"/>
     <use xlink:href="#me627dc91ed" x="580.066621" y="137.073413" style="fill: #008000; stroke: #008000; stroke-width: 1.5"/>
     <use xlink:href="#me627dc91ed" x="580.066621" y="114.9025" style="fill: #008000; stroke: #008000; stroke-width: 1.5"/>
     <use xlink:href="#me627dc91ed" x="594.633247" y="155.56222" style="fill: #008000; stroke: #008000; stroke-width: 1.5"/>
     <use xlink:href="#me627dc91ed" x="594.633247" y="132.387997" style="fill: #008000; stroke: #008000; stroke-width: 1.5"/>
     <use xlink:href="#me627dc91ed" x="594.633247" y="109.213774" style="fill: #008000; stroke: #008000; stroke-width: 1.5"/>
     <use xlink:href="#me627dc91ed" x="615.952614" y="150.030608" style="fill: #008000; stroke: #008000; stroke-width: 1.5"/>
     <use xlink:href="#me627dc91ed" x="615.952614" y="125.33202" style="fill: #008000; stroke: #008000; stroke-width: 1.5"/>
     <use xlink:href="#me627dc91ed" x="615.952614" y="100.633433" style="fill: #008000; stroke: #008000; stroke-width: 1.5"/>
     <use xlink:href="#me627dc91ed" x="654.218144" y="144.764552" style="fill: #008000; stroke: #008000; stroke-width: 1.5"/>
     <use xlink:href="#me627dc91ed" x="654.218144" y="117.689731" style="fill: #008000; stroke: #008000; stroke-width: 1.5"/>
     <use xlink:href="#me627dc91ed" x="654.218144" y="90.614909" style="fill: #008000; stroke: #008000; stroke-width: 1.5"/>
     <use xlink:href="#me627dc91ed" x="694.027158" y="138.576351" style="fill: #008000; stroke: #008000; stroke-width: 1.5"/>
     <use xlink:href="#me627dc91ed" x="694.027158" y="108.842154" style="fill: #008000; stroke: #008000; stroke-width: 1.5"/>
     <use xlink:href="#me627dc91ed" x="694.027158" y="79.107957" style="fill: #008000; stroke: #008000; stroke-width: 1.5"/>
     <use xlink:href="#me627dc91ed" x="724.607426" y="133.497196" style="fill: #008000; stroke: #008000; stroke-width: 1.5"/>
     <use xlink:href="#me627dc91ed" x="724.607426" y="101.598353" style="fill: #008000; stroke: #008000; stroke-width: 1.5"/>
     <use xlink:href="#me627dc91ed" x="724.607426" y="69.69951" style="fill: #008000; stroke: #008000; stroke-width: 1.5"/>
     <use xlink:href="#me627dc91ed" x="755.895125" y="128.585823" style="fill: #008000; stroke: #008000; stroke-width: 1.5"/>
     <use xlink:href="#me627dc91ed" x="755.895125" y="94.427629" style="fill: #008000; stroke: #008000; stroke-width: 1.5"/>
     <use xlink:href="#me627dc91ed" x="755.895125" y="60.269434" style="fill: #008000; stroke: #008000; stroke-width: 1.5"/>
     <use xlink:href="#me627dc91ed" x="790.559193" y="122.671151" style="fill: #008000; stroke: #008000; stroke-width: 1.5"/>
     <use xlink:href="#me627dc91ed" x="790.559193" y="85.855377" style="fill: #008000; stroke: #008000; stroke-width: 1.5"/>
     <use xlink:href="#me627dc91ed" x="790.559193" y="49.039602" style="fill: #008000; stroke: #008000; stroke-width: 1.5"/>
    </g>
   </g>
   <g id="PolyCollection_1">
    <defs>
     <path id="m255340fc93" d="M 107.535557 -206.241649 
L 107.535557 -83.055227 
L 107.535557 -83.055227 
L 107.535557 -83.055227 
L 112.691114 -104.847079 
L 112.691114 -104.847079 
L 112.691114 -104.847079 
L 116.4421 -121.042346 
L 116.4421 -121.042346 
L 116.4421 -121.042346 
L 120.687002 -140.373489 
L 120.687002 -140.373489 
L 120.687002 -140.373489 
L 130.305477 -185.945702 
L 130.305477 -185.945702 
L 130.305477 -185.945702 
L 139.984083 -201.768168 
L 139.984083 -201.768168 
L 139.984083 -201.768168 
L 148.875192 -212.410127 
L 148.875192 -212.410127 
L 148.875192 -212.410127 
L 170.078797 -231.841077 
L 170.078797 -231.841077 
L 170.078797 -231.841077 
L 190.472074 -246.801545 
L 190.472074 -246.801545 
L 190.472074 -246.801545 
L 213.222379 -258.913692 
L 213.222379 -258.913692 
L 213.222379 -258.913692 
L 232.065741 -267.657806 
L 232.065741 -267.657806 
L 232.065741 -267.657806 
L 251.690491 -276.84627 
L 251.690491 -276.84627 
L 251.690491 -276.84627 
L 272.128786 -287.064114 
L 272.128786 -287.064114 
L 272.128786 -287.064114 
L 292.53171 -297.710745 
L 292.53171 -297.710745 
L 292.53171 -297.710745 
L 312.950711 -307.781967 
L 312.950711 -307.781967 
L 312.950711 -307.781967 
L 333.485474 -317.914699 
L 333.485474 -317.914699 
L 333.485474 -317.914699 
L 353.95914 -326.841013 
L 353.95914 -326.841013 
L 353.95914 -326.841013 
L 374.432807 -334.966244 
L 374.432807 -334.966244 
L 374.432807 -334.966244 
L 397.954853 -343.489333 
L 397.954853 -343.489333 
L 397.954853 -343.489333 
L 418.34813 -350.386246 
L 418.34813 -350.386246 
L 418.34813 -350.386246 
L 438.805718 -356.554151 
L 438.805718 -356.554151 
L 438.805718 -356.554151 
L 459.289032 -362.657622 
L 459.289032 -362.657622 
L 459.289032 -362.657622 
L 479.740189 -368.918446 
L 479.740189 -368.918446 
L 479.740189 -368.918446 
L 500.191346 -374.974998 
L 500.191346 -374.974998 
L 500.191346 -374.974998 
L 520.546036 -380.715442 
L 520.546036 -380.715442 
L 520.546036 -380.715442 
L 541.029349 -386.380435 
L 541.029349 -386.380435 
L 541.029349 -386.380435 
L 561.544818 -392.105113 
L 561.544818 -392.105113 
L 561.544818 -392.105113 
L 580.066621 -397.34049 
L 580.066621 -397.34049 
L 580.066621 -397.34049 
L 594.633247 -401.354166 
L 594.633247 -401.354166 
L 594.633247 -401.354166 
L 615.952614 -407.151267 
L 615.952614 -407.151267 
L 615.952614 -407.151267 
L 654.218144 -416.680978 
L 654.218144 -416.680978 
L 654.218144 -416.680978 
L 694.027158 -426.107596 
L 694.027158 -426.107596 
L 694.027158 -426.107596 
L 724.607426 -432.959835 
L 724.607426 -432.959835 
L 724.607426 -432.959835 
L 755.895125 -440.391025 
L 755.895125 -440.391025 
L 755.895125 -440.391025 
L 790.559193 -447.835869 
L 790.559193 -447.835869 
L 790.559193 -447.835869 
L 790.559193 -466.736975 
L 790.559193 -466.736975 
L 790.559193 -466.736975 
L 790.559193 -466.736975 
L 755.895125 -459.171673 
L 755.895125 -459.171673 
L 755.895125 -459.171673 
L 724.607426 -451.728848 
L 724.607426 -451.728848 
L 724.607426 -451.728848 
L 694.027158 -445.513135 
L 694.027158 -445.513135 
L 694.027158 -445.513135 
L 654.218144 -436.901497 
L 654.218144 -436.901497 
L 654.218144 -436.901497 
L 615.952614 -428.138836 
L 615.952614 -428.138836 
L 615.952614 -428.138836 
L 594.633247 -422.808911 
L 594.633247 -422.808911 
L 594.633247 -422.808911 
L 580.066621 -419.044709 
L 580.066621 -419.044709 
L 580.066621 -419.044709 
L 561.544818 -413.95214 
L 561.544818 -413.95214 
L 561.544818 -413.95214 
L 541.029349 -408.157421 
L 541.029349 -408.157421 
L 541.029349 -408.157421 
L 520.546036 -402.01734 
L 520.546036 -402.01734 
L 520.546036 -402.01734 
L 500.191346 -395.714419 
L 500.191346 -395.714419 
L 500.191346 -395.714419 
L 479.740189 -389.861341 
L 479.740189 -389.861341 
L 479.740189 -389.861341 
L 459.289032 -383.909164 
L 459.289032 -383.909164 
L 459.289032 -383.909164 
L 438.805718 -377.540032 
L 438.805718 -377.540032 
L 438.805718 -377.540032 
L 418.34813 -370.808611 
L 418.34813 -370.808611 
L 418.34813 -370.808611 
L 397.954853 -363.182689 
L 397.954853 -363.182689 
L 397.954853 -363.182689 
L 374.432807 -353.70677 
L 374.432807 -353.70677 
L 374.432807 -353.70677 
L 353.95914 -344.744525 
L 353.95914 -344.744525 
L 353.95914 -344.744525 
L 333.485474 -335.645032 
L 333.485474 -335.645032 
L 333.485474 -335.645032 
L 312.950711 -325.502684 
L 312.950711 -325.502684 
L 312.950711 -325.502684 
L 292.53171 -315.271757 
L 292.53171 -315.271757 
L 292.53171 -315.271757 
L 272.128786 -304.646257 
L 272.128786 -304.646257 
L 272.128786 -304.646257 
L 251.690491 -295.102981 
L 251.690491 -295.102981 
L 251.690491 -295.102981 
L 232.065741 -287.100151 
L 232.065741 -287.100151 
L 232.065741 -287.100151 
L 213.222379 -279.354196 
L 213.222379 -279.354196 
L 213.222379 -279.354196 
L 190.472074 -268.584139 
L 190.472074 -268.584139 
L 190.472074 -268.584139 
L 170.078797 -258.004021 
L 170.078797 -258.004021 
L 170.078797 -258.004021 
L 148.875192 -244.857091 
L 148.875192 -244.857091 
L 148.875192 -244.857091 
L 139.984083 -232.808044 
L 139.984083 -232.808044 
L 139.984083 -232.808044 
L 130.305477 -220.017163 
L 130.305477 -220.017163 
L 130.305477 -220.017163 
L 120.687002 -210.31798 
L 120.687002 -210.31798 
L 120.687002 -210.31798 
L 116.4421 -208.547428 
L 116.4421 -208.547428 
L 116.4421 -208.547428 
L 112.691114 -207.355057 
L 112.691114 -207.355057 
L 112.691114 -207.355057 
L 107.535557 -206.241649 
L 107.535557 -206.241649 
L 107.535557 -206.241649 
z
" style="stroke: #808080; stroke-opacity: 0.3; stroke-width: 1.5"/>
    </defs>
    <g clip-path="url(#p27533cd294)">
     <use xlink:href="#m255340fc93" x="0" y="544.949375" style="fill: #808080; fill-opacity: 0.3; stroke: #808080; stroke-opacity: 0.3; stroke-width: 1.5"/>
    </g>
   </g>
   <g id="matplotlib.axis_1">
    <g id="xtick_1">
     <g id="line2d_1">
      <path d="M 107.535557 482.536875 
L 107.535557 28.396875 
" clip-path="url(#p27533cd294)" style="fill: none; stroke: #b0b0b0; stroke-width: 1.5; stroke-linecap: square"/>
     </g>
     <g id="line2d_2">
      <defs>
       <path id="m44bfaf92a3" d="M 0 0 
L 0 9 
" style="stroke: #000000; stroke-width: 1.875"/>
      </defs>
      <g>
       <use xlink:href="#m44bfaf92a3" x="107.535557" y="482.536875" style="stroke: #000000; stroke-width: 1.875"/>
      </g>
     </g>
     <g id="text_1">
      <!-- 0 -->
      <g transform="translate(101.173057 510.23375) scale(0.2 -0.2)">
       <defs>
        <path id="DejaVuSans-30" d="M 2034 4250 
Q 1547 4250 1301 3770 
Q 1056 3291 1056 2328 
Q 1056 1369 1301 889 
Q 1547 409 2034 409 
Q 2525 409 2770 889 
Q 3016 1369 3016 2328 
Q 3016 3291 2770 3770 
Q 2525 4250 2034 4250 
z
M 2034 4750 
Q 2819 4750 3233 4129 
Q 3647 3509 3647 2328 
Q 3647 1150 3233 529 
Q 2819 -91 2034 -91 
Q 1250 -91 836 529 
Q 422 1150 422 2328 
Q 422 3509 836 4129 
Q 1250 4750 2034 4750 
z
" transform="scale(0.015625)"/>
       </defs>
       <use xlink:href="#DejaVuSans-30"/>
      </g>
     </g>
    </g>
    <g id="xtick_2">
     <g id="line2d_3">
      <path d="M 268.315096 482.536875 
L 268.315096 28.396875 
" clip-path="url(#p27533cd294)" style="fill: none; stroke: #b0b0b0; stroke-width: 1.5; stroke-linecap: square"/>
     </g>
     <g id="line2d_4">
      <g>
       <use xlink:href="#m44bfaf92a3" x="268.315096" y="482.536875" style="stroke: #000000; stroke-width: 1.875"/>
      </g>
     </g>
     <g id="text_2">
      <!-- 5000 -->
      <g transform="translate(242.865096 510.23375) scale(0.2 -0.2)">
       <defs>
        <path id="DejaVuSans-35" d="M 691 4666 
L 3169 4666 
L 3169 4134 
L 1269 4134 
L 1269 2991 
Q 1406 3038 1543 3061 
Q 1681 3084 1819 3084 
Q 2600 3084 3056 2656 
Q 3513 2228 3513 1497 
Q 3513 744 3044 326 
Q 2575 -91 1722 -91 
Q 1428 -91 1123 -41 
Q 819 9 494 109 
L 494 744 
Q 775 591 1075 516 
Q 1375 441 1709 441 
Q 2250 441 2565 725 
Q 2881 1009 2881 1497 
Q 2881 1984 2565 2268 
Q 2250 2553 1709 2553 
Q 1456 2553 1204 2497 
Q 953 2441 691 2322 
L 691 4666 
z
" transform="scale(0.015625)"/>
       </defs>
       <use xlink:href="#DejaVuSans-35"/>
       <use xlink:href="#DejaVuSans-30" x="63.623047"/>
       <use xlink:href="#DejaVuSans-30" x="127.246094"/>
       <use xlink:href="#DejaVuSans-30" x="190.869141"/>
      </g>
     </g>
    </g>
    <g id="xtick_3">
     <g id="line2d_5">
      <path d="M 429.094634 482.536875 
L 429.094634 28.396875 
" clip-path="url(#p27533cd294)" style="fill: none; stroke: #b0b0b0; stroke-width: 1.5; stroke-linecap: square"/>
     </g>
     <g id="line2d_6">
      <g>
       <use xlink:href="#m44bfaf92a3" x="429.094634" y="482.536875" style="stroke: #000000; stroke-width: 1.875"/>
      </g>
     </g>
     <g id="text_3">
      <!-- 10000 -->
      <g transform="translate(397.282134 510.23375) scale(0.2 -0.2)">
       <defs>
        <path id="DejaVuSans-31" d="M 794 531 
L 1825 531 
L 1825 4091 
L 703 3866 
L 703 4441 
L 1819 4666 
L 2450 4666 
L 2450 531 
L 3481 531 
L 3481 0 
L 794 0 
L 794 531 
z
" transform="scale(0.015625)"/>
       </defs>
       <use xlink:href="#DejaVuSans-31"/>
       <use xlink:href="#DejaVuSans-30" x="63.623047"/>
       <use xlink:href="#DejaVuSans-30" x="127.246094"/>
       <use xlink:href="#DejaVuSans-30" x="190.869141"/>
       <use xlink:href="#DejaVuSans-30" x="254.492188"/>
      </g>
     </g>
    </g>
    <g id="xtick_4">
     <g id="line2d_7">
      <path d="M 589.874173 482.536875 
L 589.874173 28.396875 
" clip-path="url(#p27533cd294)" style="fill: none; stroke: #b0b0b0; stroke-width: 1.5; stroke-linecap: square"/>
     </g>
     <g id="line2d_8">
      <g>
       <use xlink:href="#m44bfaf92a3" x="589.874173" y="482.536875" style="stroke: #000000; stroke-width: 1.875"/>
      </g>
     </g>
     <g id="text_4">
      <!-- 15000 -->
      <g transform="translate(558.061673 510.23375) scale(0.2 -0.2)">
       <use xlink:href="#DejaVuSans-31"/>
       <use xlink:href="#DejaVuSans-35" x="63.623047"/>
       <use xlink:href="#DejaVuSans-30" x="127.246094"/>
       <use xlink:href="#DejaVuSans-30" x="190.869141"/>
       <use xlink:href="#DejaVuSans-30" x="254.492188"/>
      </g>
     </g>
    </g>
    <g id="xtick_5">
     <g id="line2d_9">
      <path d="M 750.653712 482.536875 
L 750.653712 28.396875 
" clip-path="url(#p27533cd294)" style="fill: none; stroke: #b0b0b0; stroke-width: 1.5; stroke-linecap: square"/>
     </g>
     <g id="line2d_10">
      <g>
       <use xlink:href="#m44bfaf92a3" x="750.653712" y="482.536875" style="stroke: #000000; stroke-width: 1.875"/>
      </g>
     </g>
     <g id="text_5">
      <!-- 20000 -->
      <g transform="translate(718.841212 510.23375) scale(0.2 -0.2)">
       <defs>
        <path id="DejaVuSans-32" d="M 1228 531 
L 3431 531 
L 3431 0 
L 469 0 
L 469 531 
Q 828 903 1448 1529 
Q 2069 2156 2228 2338 
Q 2531 2678 2651 2914 
Q 2772 3150 2772 3378 
Q 2772 3750 2511 3984 
Q 2250 4219 1831 4219 
Q 1534 4219 1204 4116 
Q 875 4013 500 3803 
L 500 4441 
Q 881 4594 1212 4672 
Q 1544 4750 1819 4750 
Q 2544 4750 2975 4387 
Q 3406 4025 3406 3419 
Q 3406 3131 3298 2873 
Q 3191 2616 2906 2266 
Q 2828 2175 2409 1742 
Q 1991 1309 1228 531 
z
" transform="scale(0.015625)"/>
       </defs>
       <use xlink:href="#DejaVuSans-32"/>
       <use xlink:href="#DejaVuSans-30" x="63.623047"/>
       <use xlink:href="#DejaVuSans-30" x="127.246094"/>
       <use xlink:href="#DejaVuSans-30" x="190.869141"/>
       <use xlink:href="#DejaVuSans-30" x="254.492188"/>
      </g>
     </g>
    </g>
    <g id="text_6">
     <!-- Time (Days) -->
     <g transform="translate(388.642687 533.59) scale(0.2 -0.2)">
      <defs>
       <path id="DejaVuSans-54" d="M -19 4666 
L 3928 4666 
L 3928 4134 
L 2272 4134 
L 2272 0 
L 1638 0 
L 1638 4134 
L -19 4134 
L -19 4666 
z
" transform="scale(0.015625)"/>
       <path id="DejaVuSans-69" d="M 603 3500 
L 1178 3500 
L 1178 0 
L 603 0 
L 603 3500 
z
M 603 4863 
L 1178 4863 
L 1178 4134 
L 603 4134 
L 603 4863 
z
" transform="scale(0.015625)"/>
       <path id="DejaVuSans-6d" d="M 3328 2828 
Q 3544 3216 3844 3400 
Q 4144 3584 4550 3584 
Q 5097 3584 5394 3201 
Q 5691 2819 5691 2113 
L 5691 0 
L 5113 0 
L 5113 2094 
Q 5113 2597 4934 2840 
Q 4756 3084 4391 3084 
Q 3944 3084 3684 2787 
Q 3425 2491 3425 1978 
L 3425 0 
L 2847 0 
L 2847 2094 
Q 2847 2600 2669 2842 
Q 2491 3084 2119 3084 
Q 1678 3084 1418 2786 
Q 1159 2488 1159 1978 
L 1159 0 
L 581 0 
L 581 3500 
L 1159 3500 
L 1159 2956 
Q 1356 3278 1631 3431 
Q 1906 3584 2284 3584 
Q 2666 3584 2933 3390 
Q 3200 3197 3328 2828 
z
" transform="scale(0.015625)"/>
       <path id="DejaVuSans-65" d="M 3597 1894 
L 3597 1613 
L 953 1613 
Q 991 1019 1311 708 
Q 1631 397 2203 397 
Q 2534 397 2845 478 
Q 3156 559 3463 722 
L 3463 178 
Q 3153 47 2828 -22 
Q 2503 -91 2169 -91 
Q 1331 -91 842 396 
Q 353 884 353 1716 
Q 353 2575 817 3079 
Q 1281 3584 2069 3584 
Q 2775 3584 3186 3129 
Q 3597 2675 3597 1894 
z
M 3022 2063 
Q 3016 2534 2758 2815 
Q 2500 3097 2075 3097 
Q 1594 3097 1305 2825 
Q 1016 2553 972 2059 
L 3022 2063 
z
" transform="scale(0.015625)"/>
       <path id="DejaVuSans-20" transform="scale(0.015625)"/>
       <path id="DejaVuSans-28" d="M 1984 4856 
Q 1566 4138 1362 3434 
Q 1159 2731 1159 2009 
Q 1159 1288 1364 580 
Q 1569 -128 1984 -844 
L 1484 -844 
Q 1016 -109 783 600 
Q 550 1309 550 2009 
Q 550 2706 781 3412 
Q 1013 4119 1484 4856 
L 1984 4856 
z
" transform="scale(0.015625)"/>
       <path id="DejaVuSans-44" d="M 1259 4147 
L 1259 519 
L 2022 519 
Q 2988 519 3436 956 
Q 3884 1394 3884 2338 
Q 3884 3275 3436 3711 
Q 2988 4147 2022 4147 
L 1259 4147 
z
M 628 4666 
L 1925 4666 
Q 3281 4666 3915 4102 
Q 4550 3538 4550 2338 
Q 4550 1131 3912 565 
Q 3275 0 1925 0 
L 628 0 
L 628 4666 
z
" transform="scale(0.015625)"/>
       <path id="DejaVuSans-61" d="M 2194 1759 
Q 1497 1759 1228 1600 
Q 959 1441 959 1056 
Q 959 750 1161 570 
Q 1363 391 1709 391 
Q 2188 391 2477 730 
Q 2766 1069 2766 1631 
L 2766 1759 
L 2194 1759 
z
M 3341 1997 
L 3341 0 
L 2766 0 
L 2766 531 
Q 2569 213 2275 61 
Q 1981 -91 1556 -91 
Q 1019 -91 701 211 
Q 384 513 384 1019 
Q 384 1609 779 1909 
Q 1175 2209 1959 2209 
L 2766 2209 
L 2766 2266 
Q 2766 2663 2505 2880 
Q 2244 3097 1772 3097 
Q 1472 3097 1187 3025 
Q 903 2953 641 2809 
L 641 3341 
Q 956 3463 1253 3523 
Q 1550 3584 1831 3584 
Q 2591 3584 2966 3190 
Q 3341 2797 3341 1997 
z
" transform="scale(0.015625)"/>
       <path id="DejaVuSans-79" d="M 2059 -325 
Q 1816 -950 1584 -1140 
Q 1353 -1331 966 -1331 
L 506 -1331 
L 506 -850 
L 844 -850 
Q 1081 -850 1212 -737 
Q 1344 -625 1503 -206 
L 1606 56 
L 191 3500 
L 800 3500 
L 1894 763 
L 2988 3500 
L 3597 3500 
L 2059 -325 
z
" transform="scale(0.015625)"/>
       <path id="DejaVuSans-73" d="M 2834 3397 
L 2834 2853 
Q 2591 2978 2328 3040 
Q 2066 3103 1784 3103 
Q 1356 3103 1142 2972 
Q 928 2841 928 2578 
Q 928 2378 1081 2264 
Q 1234 2150 1697 2047 
L 1894 2003 
Q 2506 1872 2764 1633 
Q 3022 1394 3022 966 
Q 3022 478 2636 193 
Q 2250 -91 1575 -91 
Q 1294 -91 989 -36 
Q 684 19 347 128 
L 347 722 
Q 666 556 975 473 
Q 1284 391 1588 391 
Q 1994 391 2212 530 
Q 2431 669 2431 922 
Q 2431 1156 2273 1281 
Q 2116 1406 1581 1522 
L 1381 1569 
Q 847 1681 609 1914 
Q 372 2147 372 2553 
Q 372 3047 722 3315 
Q 1072 3584 1716 3584 
Q 2034 3584 2315 3537 
Q 2597 3491 2834 3397 
z
" transform="scale(0.015625)"/>
       <path id="DejaVuSans-29" d="M 513 4856 
L 1013 4856 
Q 1481 4119 1714 3412 
Q 1947 2706 1947 2009 
Q 1947 1309 1714 600 
Q 1481 -109 1013 -844 
L 513 -844 
Q 928 -128 1133 580 
Q 1338 1288 1338 2009 
Q 1338 2731 1133 3434 
Q 928 4138 513 4856 
z
" transform="scale(0.015625)"/>
      </defs>
      <use xlink:href="#DejaVuSans-54"/>
      <use xlink:href="#DejaVuSans-69" x="57.958984"/>
      <use xlink:href="#DejaVuSans-6d" x="85.742188"/>
      <use xlink:href="#DejaVuSans-65" x="183.154297"/>
      <use xlink:href="#DejaVuSans-20" x="244.677734"/>
      <use xlink:href="#DejaVuSans-28" x="276.464844"/>
      <use xlink:href="#DejaVuSans-44" x="315.478516"/>
      <use xlink:href="#DejaVuSans-61" x="392.480469"/>
      <use xlink:href="#DejaVuSans-79" x="453.759766"/>
      <use xlink:href="#DejaVuSans-73" x="512.939453"/>
      <use xlink:href="#DejaVuSans-29" x="565.039062"/>
     </g>
    </g>
   </g>
   <g id="matplotlib.axis_2">
    <g id="ytick_1">
     <g id="line2d_11">
      <path d="M 73.384375 481.694181 
L 824.710375 481.694181 
" clip-path="url(#p27533cd294)" style="fill: none; stroke: #b0b0b0; stroke-width: 1.5; stroke-linecap: square"/>
     </g>
     <g id="line2d_12">
      <defs>
       <path id="mcd9b50c311" d="M 0 0 
L -9 0 
" style="stroke: #000000; stroke-width: 1.875"/>
      </defs>
      <g>
       <use xlink:href="#mcd9b50c311" x="73.384375" y="481.694181" style="stroke: #000000; stroke-width: 1.875"/>
      </g>
     </g>
     <g id="text_7">
      <!-- −5 -->
      <g transform="translate(31.4 489.292618) scale(0.2 -0.2)">
       <defs>
        <path id="DejaVuSans-2212" d="M 678 2272 
L 4684 2272 
L 4684 1741 
L 678 1741 
L 678 2272 
z
" transform="scale(0.015625)"/>
       </defs>
       <use xlink:href="#DejaVuSans-2212"/>
       <use xlink:href="#DejaVuSans-35" x="83.789062"/>
      </g>
     </g>
    </g>
    <g id="ytick_2">
     <g id="line2d_13">
      <path d="M 73.384375 402.67285 
L 824.710375 402.67285 
" clip-path="url(#p27533cd294)" style="fill: none; stroke: #b0b0b0; stroke-width: 1.5; stroke-linecap: square"/>
     </g>
     <g id="line2d_14">
      <g>
       <use xlink:href="#mcd9b50c311" x="73.384375" y="402.67285" style="stroke: #000000; stroke-width: 1.875"/>
      </g>
     </g>
     <g id="text_8">
      <!-- 0 -->
      <g transform="translate(48.159375 410.271287) scale(0.2 -0.2)">
       <use xlink:href="#DejaVuSans-30"/>
      </g>
     </g>
    </g>
    <g id="ytick_3">
     <g id="line2d_15">
      <path d="M 73.384375 323.651519 
L 824.710375 323.651519 
" clip-path="url(#p27533cd294)" style="fill: none; stroke: #b0b0b0; stroke-width: 1.5; stroke-linecap: square"/>
     </g>
     <g id="line2d_16">
      <g>
       <use xlink:href="#mcd9b50c311" x="73.384375" y="323.651519" style="stroke: #000000; stroke-width: 1.875"/>
      </g>
     </g>
     <g id="text_9">
      <!-- 5 -->
      <g transform="translate(48.159375 331.249957) scale(0.2 -0.2)">
       <use xlink:href="#DejaVuSans-35"/>
      </g>
     </g>
    </g>
    <g id="ytick_4">
     <g id="line2d_17">
      <path d="M 73.384375 244.630188 
L 824.710375 244.630188 
" clip-path="url(#p27533cd294)" style="fill: none; stroke: #b0b0b0; stroke-width: 1.5; stroke-linecap: square"/>
     </g>
     <g id="line2d_18">
      <g>
       <use xlink:href="#mcd9b50c311" x="73.384375" y="244.630188" style="stroke: #000000; stroke-width: 1.875"/>
      </g>
     </g>
     <g id="text_10">
      <!-- 10 -->
      <g transform="translate(35.434375 252.228626) scale(0.2 -0.2)">
       <use xlink:href="#DejaVuSans-31"/>
       <use xlink:href="#DejaVuSans-30" x="63.623047"/>
      </g>
     </g>
    </g>
    <g id="ytick_5">
     <g id="line2d_19">
      <path d="M 73.384375 165.608858 
L 824.710375 165.608858 
" clip-path="url(#p27533cd294)" style="fill: none; stroke: #b0b0b0; stroke-width: 1.5; stroke-linecap: square"/>
     </g>
     <g id="line2d_20">
      <g>
       <use xlink:href="#mcd9b50c311" x="73.384375" y="165.608858" style="stroke: #000000; stroke-width: 1.875"/>
      </g>
     </g>
     <g id="text_11">
      <!-- 15 -->
      <g transform="translate(35.434375 173.207295) scale(0.2 -0.2)">
       <use xlink:href="#DejaVuSans-31"/>
       <use xlink:href="#DejaVuSans-35" x="63.623047"/>
      </g>
     </g>
    </g>
    <g id="ytick_6">
     <g id="line2d_21">
      <path d="M 73.384375 86.587527 
L 824.710375 86.587527 
" clip-path="url(#p27533cd294)" style="fill: none; stroke: #b0b0b0; stroke-width: 1.5; stroke-linecap: square"/>
     </g>
     <g id="line2d_22">
      <g>
       <use xlink:href="#mcd9b50c311" x="73.384375" y="86.587527" style="stroke: #000000; stroke-width: 1.875"/>
      </g>
     </g>
     <g id="text_12">
      <!-- 20 -->
      <g transform="translate(35.434375 94.185964) scale(0.2 -0.2)">
       <use xlink:href="#DejaVuSans-32"/>
       <use xlink:href="#DejaVuSans-30" x="63.623047"/>
      </g>
     </g>
    </g>
    <g id="text_13">
     <!-- $Q_{loss, cal}$ (%) -->
     <g transform="translate(22.4 311.366875) rotate(-90) scale(0.2 -0.2)">
      <defs>
       <path id="DejaVuSans-Oblique-51" d="M 2309 -84 
Q 2275 -88 2237 -89 
Q 2200 -91 2125 -91 
Q 1250 -91 756 411 
Q 263 913 263 1797 
Q 263 2319 452 2844 
Q 641 3369 978 3788 
Q 1369 4269 1858 4509 
Q 2347 4750 2938 4750 
Q 3794 4750 4287 4245 
Q 4781 3741 4781 2869 
Q 4781 1928 4265 1147 
Q 3750 366 2919 44 
L 3553 -825 
L 2847 -825 
L 2309 -84 
z
M 2919 4238 
Q 2400 4238 2003 3986 
Q 1606 3734 1313 3219 
Q 1125 2891 1026 2522 
Q 928 2153 928 1778 
Q 928 1128 1239 775 
Q 1550 422 2119 422 
Q 2631 422 3032 676 
Q 3434 931 3719 1434 
Q 3909 1772 4009 2142 
Q 4109 2513 4109 2881 
Q 4109 3528 3796 3883 
Q 3484 4238 2919 4238 
z
" transform="scale(0.015625)"/>
       <path id="DejaVuSans-Oblique-6c" d="M 1172 4863 
L 1747 4863 
L 800 0 
L 225 0 
L 1172 4863 
z
" transform="scale(0.015625)"/>
       <path id="DejaVuSans-Oblique-6f" d="M 1625 -91 
Q 1009 -91 651 289 
Q 294 669 294 1325 
Q 294 1706 417 2101 
Q 541 2497 738 2766 
Q 1047 3184 1428 3384 
Q 1809 3584 2291 3584 
Q 2888 3584 3255 3212 
Q 3622 2841 3622 2241 
Q 3622 1825 3500 1412 
Q 3378 1000 3181 728 
Q 2875 309 2494 109 
Q 2113 -91 1625 -91 
z
M 891 1344 
Q 891 869 1089 633 
Q 1288 397 1691 397 
Q 2269 397 2648 901 
Q 3028 1406 3028 2181 
Q 3028 2634 2825 2865 
Q 2622 3097 2228 3097 
Q 1903 3097 1650 2945 
Q 1397 2794 1197 2484 
Q 1050 2253 970 1956 
Q 891 1659 891 1344 
z
" transform="scale(0.015625)"/>
       <path id="DejaVuSans-Oblique-73" d="M 3200 3397 
L 3091 2853 
Q 2863 2978 2609 3040 
Q 2356 3103 2088 3103 
Q 1634 3103 1373 2948 
Q 1113 2794 1113 2528 
Q 1113 2219 1719 2053 
Q 1766 2041 1788 2034 
L 1972 1978 
Q 2547 1819 2739 1644 
Q 2931 1469 2931 1166 
Q 2931 609 2489 259 
Q 2047 -91 1331 -91 
Q 1053 -91 747 -37 
Q 441 16 72 128 
L 184 722 
Q 500 559 806 475 
Q 1113 391 1394 391 
Q 1816 391 2080 572 
Q 2344 753 2344 1031 
Q 2344 1331 1650 1516 
L 1591 1531 
L 1394 1581 
Q 956 1697 753 1886 
Q 550 2075 550 2369 
Q 550 2928 970 3256 
Q 1391 3584 2113 3584 
Q 2397 3584 2667 3537 
Q 2938 3491 3200 3397 
z
" transform="scale(0.015625)"/>
       <path id="DejaVuSans-2c" d="M 750 794 
L 1409 794 
L 1409 256 
L 897 -744 
L 494 -744 
L 750 256 
L 750 794 
z
" transform="scale(0.015625)"/>
       <path id="DejaVuSans-Oblique-63" d="M 3431 3366 
L 3316 2797 
Q 3109 2947 2876 3022 
Q 2644 3097 2394 3097 
Q 2119 3097 1870 3000 
Q 1622 2903 1453 2725 
Q 1184 2453 1037 2087 
Q 891 1722 891 1331 
Q 891 859 1127 628 
Q 1363 397 1844 397 
Q 2081 397 2348 469 
Q 2616 541 2906 684 
L 2797 116 
Q 2547 13 2283 -39 
Q 2019 -91 1741 -91 
Q 1044 -91 669 257 
Q 294 606 294 1253 
Q 294 1797 489 2255 
Q 684 2713 1069 3078 
Q 1331 3328 1684 3456 
Q 2038 3584 2456 3584 
Q 2700 3584 2940 3529 
Q 3181 3475 3431 3366 
z
" transform="scale(0.015625)"/>
       <path id="DejaVuSans-Oblique-61" d="M 3438 1997 
L 3047 0 
L 2472 0 
L 2578 531 
Q 2325 219 2001 64 
Q 1678 -91 1281 -91 
Q 834 -91 548 182 
Q 263 456 263 884 
Q 263 1497 752 1853 
Q 1241 2209 2100 2209 
L 2900 2209 
L 2931 2363 
Q 2938 2388 2941 2417 
Q 2944 2447 2944 2509 
Q 2944 2788 2717 2942 
Q 2491 3097 2081 3097 
Q 1800 3097 1504 3025 
Q 1209 2953 897 2809 
L 997 3341 
Q 1322 3463 1633 3523 
Q 1944 3584 2234 3584 
Q 2853 3584 3176 3315 
Q 3500 3047 3500 2534 
Q 3500 2431 3484 2292 
Q 3469 2153 3438 1997 
z
M 2816 1759 
L 2241 1759 
Q 1534 1759 1195 1570 
Q 856 1381 856 984 
Q 856 709 1029 553 
Q 1203 397 1509 397 
Q 1978 397 2328 733 
Q 2678 1069 2791 1631 
L 2816 1759 
z
" transform="scale(0.015625)"/>
       <path id="DejaVuSans-25" d="M 4653 2053 
Q 4381 2053 4226 1822 
Q 4072 1591 4072 1178 
Q 4072 772 4226 539 
Q 4381 306 4653 306 
Q 4919 306 5073 539 
Q 5228 772 5228 1178 
Q 5228 1588 5073 1820 
Q 4919 2053 4653 2053 
z
M 4653 2450 
Q 5147 2450 5437 2106 
Q 5728 1763 5728 1178 
Q 5728 594 5436 251 
Q 5144 -91 4653 -91 
Q 4153 -91 3862 251 
Q 3572 594 3572 1178 
Q 3572 1766 3864 2108 
Q 4156 2450 4653 2450 
z
M 1428 4353 
Q 1159 4353 1004 4120 
Q 850 3888 850 3481 
Q 850 3069 1003 2837 
Q 1156 2606 1428 2606 
Q 1700 2606 1854 2837 
Q 2009 3069 2009 3481 
Q 2009 3884 1853 4118 
Q 1697 4353 1428 4353 
z
M 4250 4750 
L 4750 4750 
L 1831 -91 
L 1331 -91 
L 4250 4750 
z
M 1428 4750 
Q 1922 4750 2215 4408 
Q 2509 4066 2509 3481 
Q 2509 2891 2217 2550 
Q 1925 2209 1428 2209 
Q 931 2209 642 2551 
Q 353 2894 353 3481 
Q 353 4063 643 4406 
Q 934 4750 1428 4750 
z
" transform="scale(0.015625)"/>
      </defs>
      <use xlink:href="#DejaVuSans-Oblique-51" transform="translate(0 0.125)"/>
      <use xlink:href="#DejaVuSans-Oblique-6c" transform="translate(78.710938 -16.28125) scale(0.7)"/>
      <use xlink:href="#DejaVuSans-Oblique-6f" transform="translate(98.15918 -16.28125) scale(0.7)"/>
      <use xlink:href="#DejaVuSans-Oblique-73" transform="translate(140.986328 -16.28125) scale(0.7)"/>
      <use xlink:href="#DejaVuSans-Oblique-73" transform="translate(177.456055 -16.28125) scale(0.7)"/>
      <use xlink:href="#DejaVuSans-2c" transform="translate(213.925781 -16.28125) scale(0.7)"/>
      <use xlink:href="#DejaVuSans-Oblique-63" transform="translate(249.814453 -16.28125) scale(0.7)"/>
      <use xlink:href="#DejaVuSans-Oblique-61" transform="translate(288.300781 -16.28125) scale(0.7)"/>
      <use xlink:href="#DejaVuSans-Oblique-6c" transform="translate(331.196289 -16.28125) scale(0.7)"/>
      <use xlink:href="#DejaVuSans-20" transform="translate(353.378906 0.125)"/>
      <use xlink:href="#DejaVuSans-28" transform="translate(385.166016 0.125)"/>
      <use xlink:href="#DejaVuSans-25" transform="translate(424.179688 0.125)"/>
      <use xlink:href="#DejaVuSans-29" transform="translate(519.199219 0.125)"/>
     </g>
    </g>
   </g>
   <g id="line2d_23">
    <path d="M 107.535557 400.300935 
L 107.535557 400.300935 
L 107.535557 400.300935 
L 112.691114 388.848308 
L 112.691114 388.848308 
L 112.691114 388.848308 
L 116.4421 380.154488 
L 116.4421 380.154488 
L 116.4421 380.154488 
L 120.687002 369.60364 
L 120.687002 369.60364 
L 120.687002 369.60364 
L 130.305477 341.967943 
L 130.305477 341.967943 
L 130.305477 341.967943 
L 139.984083 327.661269 
L 139.984083 327.661269 
L 139.984083 327.661269 
L 148.875192 316.315766 
L 148.875192 316.315766 
L 148.875192 316.315766 
L 170.078797 300.026826 
L 170.078797 300.026826 
L 170.078797 300.026826 
L 190.472074 287.256533 
L 190.472074 287.256533 
L 190.472074 287.256533 
L 213.222379 275.815435 
L 213.222379 275.815435 
L 213.222379 275.815435 
L 232.065741 267.570396 
L 232.065741 267.570396 
L 232.065741 267.570396 
L 251.690491 258.97475 
L 251.690491 258.97475 
L 251.690491 258.97475 
L 272.128786 249.094189 
L 272.128786 249.094189 
L 272.128786 249.094189 
L 292.53171 238.458124 
L 292.53171 238.458124 
L 292.53171 238.458124 
L 312.950711 228.307049 
L 312.950711 228.307049 
L 312.950711 228.307049 
L 333.485474 218.169509 
L 333.485474 218.169509 
L 333.485474 218.169509 
L 353.95914 209.156606 
L 353.95914 209.156606 
L 353.95914 209.156606 
L 374.432807 200.612868 
L 374.432807 200.612868 
L 374.432807 200.612868 
L 397.954853 191.613364 
L 397.954853 191.613364 
L 397.954853 191.613364 
L 418.34813 184.351947 
L 418.34813 184.351947 
L 418.34813 184.351947 
L 438.805718 177.902284 
L 438.805718 177.902284 
L 438.805718 177.902284 
L 459.289032 171.665982 
L 459.289032 171.665982 
L 459.289032 171.665982 
L 479.740189 165.559481 
L 479.740189 165.559481 
L 479.740189 165.559481 
L 500.191346 159.604667 
L 500.191346 159.604667 
L 500.191346 159.604667 
L 520.546036 153.582992 
L 520.546036 153.582992 
L 520.546036 153.582992 
L 541.029349 147.680447 
L 541.029349 147.680447 
L 541.029349 147.680447 
L 561.544818 141.920756 
L 561.544818 141.920756 
L 561.544818 141.920756 
L 580.066621 136.756775 
L 580.066621 136.756775 
L 580.066621 136.756775 
L 594.633247 132.867836 
L 594.633247 132.867836 
L 594.633247 132.867836 
L 615.952614 127.304324 
L 615.952614 127.304324 
L 615.952614 127.304324 
L 654.218144 118.158138 
L 654.218144 118.158138 
L 654.218144 118.158138 
L 694.027158 109.13901 
L 694.027158 109.13901 
L 694.027158 109.13901 
L 724.607426 102.605033 
L 724.607426 102.605033 
L 724.607426 102.605033 
L 755.895125 95.168026 
L 755.895125 95.168026 
L 755.895125 95.168026 
L 790.559193 87.662953 
L 790.559193 87.662953 
L 790.559193 87.662953 
" clip-path="url(#p27533cd294)" style="fill: none; stroke: #0000ff; stroke-width: 2; stroke-linecap: square"/>
   </g>
   <g id="line2d_24">
    <path d="M 107.535557 461.894148 
L 107.535557 461.894148 
L 107.535557 461.894148 
L 112.691114 440.102296 
L 112.691114 440.102296 
L 112.691114 440.102296 
L 116.4421 423.907029 
L 116.4421 423.907029 
L 116.4421 423.907029 
L 120.687002 404.575886 
L 120.687002 404.575886 
L 120.687002 404.575886 
L 130.305477 359.003673 
L 130.305477 359.003673 
L 130.305477 359.003673 
L 139.984083 343.181207 
L 139.984083 343.181207 
L 139.984083 343.181207 
L 148.875192 332.539248 
L 148.875192 332.539248 
L 148.875192 332.539248 
L 170.078797 313.108298 
L 170.078797 313.108298 
L 170.078797 313.108298 
L 190.472074 298.14783 
L 190.472074 298.14783 
L 190.472074 298.14783 
L 213.222379 286.035683 
L 213.222379 286.035683 
L 213.222379 286.035683 
L 232.065741 277.291569 
L 232.065741 277.291569 
L 232.065741 277.291569 
L 251.690491 268.103105 
L 251.690491 268.103105 
L 251.690491 268.103105 
L 272.128786 257.885261 
L 272.128786 257.885261 
L 272.128786 257.885261 
L 292.53171 247.23863 
L 292.53171 247.23863 
L 292.53171 247.23863 
L 312.950711 237.167408 
L 312.950711 237.167408 
L 312.950711 237.167408 
L 333.485474 227.034676 
L 333.485474 227.034676 
L 333.485474 227.034676 
L 353.95914 218.108362 
L 353.95914 218.108362 
L 353.95914 218.108362 
L 374.432807 209.983131 
L 374.432807 209.983131 
L 374.432807 209.983131 
L 397.954853 201.460042 
L 397.954853 201.460042 
L 397.954853 201.460042 
L 418.34813 194.563129 
L 418.34813 194.563129 
L 418.34813 194.563129 
L 438.805718 188.395224 
L 438.805718 188.395224 
L 438.805718 188.395224 
L 459.289032 182.291753 
L 459.289032 182.291753 
L 459.289032 182.291753 
L 479.740189 176.030929 
L 479.740189 176.030929 
L 479.740189 176.030929 
L 500.191346 169.974377 
L 500.191346 169.974377 
L 500.191346 169.974377 
L 520.546036 164.233933 
L 520.546036 164.233933 
L 520.546036 164.233933 
L 541.029349 158.56894 
L 541.029349 158.56894 
L 541.029349 158.56894 
L 561.544818 152.844262 
L 561.544818 152.844262 
L 561.544818 152.844262 
L 580.066621 147.608885 
L 580.066621 147.608885 
L 580.066621 147.608885 
L 594.633247 143.595209 
L 594.633247 143.595209 
L 594.633247 143.595209 
L 615.952614 137.798108 
L 615.952614 137.798108 
L 615.952614 137.798108 
L 654.218144 128.268397 
L 654.218144 128.268397 
L 654.218144 128.268397 
L 694.027158 118.841779 
L 694.027158 118.841779 
L 694.027158 118.841779 
L 724.607426 111.98954 
L 724.607426 111.98954 
L 724.607426 111.98954 
L 755.895125 104.55835 
L 755.895125 104.55835 
L 755.895125 104.55835 
L 790.559193 97.113506 
L 790.559193 97.113506 
L 790.559193 97.113506 
" clip-path="url(#p27533cd294)" style="fill: none; stroke-dasharray: 8.325,3.6; stroke-dashoffset: 0; stroke: #0000ff; stroke-width: 2.25"/>
   </g>
   <g id="line2d_25">
    <path d="M 107.535557 338.707726 
L 107.535557 338.707726 
L 107.535557 338.707726 
L 112.691114 337.594318 
L 112.691114 337.594318 
L 112.691114 337.594318 
L 116.4421 336.401947 
L 116.4421 336.401947 
L 116.4421 336.401947 
L 120.687002 334.631395 
L 120.687002 334.631395 
L 120.687002 334.631395 
L 130.305477 324.932212 
L 130.305477 324.932212 
L 130.305477 324.932212 
L 139.984083 312.141331 
L 139.984083 312.141331 
L 139.984083 312.141331 
L 148.875192 300.092284 
L 148.875192 300.092284 
L 148.875192 300.092284 
L 170.078797 286.945354 
L 170.078797 286.945354 
L 170.078797 286.945354 
L 190.472074 276.365236 
L 190.472074 276.365236 
L 190.472074 276.365236 
L 213.222379 265.595179 
L 213.222379 265.595179 
L 213.222379 265.595179 
L 232.065741 257.849224 
L 232.065741 257.849224 
L 232.065741 257.849224 
L 251.690491 249.846394 
L 251.690491 249.846394 
L 251.690491 249.846394 
L 272.128786 240.303118 
L 272.128786 240.303118 
L 272.128786 240.303118 
L 292.53171 229.677618 
L 292.53171 229.677618 
L 292.53171 229.677618 
L 312.950711 219.446691 
L 312.950711 219.446691 
L 312.950711 219.446691 
L 333.485474 209.304343 
L 333.485474 209.304343 
L 333.485474 209.304343 
L 353.95914 200.20485 
L 353.95914 200.20485 
L 353.95914 200.20485 
L 374.432807 191.242605 
L 374.432807 191.242605 
L 374.432807 191.242605 
L 397.954853 181.766686 
L 397.954853 181.766686 
L 397.954853 181.766686 
L 418.34813 174.140764 
L 418.34813 174.140764 
L 418.34813 174.140764 
L 438.805718 167.409343 
L 438.805718 167.409343 
L 438.805718 167.409343 
L 459.289032 161.040211 
L 459.289032 161.040211 
L 459.289032 161.040211 
L 479.740189 155.088034 
L 479.740189 155.088034 
L 479.740189 155.088034 
L 500.191346 149.234956 
L 500.191346 149.234956 
L 500.191346 149.234956 
L 520.546036 142.932035 
L 520.546036 142.932035 
L 520.546036 142.932035 
L 541.029349 136.791954 
L 541.029349 136.791954 
L 541.029349 136.791954 
L 561.544818 130.997235 
L 561.544818 130.997235 
L 561.544818 130.997235 
L 580.066621 125.904666 
L 580.066621 125.904666 
L 580.066621 125.904666 
L 594.633247 122.140464 
L 594.633247 122.140464 
L 594.633247 122.140464 
L 615.952614 116.810539 
L 615.952614 116.810539 
L 615.952614 116.810539 
L 654.218144 108.047878 
L 654.218144 108.047878 
L 654.218144 108.047878 
L 694.027158 99.43624 
L 694.027158 99.43624 
L 694.027158 99.43624 
L 724.607426 93.220527 
L 724.607426 93.220527 
L 724.607426 93.220527 
L 755.895125 85.777702 
L 755.895125 85.777702 
L 755.895125 85.777702 
L 790.559193 78.2124 
L 790.559193 78.2124 
L 790.559193 78.2124 
" clip-path="url(#p27533cd294)" style="fill: none; stroke-dasharray: 8.325,3.6; stroke-dashoffset: 0; stroke: #0000ff; stroke-width: 2.25"/>
   </g>
   <g id="patch_3">
    <path d="M 73.384375 482.536875 
L 73.384375 28.396875 
" style="fill: none; stroke: #000000; stroke-width: 1.875; stroke-linejoin: miter; stroke-linecap: square"/>
   </g>
   <g id="patch_4">
    <path d="M 824.710375 482.536875 
L 824.710375 28.396875 
" style="fill: none; stroke: #000000; stroke-width: 1.875; stroke-linejoin: miter; stroke-linecap: square"/>
   </g>
   <g id="patch_5">
    <path d="M 73.384375 482.536875 
L 824.710375 482.536875 
" style="fill: none; stroke: #000000; stroke-width: 1.875; stroke-linejoin: miter; stroke-linecap: square"/>
   </g>
   <g id="patch_6">
    <path d="M 73.384375 28.396875 
L 824.710375 28.396875 
" style="fill: none; stroke: #000000; stroke-width: 1.875; stroke-linejoin: miter; stroke-linecap: square"/>
   </g>
   <g id="text_14">
    <!-- Calendar Model Regression for 60.0°C, 50.0%SOC -->
    <g transform="translate(199.323937 22.396875) scale(0.2 -0.2)">
     <defs>
      <path id="DejaVuSans-43" d="M 4122 4306 
L 4122 3641 
Q 3803 3938 3442 4084 
Q 3081 4231 2675 4231 
Q 1875 4231 1450 3742 
Q 1025 3253 1025 2328 
Q 1025 1406 1450 917 
Q 1875 428 2675 428 
Q 3081 428 3442 575 
Q 3803 722 4122 1019 
L 4122 359 
Q 3791 134 3420 21 
Q 3050 -91 2638 -91 
Q 1578 -91 968 557 
Q 359 1206 359 2328 
Q 359 3453 968 4101 
Q 1578 4750 2638 4750 
Q 3056 4750 3426 4639 
Q 3797 4528 4122 4306 
z
" transform="scale(0.015625)"/>
      <path id="DejaVuSans-6c" d="M 603 4863 
L 1178 4863 
L 1178 0 
L 603 0 
L 603 4863 
z
" transform="scale(0.015625)"/>
      <path id="DejaVuSans-6e" d="M 3513 2113 
L 3513 0 
L 2938 0 
L 2938 2094 
Q 2938 2591 2744 2837 
Q 2550 3084 2163 3084 
Q 1697 3084 1428 2787 
Q 1159 2491 1159 1978 
L 1159 0 
L 581 0 
L 581 3500 
L 1159 3500 
L 1159 2956 
Q 1366 3272 1645 3428 
Q 1925 3584 2291 3584 
Q 2894 3584 3203 3211 
Q 3513 2838 3513 2113 
z
" transform="scale(0.015625)"/>
      <path id="DejaVuSans-64" d="M 2906 2969 
L 2906 4863 
L 3481 4863 
L 3481 0 
L 2906 0 
L 2906 525 
Q 2725 213 2448 61 
Q 2172 -91 1784 -91 
Q 1150 -91 751 415 
Q 353 922 353 1747 
Q 353 2572 751 3078 
Q 1150 3584 1784 3584 
Q 2172 3584 2448 3432 
Q 2725 3281 2906 2969 
z
M 947 1747 
Q 947 1113 1208 752 
Q 1469 391 1925 391 
Q 2381 391 2643 752 
Q 2906 1113 2906 1747 
Q 2906 2381 2643 2742 
Q 2381 3103 1925 3103 
Q 1469 3103 1208 2742 
Q 947 2381 947 1747 
z
" transform="scale(0.015625)"/>
      <path id="DejaVuSans-72" d="M 2631 2963 
Q 2534 3019 2420 3045 
Q 2306 3072 2169 3072 
Q 1681 3072 1420 2755 
Q 1159 2438 1159 1844 
L 1159 0 
L 581 0 
L 581 3500 
L 1159 3500 
L 1159 2956 
Q 1341 3275 1631 3429 
Q 1922 3584 2338 3584 
Q 2397 3584 2469 3576 
Q 2541 3569 2628 3553 
L 2631 2963 
z
" transform="scale(0.015625)"/>
      <path id="DejaVuSans-4d" d="M 628 4666 
L 1569 4666 
L 2759 1491 
L 3956 4666 
L 4897 4666 
L 4897 0 
L 4281 0 
L 4281 4097 
L 3078 897 
L 2444 897 
L 1241 4097 
L 1241 0 
L 628 0 
L 628 4666 
z
" transform="scale(0.015625)"/>
      <path id="DejaVuSans-6f" d="M 1959 3097 
Q 1497 3097 1228 2736 
Q 959 2375 959 1747 
Q 959 1119 1226 758 
Q 1494 397 1959 397 
Q 2419 397 2687 759 
Q 2956 1122 2956 1747 
Q 2956 2369 2687 2733 
Q 2419 3097 1959 3097 
z
M 1959 3584 
Q 2709 3584 3137 3096 
Q 3566 2609 3566 1747 
Q 3566 888 3137 398 
Q 2709 -91 1959 -91 
Q 1206 -91 779 398 
Q 353 888 353 1747 
Q 353 2609 779 3096 
Q 1206 3584 1959 3584 
z
" transform="scale(0.015625)"/>
      <path id="DejaVuSans-52" d="M 2841 2188 
Q 3044 2119 3236 1894 
Q 3428 1669 3622 1275 
L 4263 0 
L 3584 0 
L 2988 1197 
Q 2756 1666 2539 1819 
Q 2322 1972 1947 1972 
L 1259 1972 
L 1259 0 
L 628 0 
L 628 4666 
L 2053 4666 
Q 2853 4666 3247 4331 
Q 3641 3997 3641 3322 
Q 3641 2881 3436 2590 
Q 3231 2300 2841 2188 
z
M 1259 4147 
L 1259 2491 
L 2053 2491 
Q 2509 2491 2742 2702 
Q 2975 2913 2975 3322 
Q 2975 3731 2742 3939 
Q 2509 4147 2053 4147 
L 1259 4147 
z
" transform="scale(0.015625)"/>
      <path id="DejaVuSans-67" d="M 2906 1791 
Q 2906 2416 2648 2759 
Q 2391 3103 1925 3103 
Q 1463 3103 1205 2759 
Q 947 2416 947 1791 
Q 947 1169 1205 825 
Q 1463 481 1925 481 
Q 2391 481 2648 825 
Q 2906 1169 2906 1791 
z
M 3481 434 
Q 3481 -459 3084 -895 
Q 2688 -1331 1869 -1331 
Q 1566 -1331 1297 -1286 
Q 1028 -1241 775 -1147 
L 775 -588 
Q 1028 -725 1275 -790 
Q 1522 -856 1778 -856 
Q 2344 -856 2625 -561 
Q 2906 -266 2906 331 
L 2906 616 
Q 2728 306 2450 153 
Q 2172 0 1784 0 
Q 1141 0 747 490 
Q 353 981 353 1791 
Q 353 2603 747 3093 
Q 1141 3584 1784 3584 
Q 2172 3584 2450 3431 
Q 2728 3278 2906 2969 
L 2906 3500 
L 3481 3500 
L 3481 434 
z
" transform="scale(0.015625)"/>
      <path id="DejaVuSans-66" d="M 2375 4863 
L 2375 4384 
L 1825 4384 
Q 1516 4384 1395 4259 
Q 1275 4134 1275 3809 
L 1275 3500 
L 2222 3500 
L 2222 3053 
L 1275 3053 
L 1275 0 
L 697 0 
L 697 3053 
L 147 3053 
L 147 3500 
L 697 3500 
L 697 3744 
Q 697 4328 969 4595 
Q 1241 4863 1831 4863 
L 2375 4863 
z
" transform="scale(0.015625)"/>
      <path id="DejaVuSans-36" d="M 2113 2584 
Q 1688 2584 1439 2293 
Q 1191 2003 1191 1497 
Q 1191 994 1439 701 
Q 1688 409 2113 409 
Q 2538 409 2786 701 
Q 3034 994 3034 1497 
Q 3034 2003 2786 2293 
Q 2538 2584 2113 2584 
z
M 3366 4563 
L 3366 3988 
Q 3128 4100 2886 4159 
Q 2644 4219 2406 4219 
Q 1781 4219 1451 3797 
Q 1122 3375 1075 2522 
Q 1259 2794 1537 2939 
Q 1816 3084 2150 3084 
Q 2853 3084 3261 2657 
Q 3669 2231 3669 1497 
Q 3669 778 3244 343 
Q 2819 -91 2113 -91 
Q 1303 -91 875 529 
Q 447 1150 447 2328 
Q 447 3434 972 4092 
Q 1497 4750 2381 4750 
Q 2619 4750 2861 4703 
Q 3103 4656 3366 4563 
z
" transform="scale(0.015625)"/>
      <path id="DejaVuSans-2e" d="M 684 794 
L 1344 794 
L 1344 0 
L 684 0 
L 684 794 
z
" transform="scale(0.015625)"/>
      <path id="DejaVuSans-b0" d="M 1600 4347 
Q 1350 4347 1178 4173 
Q 1006 4000 1006 3750 
Q 1006 3503 1178 3333 
Q 1350 3163 1600 3163 
Q 1850 3163 2022 3333 
Q 2194 3503 2194 3750 
Q 2194 3997 2020 4172 
Q 1847 4347 1600 4347 
z
M 1600 4750 
Q 1800 4750 1984 4673 
Q 2169 4597 2303 4453 
Q 2447 4313 2519 4134 
Q 2591 3956 2591 3750 
Q 2591 3338 2302 3052 
Q 2013 2766 1594 2766 
Q 1172 2766 890 3047 
Q 609 3328 609 3750 
Q 609 4169 896 4459 
Q 1184 4750 1600 4750 
z
" transform="scale(0.015625)"/>
      <path id="DejaVuSans-53" d="M 3425 4513 
L 3425 3897 
Q 3066 4069 2747 4153 
Q 2428 4238 2131 4238 
Q 1616 4238 1336 4038 
Q 1056 3838 1056 3469 
Q 1056 3159 1242 3001 
Q 1428 2844 1947 2747 
L 2328 2669 
Q 3034 2534 3370 2195 
Q 3706 1856 3706 1288 
Q 3706 609 3251 259 
Q 2797 -91 1919 -91 
Q 1588 -91 1214 -16 
Q 841 59 441 206 
L 441 856 
Q 825 641 1194 531 
Q 1563 422 1919 422 
Q 2459 422 2753 634 
Q 3047 847 3047 1241 
Q 3047 1584 2836 1778 
Q 2625 1972 2144 2069 
L 1759 2144 
Q 1053 2284 737 2584 
Q 422 2884 422 3419 
Q 422 4038 858 4394 
Q 1294 4750 2059 4750 
Q 2388 4750 2728 4690 
Q 3069 4631 3425 4513 
z
" transform="scale(0.015625)"/>
      <path id="DejaVuSans-4f" d="M 2522 4238 
Q 1834 4238 1429 3725 
Q 1025 3213 1025 2328 
Q 1025 1447 1429 934 
Q 1834 422 2522 422 
Q 3209 422 3611 934 
Q 4013 1447 4013 2328 
Q 4013 3213 3611 3725 
Q 3209 4238 2522 4238 
z
M 2522 4750 
Q 3503 4750 4090 4092 
Q 4678 3434 4678 2328 
Q 4678 1225 4090 567 
Q 3503 -91 2522 -91 
Q 1538 -91 948 565 
Q 359 1222 359 2328 
Q 359 3434 948 4092 
Q 1538 4750 2522 4750 
z
" transform="scale(0.015625)"/>
     </defs>
     <use xlink:href="#DejaVuSans-43"/>
     <use xlink:href="#DejaVuSans-61" x="69.824219"/>
     <use xlink:href="#DejaVuSans-6c" x="131.103516"/>
     <use xlink:href="#DejaVuSans-65" x="158.886719"/>
     <use xlink:href="#DejaVuSans-6e" x="220.410156"/>
     <use xlink:href="#DejaVuSans-64" x="283.789062"/>
     <use xlink:href="#DejaVuSans-61" x="347.265625"/>
     <use xlink:href="#DejaVuSans-72" x="408.544922"/>
     <use xlink:href="#DejaVuSans-20" x="449.658203"/>
     <use xlink:href="#DejaVuSans-4d" x="481.445312"/>
     <use xlink:href="#DejaVuSans-6f" x="567.724609"/>
     <use xlink:href="#DejaVuSans-64" x="628.90625"/>
     <use xlink:href="#DejaVuSans-65" x="692.382812"/>
     <use xlink:href="#DejaVuSans-6c" x="753.90625"/>
     <use xlink:href="#DejaVuSans-20" x="781.689453"/>
     <use xlink:href="#DejaVuSans-52" x="813.476562"/>
     <use xlink:href="#DejaVuSans-65" x="878.458984"/>
     <use xlink:href="#DejaVuSans-67" x="939.982422"/>
     <use xlink:href="#DejaVuSans-72" x="1003.458984"/>
     <use xlink:href="#DejaVuSans-65" x="1042.322266"/>
     <use xlink:href="#DejaVuSans-73" x="1103.845703"/>
     <use xlink:href="#DejaVuSans-73" x="1155.945312"/>
     <use xlink:href="#DejaVuSans-69" x="1208.044922"/>
     <use xlink:href="#DejaVuSans-6f" x="1235.828125"/>
     <use xlink:href="#DejaVuSans-6e" x="1297.009766"/>
     <use xlink:href="#DejaVuSans-20" x="1360.388672"/>
     <use xlink:href="#DejaVuSans-66" x="1392.175781"/>
     <use xlink:href="#DejaVuSans-6f" x="1427.380859"/>
     <use xlink:href="#DejaVuSans-72" x="1488.5625"/>
     <use xlink:href="#DejaVuSans-20" x="1529.675781"/>
     <use xlink:href="#DejaVuSans-36" x="1561.462891"/>
     <use xlink:href="#DejaVuSans-30" x="1625.085938"/>
     <use xlink:href="#DejaVuSans-2e" x="1688.708984"/>
     <use xlink:href="#DejaVuSans-30" x="1720.496094"/>
     <use xlink:href="#DejaVuSans-b0" x="1784.119141"/>
     <use xlink:href="#DejaVuSans-43" x="1834.119141"/>
     <use xlink:href="#DejaVuSans-2c" x="1903.943359"/>
     <use xlink:href="#DejaVuSans-20" x="1935.730469"/>
     <use xlink:href="#DejaVuSans-35" x="1967.517578"/>
     <use xlink:href="#DejaVuSans-30" x="2031.140625"/>
     <use xlink:href="#DejaVuSans-2e" x="2094.763672"/>
     <use xlink:href="#DejaVuSans-30" x="2126.550781"/>
     <use xlink:href="#DejaVuSans-25" x="2190.173828"/>
     <use xlink:href="#DejaVuSans-53" x="2285.193359"/>
     <use xlink:href="#DejaVuSans-4f" x="2348.669922"/>
     <use xlink:href="#DejaVuSans-43" x="2427.380859"/>
    </g>
   </g>
   <g id="legend_1">
    <g id="patch_7">
     <path d="M 87.384375 132.546875 
L 214.184375 132.546875 
Q 218.184375 132.546875 218.184375 128.546875 
L 218.184375 42.396875 
Q 218.184375 38.396875 214.184375 38.396875 
L 87.384375 38.396875 
Q 83.384375 38.396875 83.384375 42.396875 
L 83.384375 128.546875 
Q 83.384375 132.546875 87.384375 132.546875 
z
" style="fill: #ffffff; opacity: 0.8; stroke: #cccccc; stroke-width: 1.5; stroke-linejoin: miter"/>
    </g>
    <g id="PathCollection_2">
     <g>
      <use xlink:href="#me627dc91ed" x="111.384375" y="56.34375" style="fill: #008000; stroke: #008000; stroke-width: 1.5"/>
     </g>
    </g>
    <g id="text_15">
     <!-- True -->
     <g transform="translate(147.384375 61.59375) scale(0.2 -0.2)">
      <defs>
       <path id="DejaVuSans-75" d="M 544 1381 
L 544 3500 
L 1119 3500 
L 1119 1403 
Q 1119 906 1312 657 
Q 1506 409 1894 409 
Q 2359 409 2629 706 
Q 2900 1003 2900 1516 
L 2900 3500 
L 3475 3500 
L 3475 0 
L 2900 0 
L 2900 538 
Q 2691 219 2414 64 
Q 2138 -91 1772 -91 
Q 1169 -91 856 284 
Q 544 659 544 1381 
z
M 1991 3584 
L 1991 3584 
z
" transform="scale(0.015625)"/>
      </defs>
      <use xlink:href="#DejaVuSans-54"/>
      <use xlink:href="#DejaVuSans-72" x="46.333984"/>
      <use xlink:href="#DejaVuSans-75" x="87.447266"/>
      <use xlink:href="#DejaVuSans-65" x="150.826172"/>
     </g>
    </g>
    <g id="line2d_26">
     <path d="M 91.384375 83.95 
L 111.384375 83.95 
L 131.384375 83.95 
" style="fill: none; stroke: #0000ff; stroke-width: 2; stroke-linecap: square"/>
    </g>
    <g id="text_16">
     <!-- $\mu$ -->
     <g transform="translate(147.384375 90.95) scale(0.2 -0.2)">
      <defs>
       <path id="DejaVuSans-Oblique-3bc" d="M -84 -1331 
L 856 3500 
L 1434 3500 
L 1009 1322 
Q 997 1256 987 1175 
Q 978 1094 978 1013 
Q 978 722 1161 565 
Q 1344 409 1684 409 
Q 2147 409 2431 671 
Q 2716 934 2816 1459 
L 3213 3500 
L 3788 3500 
L 3266 809 
Q 3253 750 3248 706 
Q 3244 663 3244 628 
Q 3244 531 3283 486 
Q 3322 441 3406 441 
Q 3438 441 3492 456 
Q 3547 472 3647 513 
L 3559 50 
Q 3422 -19 3297 -55 
Q 3172 -91 3053 -91 
Q 2847 -91 2730 40 
Q 2613 172 2613 403 
Q 2438 153 2195 31 
Q 1953 -91 1625 -91 
Q 1334 -91 1117 43 
Q 900 178 831 397 
L 494 -1331 
L -84 -1331 
z
" transform="scale(0.015625)"/>
      </defs>
      <use xlink:href="#DejaVuSans-Oblique-3bc" transform="translate(0 0.3125)"/>
     </g>
    </g>
    <g id="line2d_27">
     <path d="M 91.384375 113.346875 
L 111.384375 113.346875 
L 131.384375 113.346875 
" style="fill: none; stroke-dasharray: 8.325,3.6; stroke-dashoffset: 0; stroke: #0000ff; stroke-width: 2.25"/>
    </g>
    <g id="text_17">
     <!-- $\mu \pm 2 \sigma$ -->
     <g transform="translate(147.384375 120.346875) scale(0.2 -0.2)">
      <defs>
       <path id="DejaVuSans-b1" d="M 2944 4013 
L 2944 2803 
L 4684 2803 
L 4684 2272 
L 2944 2272 
L 2944 1063 
L 2419 1063 
L 2419 2272 
L 678 2272 
L 678 2803 
L 2419 2803 
L 2419 4013 
L 2944 4013 
z
M 678 531 
L 4684 531 
L 4684 0 
L 678 0 
L 678 531 
z
" transform="scale(0.015625)"/>
       <path id="DejaVuSans-Oblique-3c3" d="M 2219 3044 
Q 1744 3044 1422 2700 
Q 1081 2341 969 1747 
Q 844 1119 1044 756 
Q 1241 397 1706 397 
Q 2166 397 2503 759 
Q 2844 1122 2966 1747 
Q 3075 2319 2881 2700 
Q 2700 3044 2219 3044 
z
M 2309 3503 
L 4219 3500 
L 4106 2925 
L 3463 2925 
Q 3706 2438 3575 1747 
Q 3406 888 2884 400 
Q 2359 -91 1609 -91 
Q 856 -91 525 400 
Q 194 888 363 1747 
Q 528 2609 1050 3097 
Q 1484 3503 2309 3503 
z
" transform="scale(0.015625)"/>
      </defs>
      <use xlink:href="#DejaVuSans-Oblique-3bc" transform="translate(0 0.78125)"/>
      <use xlink:href="#DejaVuSans-b1" transform="translate(83.105469 0.78125)"/>
      <use xlink:href="#DejaVuSans-32" transform="translate(186.376953 0.78125)"/>
      <use xlink:href="#DejaVuSans-Oblique-3c3" transform="translate(250 0.78125)"/>
     </g>
    </g>
   </g>
  </g>
 </g>
 <defs>
  <clipPath id="p27533cd294">
   <rect x="73.384375" y="28.396875" width="751.326" height="454.14"/>
  </clipPath>
 </defs>
</svg>
