<?xml version="1.0" encoding="utf-8" standalone="no"?>
<!DOCTYPE svg PUBLIC "-//W3C//DTD SVG 1.1//EN"
  "http://www.w3.org/Graphics/SVG/1.1/DTD/svg11.dtd">
<svg xmlns:xlink="http://www.w3.org/1999/xlink" width="750.184375pt" height="378.89625pt" viewBox="0 0 750.184375 378.89625" xmlns="http://www.w3.org/2000/svg" version="1.1">
 <metadata>
  <rdf:RDF xmlns:dc="http://purl.org/dc/elements/1.1/" xmlns:cc="http://creativecommons.org/ns#" xmlns:rdf="http://www.w3.org/1999/02/22-rdf-syntax-ns#">
   <cc:Work>
    <dc:type rdf:resource="http://purl.org/dc/dcmitype/StillImage"/>
    <dc:date>2024-08-08T11:50:07.138625</dc:date>
    <dc:format>image/svg+xml</dc:format>
    <dc:creator>
     <cc:Agent>
      <dc:title>Matplotlib v3.8.2, https://matplotlib.org/</dc:title>
     </cc:Agent>
    </dc:creator>
   </cc:Work>
  </rdf:RDF>
 </metadata>
 <defs>
  <style type="text/css">*{stroke-linejoin: round; stroke-linecap: butt}</style>
 </defs>
 <g id="figure_1">
  <g id="patch_1">
   <path d="M 0 378.89625 
L 750.184375 378.89625 
L 750.184375 0 
L 0 0 
z
" style="fill: #ffffff"/>
  </g>
  <g id="axes_1">
   <g id="patch_2">
    <path d="M 73.384375 339.84 
L 742.984375 339.84 
L 742.984375 7.2 
L 73.384375 7.2 
z
" style="fill: #ffffff"/>
   </g>
   <g id="PolyCollection_1">
    <defs>
     <path id="m217cea2839" d="M 187.263378 -104.742451 
L 182.705372 -104.742451 
L 181.578092 -107.286227 
L 180.058379 -109.830003 
L 178.089881 -112.373779 
L 175.642302 -114.917554 
L 172.724699 -117.46133 
L 169.395929 -120.005106 
L 165.769108 -122.548882 
L 162.007567 -125.092657 
L 158.311297 -127.636433 
L 154.894997 -130.180209 
L 151.961021 -132.723985 
L 149.672126 -135.26776 
L 148.129387 -137.811536 
L 147.35976 -140.355312 
L 147.315668 -142.899088 
L 147.886335 -145.442863 
L 148.91803 -147.986639 
L 150.238715 -150.530415 
L 151.682119 -153.074191 
L 153.107028 -155.617966 
L 154.409192 -158.161742 
L 155.525227 -160.705518 
L 156.429587 -163.249294 
L 157.126783 -165.793069 
L 157.641444 -168.336845 
L 158.008504 -170.880621 
L 158.265141 -173.424397 
L 158.445265 -175.968172 
L 158.576586 -178.511948 
L 158.679808 -181.055724 
L 158.76922 -183.599499 
L 158.85395 -186.143275 
L 158.939304 -188.687051 
L 159.027825 -191.230827 
L 159.119971 -193.774602 
L 159.214444 -196.318378 
L 159.308386 -198.862154 
L 159.397592 -201.40593 
L 159.476921 -203.949705 
L 159.540936 -206.493481 
L 159.58472 -209.037257 
L 159.604712 -211.581033 
L 159.59937 -214.124808 
L 159.569497 -216.668584 
L 159.518123 -219.21236 
L 159.449971 -221.756136 
L 159.370605 -224.299911 
L 159.285451 -226.843687 
L 159.198904 -229.387463 
L 159.113681 -231.931239 
L 159.030562 -234.475014 
L 158.948581 -237.01879 
L 158.865661 -239.562566 
L 158.779676 -242.106342 
L 158.689847 -244.650117 
L 158.598337 -247.193893 
L 158.511812 -249.737669 
L 158.442667 -252.281445 
L 158.409532 -254.82522 
L 158.436682 -257.368996 
L 158.552125 -259.912772 
L 158.78433 -262.456548 
L 159.157935 -265.000323 
L 159.689079 -267.544099 
L 160.381246 -270.087875 
L 161.222563 -272.63165 
L 162.185293 -275.175426 
L 163.227849 -277.719202 
L 164.299142 -280.262978 
L 165.344583 -282.806753 
L 166.312688 -285.350529 
L 167.161181 -287.894305 
L 167.86162 -290.438081 
L 168.401947 -292.981856 
L 168.786799 -295.525632 
L 169.035824 -298.069408 
L 169.180542 -300.613184 
L 169.260428 -303.156959 
L 169.318865 -305.700735 
L 169.399448 -308.244511 
L 169.54293 -310.788287 
L 169.78483 -313.332062 
L 170.153618 -315.875838 
L 170.669251 -318.419614 
L 171.341963 -320.96339 
L 172.171287 -323.507165 
L 173.145494 -326.050941 
L 174.241753 -328.594717 
L 175.427314 -331.138493 
L 176.661884 -333.682268 
L 177.901105 -336.226044 
L 179.100746 -338.76982 
L 180.220998 -341.313596 
L 181.230144 -343.857371 
L 182.107024 -346.401147 
L 182.841924 -348.944923 
L 183.435905 -351.488699 
L 183.898846 -354.032474 
L 184.246742 -356.57625 
L 185.722008 -356.57625 
L 185.722008 -356.57625 
L 186.069904 -354.032474 
L 186.532845 -351.488699 
L 187.126826 -348.944923 
L 187.861726 -346.401147 
L 188.738606 -343.857371 
L 189.747752 -341.313596 
L 190.868004 -338.76982 
L 192.067645 -336.226044 
L 193.306866 -333.682268 
L 194.541436 -331.138493 
L 195.726997 -328.594717 
L 196.823256 -326.050941 
L 197.797463 -323.507165 
L 198.626787 -320.96339 
L 199.299499 -318.419614 
L 199.815132 -315.875838 
L 200.18392 -313.332062 
L 200.42582 -310.788287 
L 200.569302 -308.244511 
L 200.649885 -305.700735 
L 200.708322 -303.156959 
L 200.788208 -300.613184 
L 200.932926 -298.069408 
L 201.181951 -295.525632 
L 201.566803 -292.981856 
L 202.10713 -290.438081 
L 202.807569 -287.894305 
L 203.656062 -285.350529 
L 204.624167 -282.806753 
L 205.669608 -280.262978 
L 206.740901 -277.719202 
L 207.783457 -275.175426 
L 208.746187 -272.63165 
L 209.587504 -270.087875 
L 210.279671 -267.544099 
L 210.810815 -265.000323 
L 211.18442 -262.456548 
L 211.416625 -259.912772 
L 211.532068 -257.368996 
L 211.559218 -254.82522 
L 211.526083 -252.281445 
L 211.456938 -249.737669 
L 211.370413 -247.193893 
L 211.278903 -244.650117 
L 211.189074 -242.106342 
L 211.103089 -239.562566 
L 211.020169 -237.01879 
L 210.938188 -234.475014 
L 210.855069 -231.931239 
L 210.769846 -229.387463 
L 210.683299 -226.843687 
L 210.598145 -224.299911 
L 210.518779 -221.756136 
L 210.450627 -219.21236 
L 210.399253 -216.668584 
L 210.36938 -214.124808 
L 210.364038 -211.581033 
L 210.38403 -209.037257 
L 210.427814 -206.493481 
L 210.491829 -203.949705 
L 210.571158 -201.40593 
L 210.660364 -198.862154 
L 210.754306 -196.318378 
L 210.848779 -193.774602 
L 210.940925 -191.230827 
L 211.029446 -188.687051 
L 211.1148 -186.143275 
L 211.19953 -183.599499 
L 211.288942 -181.055724 
L 211.392164 -178.511948 
L 211.523485 -175.968172 
L 211.703609 -173.424397 
L 211.960246 -170.880621 
L 212.327306 -168.336845 
L 212.841967 -165.793069 
L 213.539163 -163.249294 
L 214.443523 -160.705518 
L 215.559558 -158.161742 
L 216.861722 -155.617966 
L 218.286631 -153.074191 
L 219.730035 -150.530415 
L 221.05072 -147.986639 
L 222.082415 -145.442863 
L 222.653082 -142.899088 
L 222.60899 -140.355312 
L 221.839363 -137.811536 
L 220.296624 -135.26776 
L 218.007729 -132.723985 
L 215.073753 -130.180209 
L 211.657453 -127.636433 
L 207.961183 -125.092657 
L 204.199642 -122.548882 
L 200.572821 -120.005106 
L 197.244051 -117.46133 
L 194.326448 -114.917554 
L 191.878869 -112.373779 
L 189.910371 -109.830003 
L 188.390658 -107.286227 
L 187.263378 -104.742451 
z
" style="stroke: #3f3f3f; stroke-width: 1.875"/>
    </defs>
    <g clip-path="url(#pca13ffe630)">
     <use xlink:href="#m217cea2839" x="0" y="378.89625" style="fill: #3274a1; stroke: #3f3f3f; stroke-width: 1.875"/>
    </g>
   </g>
   <g id="PolyCollection_2">
    <defs>
     <path id="mb3d370a0d3" d="M 409.534229 -54.17625 
L 406.834521 -54.17625 
L 406.174214 -57.01528 
L 405.320229 -59.85431 
L 404.279747 -62.69334 
L 403.091249 -65.532369 
L 401.828 -68.371399 
L 400.594145 -71.210429 
L 399.512347 -74.049459 
L 398.704403 -76.888489 
L 398.268873 -79.727519 
L 398.26132 -82.566548 
L 398.682606 -85.405578 
L 399.478605 -88.244608 
L 400.551335 -91.083638 
L 401.778146 -93.922668 
L 403.033428 -96.761698 
L 404.20699 -99.600727 
L 405.214811 -102.439757 
L 406.000452 -105.278787 
L 406.528138 -108.117817 
L 406.770592 -110.956847 
L 406.695792 -113.795877 
L 406.257014 -116.634906 
L 405.390044 -119.473936 
L 404.020278 -122.312966 
L 402.080585 -125.151996 
L 399.53804 -127.991026 
L 396.424356 -130.830056 
L 392.861689 -133.669085 
L 389.074127 -136.508115 
L 385.376651 -139.347145 
L 382.138429 -142.186175 
L 379.724919 -145.025205 
L 378.430949 -147.864235 
L 378.421738 -150.703264 
L 379.69817 -153.542294 
L 382.096315 -156.381324 
L 385.321154 -159.220354 
L 389.004326 -162.059384 
L 392.769223 -164.898414 
L 396.285959 -167.737443 
L 399.303343 -170.576473 
L 401.652829 -173.415503 
L 403.227554 -176.254533 
L 403.945739 -179.093563 
L 403.710987 -181.932593 
L 402.382592 -184.771622 
L 399.767429 -187.610652 
L 395.641593 -190.449682 
L 389.804291 -193.288712 
L 382.158277 -196.127742 
L 372.801107 -198.966772 
L 362.102303 -201.805801 
L 350.737209 -204.644831 
L 339.653118 -207.483861 
L 329.958401 -210.322891 
L 322.748331 -213.161921 
L 318.904375 -216.000951 
L 318.917894 -218.83998 
L 322.787253 -221.67901 
L 330.018276 -224.51804 
L 339.727992 -227.35707 
L 350.821654 -230.1961 
L 362.194117 -233.03513 
L 372.904881 -235.874159 
L 382.290346 -238.713189 
L 389.999962 -241.552219 
L 395.965595 -244.391249 
L 400.328181 -247.230279 
L 403.349752 -250.069309 
L 405.33381 -252.908338 
L 406.567188 -255.747368 
L 407.28653 -258.586398 
L 407.665376 -261.425428 
L 407.814649 -264.264458 
L 407.789463 -267.103488 
L 407.597309 -269.942517 
L 407.205532 -272.781547 
L 406.548648 -275.620577 
L 405.537819 -278.459607 
L 404.07532 -281.298637 
L 402.075895 -284.137667 
L 399.494365 -286.976696 
L 396.355428 -289.815726 
L 392.778137 -292.654756 
L 388.985822 -295.493786 
L 385.293577 -298.332816 
L 382.070357 -301.171846 
L 379.680313 -304.010875 
L 378.41566 -306.849905 
L 378.438025 -309.688935 
L 379.744509 -312.527965 
L 382.168306 -315.366995 
L 385.413691 -318.206025 
L 389.115251 -321.045054 
L 392.904996 -323.884084 
L 396.470491 -326.723114 
L 399.591937 -329.562144 
L 402.153891 -332.401174 
L 404.134812 -335.240204 
L 412.233938 -335.240204 
L 412.233938 -335.240204 
L 414.214859 -332.401174 
L 416.776813 -329.562144 
L 419.898259 -326.723114 
L 423.463754 -323.884084 
L 427.253499 -321.045054 
L 430.955059 -318.206025 
L 434.200444 -315.366995 
L 436.624241 -312.527965 
L 437.930725 -309.688935 
L 437.95309 -306.849905 
L 436.688437 -304.010875 
L 434.298393 -301.171846 
L 431.075173 -298.332816 
L 427.382928 -295.493786 
L 423.590613 -292.654756 
L 420.013322 -289.815726 
L 416.874385 -286.976696 
L 414.292855 -284.137667 
L 412.29343 -281.298637 
L 410.830931 -278.459607 
L 409.820102 -275.620577 
L 409.163218 -272.781547 
L 408.771441 -269.942517 
L 408.579287 -267.103488 
L 408.554101 -264.264458 
L 408.703374 -261.425428 
L 409.08222 -258.586398 
L 409.801562 -255.747368 
L 411.03494 -252.908338 
L 413.018998 -250.069309 
L 416.040569 -247.230279 
L 420.403155 -244.391249 
L 426.368788 -241.552219 
L 434.078404 -238.713189 
L 443.463869 -235.874159 
L 454.174633 -233.03513 
L 465.547096 -230.1961 
L 476.640758 -227.35707 
L 486.350474 -224.51804 
L 493.581497 -221.67901 
L 497.450856 -218.83998 
L 497.464375 -216.000951 
L 493.620419 -213.161921 
L 486.410349 -210.322891 
L 476.715632 -207.483861 
L 465.631541 -204.644831 
L 454.266447 -201.805801 
L 443.567643 -198.966772 
L 434.210473 -196.127742 
L 426.564459 -193.288712 
L 420.727157 -190.449682 
L 416.601321 -187.610652 
L 413.986158 -184.771622 
L 412.657763 -181.932593 
L 412.423011 -179.093563 
L 413.141196 -176.254533 
L 414.715921 -173.415503 
L 417.065407 -170.576473 
L 420.082791 -167.737443 
L 423.599527 -164.898414 
L 427.364424 -162.059384 
L 431.047596 -159.220354 
L 434.272435 -156.381324 
L 436.67058 -153.542294 
L 437.947012 -150.703264 
L 437.937801 -147.864235 
L 436.643831 -145.025205 
L 434.230321 -142.186175 
L 430.992099 -139.347145 
L 427.294623 -136.508115 
L 423.507061 -133.669085 
L 419.944394 -130.830056 
L 416.83071 -127.991026 
L 414.288165 -125.151996 
L 412.348472 -122.312966 
L 410.978706 -119.473936 
L 410.111736 -116.634906 
L 409.672958 -113.795877 
L 409.598158 -110.956847 
L 409.840612 -108.117817 
L 410.368298 -105.278787 
L 411.153939 -102.439757 
L 412.16176 -99.600727 
L 413.335322 -96.761698 
L 414.590604 -93.922668 
L 415.817415 -91.083638 
L 416.890145 -88.244608 
L 417.686144 -85.405578 
L 418.10743 -82.566548 
L 418.099877 -79.727519 
L 417.664347 -76.888489 
L 416.856403 -74.049459 
L 415.774605 -71.210429 
L 414.54075 -68.371399 
L 413.277501 -65.532369 
L 412.089003 -62.69334 
L 411.048521 -59.85431 
L 410.194536 -57.01528 
L 409.534229 -54.17625 
z
" style="stroke: #3f3f3f; stroke-width: 1.875"/>
    </defs>
    <g clip-path="url(#pca13ffe630)">
     <use xlink:href="#mb3d370a0d3" x="0" y="378.89625" style="fill: #3274a1; stroke: #3f3f3f; stroke-width: 1.875"/>
    </g>
   </g>
   <g id="PolyCollection_3">
    <defs>
     <path id="ma5d4c5a32f" d="M 635.450046 -100.434627 
L 627.318704 -100.434627 
L 625.76227 -102.711788 
L 623.824969 -104.988948 
L 621.500042 -107.266109 
L 618.814185 -109.543269 
L 615.833524 -111.82043 
L 612.664972 -114.09759 
L 609.451533 -116.37475 
L 606.361157 -118.651911 
L 603.570024 -120.929071 
L 601.242527 -123.206232 
L 599.51119 -125.483392 
L 598.460118 -127.760553 
L 598.11508 -130.037713 
L 598.442046 -132.314874 
L 599.354293 -134.592034 
L 600.726409 -136.869194 
L 602.412251 -139.146355 
L 604.263371 -141.423515 
L 606.144783 -143.700676 
L 607.945951 -145.977836 
L 609.586265 -148.254997 
L 611.015513 -150.532157 
L 612.2107 -152.809318 
L 613.170819 -155.086478 
L 613.910962 -157.363638 
L 614.456594 -159.640799 
L 614.838338 -161.917959 
L 615.087247 -164.19512 
L 615.230473 -166.47228 
L 615.287398 -168.749441 
L 615.26646 -171.026601 
L 615.163061 -173.303762 
L 614.958843 -175.580922 
L 614.622519 -177.858083 
L 614.1122 -180.135243 
L 613.379064 -182.412403 
L 612.372239 -184.689564 
L 611.044845 -186.966724 
L 609.361212 -189.243885 
L 607.305102 -191.521045 
L 604.888374 -193.798206 
L 602.158887 -196.075366 
L 599.205823 -198.352527 
L 596.16036 -200.629687 
L 593.18991 -202.906847 
L 590.485161 -205.184008 
L 588.240731 -207.461168 
L 586.631962 -209.738329 
L 585.791736 -212.015489 
L 585.791736 -214.29265 
L 586.631962 -216.56981 
L 588.240731 -218.846971 
L 590.485161 -221.124131 
L 593.18991 -223.401292 
L 596.16036 -225.678452 
L 599.205823 -227.955612 
L 602.158887 -230.232773 
L 604.888374 -232.509933 
L 607.305102 -234.787094 
L 609.361212 -237.064254 
L 611.044845 -239.341415 
L 612.372239 -241.618575 
L 613.379064 -243.895736 
L 614.1122 -246.172896 
L 614.622519 -248.450056 
L 614.958843 -250.727217 
L 615.163061 -253.004377 
L 615.26646 -255.281538 
L 615.287398 -257.558698 
L 615.230473 -259.835859 
L 615.087247 -262.113019 
L 614.838338 -264.39018 
L 614.456594 -266.66734 
L 613.910962 -268.944501 
L 613.170819 -271.221661 
L 612.2107 -273.498821 
L 611.015513 -275.775982 
L 609.586265 -278.053142 
L 607.945951 -280.330303 
L 606.144783 -282.607463 
L 604.263371 -284.884624 
L 602.412251 -287.161784 
L 600.726409 -289.438945 
L 599.354293 -291.716105 
L 598.442046 -293.993265 
L 598.11508 -296.270426 
L 598.460118 -298.547586 
L 599.51119 -300.824747 
L 601.242527 -303.101907 
L 603.570024 -305.379068 
L 606.361157 -307.656228 
L 609.451533 -309.933389 
L 612.664972 -312.210549 
L 615.833524 -314.48771 
L 618.814185 -316.76487 
L 621.500042 -319.04203 
L 623.824969 -321.319191 
L 625.76227 -323.596351 
L 627.318704 -325.873512 
L 635.450046 -325.873512 
L 635.450046 -325.873512 
L 637.00648 -323.596351 
L 638.943781 -321.319191 
L 641.268708 -319.04203 
L 643.954565 -316.76487 
L 646.935226 -314.48771 
L 650.103778 -312.210549 
L 653.317217 -309.933389 
L 656.407593 -307.656228 
L 659.198726 -305.379068 
L 661.526223 -303.101907 
L 663.25756 -300.824747 
L 664.308632 -298.547586 
L 664.65367 -296.270426 
L 664.326704 -293.993265 
L 663.414457 -291.716105 
L 662.042341 -289.438945 
L 660.356499 -287.161784 
L 658.505379 -284.884624 
L 656.623967 -282.607463 
L 654.822799 -280.330303 
L 653.182485 -278.053142 
L 651.753237 -275.775982 
L 650.55805 -273.498821 
L 649.597931 -271.221661 
L 648.857788 -268.944501 
L 648.312156 -266.66734 
L 647.930412 -264.39018 
L 647.681503 -262.113019 
L 647.538277 -259.835859 
L 647.481352 -257.558698 
L 647.50229 -255.281538 
L 647.605689 -253.004377 
L 647.809907 -250.727217 
L 648.146231 -248.450056 
L 648.65655 -246.172896 
L 649.389686 -243.895736 
L 650.396511 -241.618575 
L 651.723905 -239.341415 
L 653.407538 -237.064254 
L 655.463648 -234.787094 
L 657.880376 -232.509933 
L 660.609863 -230.232773 
L 663.562927 -227.955612 
L 666.60839 -225.678452 
L 669.57884 -223.401292 
L 672.283589 -221.124131 
L 674.528019 -218.846971 
L 676.136788 -216.56981 
L 676.977014 -214.29265 
L 676.977014 -212.015489 
L 676.136788 -209.738329 
L 674.528019 -207.461168 
L 672.283589 -205.184008 
L 669.57884 -202.906847 
L 666.60839 -200.629687 
L 663.562927 -198.352527 
L 660.609863 -196.075366 
L 657.880376 -193.798206 
L 655.463648 -191.521045 
L 653.407538 -189.243885 
L 651.723905 -186.966724 
L 650.396511 -184.689564 
L 649.389686 -182.412403 
L 648.65655 -180.135243 
L 648.146231 -177.858083 
L 647.809907 -175.580922 
L 647.605689 -173.303762 
L 647.50229 -171.026601 
L 647.481352 -168.749441 
L 647.538277 -166.47228 
L 647.681503 -164.19512 
L 647.930412 -161.917959 
L 648.312156 -159.640799 
L 648.857788 -157.363638 
L 649.597931 -155.086478 
L 650.55805 -152.809318 
L 651.753237 -150.532157 
L 653.182485 -148.254997 
L 654.822799 -145.977836 
L 656.623967 -143.700676 
L 658.505379 -141.423515 
L 660.356499 -139.146355 
L 662.042341 -136.869194 
L 663.414457 -134.592034 
L 664.326704 -132.314874 
L 664.65367 -130.037713 
L 664.308632 -127.760553 
L 663.25756 -125.483392 
L 661.526223 -123.206232 
L 659.198726 -120.929071 
L 656.407593 -118.651911 
L 653.317217 -116.37475 
L 650.103778 -114.09759 
L 646.935226 -111.82043 
L 643.954565 -109.543269 
L 641.268708 -107.266109 
L 638.943781 -104.988948 
L 637.00648 -102.711788 
L 635.450046 -100.434627 
z
" style="stroke: #3f3f3f; stroke-width: 1.875"/>
    </defs>
    <g clip-path="url(#pca13ffe630)">
     <use xlink:href="#ma5d4c5a32f" x="0" y="378.89625" style="fill: #3274a1; stroke: #3f3f3f; stroke-width: 1.875"/>
    </g>
   </g>
   <g id="matplotlib.axis_1">
    <g id="xtick_1">
     <g id="line2d_1">
      <defs>
       <path id="m22c5a16230" d="M 0 0 
L 0 9 
" style="stroke: #000000; stroke-width: 1.875"/>
      </defs>
      <g>
       <use xlink:href="#m22c5a16230" x="184.984375" y="339.84" style="stroke: #000000; stroke-width: 1.875"/>
      </g>
     </g>
     <g id="text_1">
      <!-- Time -->
      <g transform="translate(160.517188 367.536875) scale(0.2 -0.2)">
       <defs>
        <path id="DejaVuSans-54" d="M -19 4666 
L 3928 4666 
L 3928 4134 
L 2272 4134 
L 2272 0 
L 1638 0 
L 1638 4134 
L -19 4134 
L -19 4666 
z
" transform="scale(0.015625)"/>
        <path id="DejaVuSans-69" d="M 603 3500 
L 1178 3500 
L 1178 0 
L 603 0 
L 603 3500 
z
M 603 4863 
L 1178 4863 
L 1178 4134 
L 603 4134 
L 603 4863 
z
" transform="scale(0.015625)"/>
        <path id="DejaVuSans-6d" d="M 3328 2828 
Q 3544 3216 3844 3400 
Q 4144 3584 4550 3584 
Q 5097 3584 5394 3201 
Q 5691 2819 5691 2113 
L 5691 0 
L 5113 0 
L 5113 2094 
Q 5113 2597 4934 2840 
Q 4756 3084 4391 3084 
Q 3944 3084 3684 2787 
Q 3425 2491 3425 1978 
L 3425 0 
L 2847 0 
L 2847 2094 
Q 2847 2600 2669 2842 
Q 2491 3084 2119 3084 
Q 1678 3084 1418 2786 
Q 1159 2488 1159 1978 
L 1159 0 
L 581 0 
L 581 3500 
L 1159 3500 
L 1159 2956 
Q 1356 3278 1631 3431 
Q 1906 3584 2284 3584 
Q 2666 3584 2933 3390 
Q 3200 3197 3328 2828 
z
" transform="scale(0.015625)"/>
        <path id="DejaVuSans-65" d="M 3597 1894 
L 3597 1613 
L 953 1613 
Q 991 1019 1311 708 
Q 1631 397 2203 397 
Q 2534 397 2845 478 
Q 3156 559 3463 722 
L 3463 178 
Q 3153 47 2828 -22 
Q 2503 -91 2169 -91 
Q 1331 -91 842 396 
Q 353 884 353 1716 
Q 353 2575 817 3079 
Q 1281 3584 2069 3584 
Q 2775 3584 3186 3129 
Q 3597 2675 3597 1894 
z
M 3022 2063 
Q 3016 2534 2758 2815 
Q 2500 3097 2075 3097 
Q 1594 3097 1305 2825 
Q 1016 2553 972 2059 
L 3022 2063 
z
" transform="scale(0.015625)"/>
       </defs>
       <use xlink:href="#DejaVuSans-54"/>
       <use xlink:href="#DejaVuSans-69" x="57.958984"/>
       <use xlink:href="#DejaVuSans-6d" x="85.742188"/>
       <use xlink:href="#DejaVuSans-65" x="183.154297"/>
      </g>
     </g>
    </g>
    <g id="xtick_2">
     <g id="line2d_2">
      <g>
       <use xlink:href="#m22c5a16230" x="408.184375" y="339.84" style="stroke: #000000; stroke-width: 1.875"/>
      </g>
     </g>
     <g id="text_2">
      <!-- T -->
      <g transform="translate(402.076562 367.536875) scale(0.2 -0.2)">
       <use xlink:href="#DejaVuSans-54"/>
      </g>
     </g>
    </g>
    <g id="xtick_3">
     <g id="line2d_3">
      <g>
       <use xlink:href="#m22c5a16230" x="631.384375" y="339.84" style="stroke: #000000; stroke-width: 1.875"/>
      </g>
     </g>
     <g id="text_3">
      <!-- SOC -->
      <g transform="translate(610.18125 367.536875) scale(0.2 -0.2)">
       <defs>
        <path id="DejaVuSans-53" d="M 3425 4513 
L 3425 3897 
Q 3066 4069 2747 4153 
Q 2428 4238 2131 4238 
Q 1616 4238 1336 4038 
Q 1056 3838 1056 3469 
Q 1056 3159 1242 3001 
Q 1428 2844 1947 2747 
L 2328 2669 
Q 3034 2534 3370 2195 
Q 3706 1856 3706 1288 
Q 3706 609 3251 259 
Q 2797 -91 1919 -91 
Q 1588 -91 1214 -16 
Q 841 59 441 206 
L 441 856 
Q 825 641 1194 531 
Q 1563 422 1919 422 
Q 2459 422 2753 634 
Q 3047 847 3047 1241 
Q 3047 1584 2836 1778 
Q 2625 1972 2144 2069 
L 1759 2144 
Q 1053 2284 737 2584 
Q 422 2884 422 3419 
Q 422 4038 858 4394 
Q 1294 4750 2059 4750 
Q 2388 4750 2728 4690 
Q 3069 4631 3425 4513 
z
" transform="scale(0.015625)"/>
        <path id="DejaVuSans-4f" d="M 2522 4238 
Q 1834 4238 1429 3725 
Q 1025 3213 1025 2328 
Q 1025 1447 1429 934 
Q 1834 422 2522 422 
Q 3209 422 3611 934 
Q 4013 1447 4013 2328 
Q 4013 3213 3611 3725 
Q 3209 4238 2522 4238 
z
M 2522 4750 
Q 3503 4750 4090 4092 
Q 4678 3434 4678 2328 
Q 4678 1225 4090 567 
Q 3503 -91 2522 -91 
Q 1538 -91 948 565 
Q 359 1222 359 2328 
Q 359 3434 948 4092 
Q 1538 4750 2522 4750 
z
" transform="scale(0.015625)"/>
        <path id="DejaVuSans-43" d="M 4122 4306 
L 4122 3641 
Q 3803 3938 3442 4084 
Q 3081 4231 2675 4231 
Q 1875 4231 1450 3742 
Q 1025 3253 1025 2328 
Q 1025 1406 1450 917 
Q 1875 428 2675 428 
Q 3081 428 3442 575 
Q 3803 722 4122 1019 
L 4122 359 
Q 3791 134 3420 21 
Q 3050 -91 2638 -91 
Q 1578 -91 968 557 
Q 359 1206 359 2328 
Q 359 3453 968 4101 
Q 1578 4750 2638 4750 
Q 3056 4750 3426 4639 
Q 3797 4528 4122 4306 
z
" transform="scale(0.015625)"/>
       </defs>
       <use xlink:href="#DejaVuSans-53"/>
       <use xlink:href="#DejaVuSans-4f" x="63.476562"/>
       <use xlink:href="#DejaVuSans-43" x="142.1875"/>
      </g>
     </g>
    </g>
   </g>
   <g id="matplotlib.axis_2">
    <g id="ytick_1">
     <g id="line2d_4">
      <defs>
       <path id="m6f3acbeea7" d="M 0 0 
L -9 0 
" style="stroke: #000000; stroke-width: 1.875"/>
      </defs>
      <g>
       <use xlink:href="#m6f3acbeea7" x="73.384375" y="285.067529" style="stroke: #000000; stroke-width: 1.875"/>
      </g>
     </g>
     <g id="text_4">
      <!-- −2 -->
      <g transform="translate(31.4 292.665967) scale(0.2 -0.2)">
       <defs>
        <path id="DejaVuSans-2212" d="M 678 2272 
L 4684 2272 
L 4684 1741 
L 678 1741 
L 678 2272 
z
" transform="scale(0.015625)"/>
        <path id="DejaVuSans-32" d="M 1228 531 
L 3431 531 
L 3431 0 
L 469 0 
L 469 531 
Q 828 903 1448 1529 
Q 2069 2156 2228 2338 
Q 2531 2678 2651 2914 
Q 2772 3150 2772 3378 
Q 2772 3750 2511 3984 
Q 2250 4219 1831 4219 
Q 1534 4219 1204 4116 
Q 875 4013 500 3803 
L 500 4441 
Q 881 4594 1212 4672 
Q 1544 4750 1819 4750 
Q 2544 4750 2975 4387 
Q 3406 4025 3406 3419 
Q 3406 3131 3298 2873 
Q 3191 2616 2906 2266 
Q 2828 2175 2409 1742 
Q 1991 1309 1228 531 
z
" transform="scale(0.015625)"/>
       </defs>
       <use xlink:href="#DejaVuSans-2212"/>
       <use xlink:href="#DejaVuSans-32" x="83.789062"/>
      </g>
     </g>
    </g>
    <g id="ytick_2">
     <g id="line2d_5">
      <g>
       <use xlink:href="#m6f3acbeea7" x="73.384375" y="225.404855" style="stroke: #000000; stroke-width: 1.875"/>
      </g>
     </g>
     <g id="text_5">
      <!-- −1 -->
      <g transform="translate(31.4 233.003292) scale(0.2 -0.2)">
       <defs>
        <path id="DejaVuSans-31" d="M 794 531 
L 1825 531 
L 1825 4091 
L 703 3866 
L 703 4441 
L 1819 4666 
L 2450 4666 
L 2450 531 
L 3481 531 
L 3481 0 
L 794 0 
L 794 531 
z
" transform="scale(0.015625)"/>
       </defs>
       <use xlink:href="#DejaVuSans-2212"/>
       <use xlink:href="#DejaVuSans-31" x="83.789062"/>
      </g>
     </g>
    </g>
    <g id="ytick_3">
     <g id="line2d_6">
      <g>
       <use xlink:href="#m6f3acbeea7" x="73.384375" y="165.74218" style="stroke: #000000; stroke-width: 1.875"/>
      </g>
     </g>
     <g id="text_6">
      <!-- 0 -->
      <g transform="translate(48.159375 173.340618) scale(0.2 -0.2)">
       <defs>
        <path id="DejaVuSans-30" d="M 2034 4250 
Q 1547 4250 1301 3770 
Q 1056 3291 1056 2328 
Q 1056 1369 1301 889 
Q 1547 409 2034 409 
Q 2525 409 2770 889 
Q 3016 1369 3016 2328 
Q 3016 3291 2770 3770 
Q 2525 4250 2034 4250 
z
M 2034 4750 
Q 2819 4750 3233 4129 
Q 3647 3509 3647 2328 
Q 3647 1150 3233 529 
Q 2819 -91 2034 -91 
Q 1250 -91 836 529 
Q 422 1150 422 2328 
Q 422 3509 836 4129 
Q 1250 4750 2034 4750 
z
" transform="scale(0.015625)"/>
       </defs>
       <use xlink:href="#DejaVuSans-30"/>
      </g>
     </g>
    </g>
    <g id="ytick_4">
     <g id="line2d_7">
      <g>
       <use xlink:href="#m6f3acbeea7" x="73.384375" y="106.079506" style="stroke: #000000; stroke-width: 1.875"/>
      </g>
     </g>
     <g id="text_7">
      <!-- 1 -->
      <g transform="translate(48.159375 113.677944) scale(0.2 -0.2)">
       <use xlink:href="#DejaVuSans-31"/>
      </g>
     </g>
    </g>
    <g id="ytick_5">
     <g id="line2d_8">
      <g>
       <use xlink:href="#m6f3acbeea7" x="73.384375" y="46.416832" style="stroke: #000000; stroke-width: 1.875"/>
      </g>
     </g>
     <g id="text_8">
      <!-- 2 -->
      <g transform="translate(48.159375 54.015269) scale(0.2 -0.2)">
       <use xlink:href="#DejaVuSans-32"/>
      </g>
     </g>
    </g>
    <g id="text_9">
     <!-- $Q_{loss, cal}$ (%) -->
     <g transform="translate(22.4 229.42) rotate(-90) scale(0.2 -0.2)">
      <defs>
       <path id="DejaVuSans-Oblique-51" d="M 2309 -84 
Q 2275 -88 2237 -89 
Q 2200 -91 2125 -91 
Q 1250 -91 756 411 
Q 263 913 263 1797 
Q 263 2319 452 2844 
Q 641 3369 978 3788 
Q 1369 4269 1858 4509 
Q 2347 4750 2938 4750 
Q 3794 4750 4287 4245 
Q 4781 3741 4781 2869 
Q 4781 1928 4265 1147 
Q 3750 366 2919 44 
L 3553 -825 
L 2847 -825 
L 2309 -84 
z
M 2919 4238 
Q 2400 4238 2003 3986 
Q 1606 3734 1313 3219 
Q 1125 2891 1026 2522 
Q 928 2153 928 1778 
Q 928 1128 1239 775 
Q 1550 422 2119 422 
Q 2631 422 3032 676 
Q 3434 931 3719 1434 
Q 3909 1772 4009 2142 
Q 4109 2513 4109 2881 
Q 4109 3528 3796 3883 
Q 3484 4238 2919 4238 
z
" transform="scale(0.015625)"/>
       <path id="DejaVuSans-Oblique-6c" d="M 1172 4863 
L 1747 4863 
L 800 0 
L 225 0 
L 1172 4863 
z
" transform="scale(0.015625)"/>
       <path id="DejaVuSans-Oblique-6f" d="M 1625 -91 
Q 1009 -91 651 289 
Q 294 669 294 1325 
Q 294 1706 417 2101 
Q 541 2497 738 2766 
Q 1047 3184 1428 3384 
Q 1809 3584 2291 3584 
Q 2888 3584 3255 3212 
Q 3622 2841 3622 2241 
Q 3622 1825 3500 1412 
Q 3378 1000 3181 728 
Q 2875 309 2494 109 
Q 2113 -91 1625 -91 
z
M 891 1344 
Q 891 869 1089 633 
Q 1288 397 1691 397 
Q 2269 397 2648 901 
Q 3028 1406 3028 2181 
Q 3028 2634 2825 2865 
Q 2622 3097 2228 3097 
Q 1903 3097 1650 2945 
Q 1397 2794 1197 2484 
Q 1050 2253 970 1956 
Q 891 1659 891 1344 
z
" transform="scale(0.015625)"/>
       <path id="DejaVuSans-Oblique-73" d="M 3200 3397 
L 3091 2853 
Q 2863 2978 2609 3040 
Q 2356 3103 2088 3103 
Q 1634 3103 1373 2948 
Q 1113 2794 1113 2528 
Q 1113 2219 1719 2053 
Q 1766 2041 1788 2034 
L 1972 1978 
Q 2547 1819 2739 1644 
Q 2931 1469 2931 1166 
Q 2931 609 2489 259 
Q 2047 -91 1331 -91 
Q 1053 -91 747 -37 
Q 441 16 72 128 
L 184 722 
Q 500 559 806 475 
Q 1113 391 1394 391 
Q 1816 391 2080 572 
Q 2344 753 2344 1031 
Q 2344 1331 1650 1516 
L 1591 1531 
L 1394 1581 
Q 956 1697 753 1886 
Q 550 2075 550 2369 
Q 550 2928 970 3256 
Q 1391 3584 2113 3584 
Q 2397 3584 2667 3537 
Q 2938 3491 3200 3397 
z
" transform="scale(0.015625)"/>
       <path id="DejaVuSans-2c" d="M 750 794 
L 1409 794 
L 1409 256 
L 897 -744 
L 494 -744 
L 750 256 
L 750 794 
z
" transform="scale(0.015625)"/>
       <path id="DejaVuSans-Oblique-63" d="M 3431 3366 
L 3316 2797 
Q 3109 2947 2876 3022 
Q 2644 3097 2394 3097 
Q 2119 3097 1870 3000 
Q 1622 2903 1453 2725 
Q 1184 2453 1037 2087 
Q 891 1722 891 1331 
Q 891 859 1127 628 
Q 1363 397 1844 397 
Q 2081 397 2348 469 
Q 2616 541 2906 684 
L 2797 116 
Q 2547 13 2283 -39 
Q 2019 -91 1741 -91 
Q 1044 -91 669 257 
Q 294 606 294 1253 
Q 294 1797 489 2255 
Q 684 2713 1069 3078 
Q 1331 3328 1684 3456 
Q 2038 3584 2456 3584 
Q 2700 3584 2940 3529 
Q 3181 3475 3431 3366 
z
" transform="scale(0.015625)"/>
       <path id="DejaVuSans-Oblique-61" d="M 3438 1997 
L 3047 0 
L 2472 0 
L 2578 531 
Q 2325 219 2001 64 
Q 1678 -91 1281 -91 
Q 834 -91 548 182 
Q 263 456 263 884 
Q 263 1497 752 1853 
Q 1241 2209 2100 2209 
L 2900 2209 
L 2931 2363 
Q 2938 2388 2941 2417 
Q 2944 2447 2944 2509 
Q 2944 2788 2717 2942 
Q 2491 3097 2081 3097 
Q 1800 3097 1504 3025 
Q 1209 2953 897 2809 
L 997 3341 
Q 1322 3463 1633 3523 
Q 1944 3584 2234 3584 
Q 2853 3584 3176 3315 
Q 3500 3047 3500 2534 
Q 3500 2431 3484 2292 
Q 3469 2153 3438 1997 
z
M 2816 1759 
L 2241 1759 
Q 1534 1759 1195 1570 
Q 856 1381 856 984 
Q 856 709 1029 553 
Q 1203 397 1509 397 
Q 1978 397 2328 733 
Q 2678 1069 2791 1631 
L 2816 1759 
z
" transform="scale(0.015625)"/>
       <path id="DejaVuSans-20" transform="scale(0.015625)"/>
       <path id="DejaVuSans-28" d="M 1984 4856 
Q 1566 4138 1362 3434 
Q 1159 2731 1159 2009 
Q 1159 1288 1364 580 
Q 1569 -128 1984 -844 
L 1484 -844 
Q 1016 -109 783 600 
Q 550 1309 550 2009 
Q 550 2706 781 3412 
Q 1013 4119 1484 4856 
L 1984 4856 
z
" transform="scale(0.015625)"/>
       <path id="DejaVuSans-25" d="M 4653 2053 
Q 4381 2053 4226 1822 
Q 4072 1591 4072 1178 
Q 4072 772 4226 539 
Q 4381 306 4653 306 
Q 4919 306 5073 539 
Q 5228 772 5228 1178 
Q 5228 1588 5073 1820 
Q 4919 2053 4653 2053 
z
M 4653 2450 
Q 5147 2450 5437 2106 
Q 5728 1763 5728 1178 
Q 5728 594 5436 251 
Q 5144 -91 4653 -91 
Q 4153 -91 3862 251 
Q 3572 594 3572 1178 
Q 3572 1766 3864 2108 
Q 4156 2450 4653 2450 
z
M 1428 4353 
Q 1159 4353 1004 4120 
Q 850 3888 850 3481 
Q 850 3069 1003 2837 
Q 1156 2606 1428 2606 
Q 1700 2606 1854 2837 
Q 2009 3069 2009 3481 
Q 2009 3884 1853 4118 
Q 1697 4353 1428 4353 
z
M 4250 4750 
L 4750 4750 
L 1831 -91 
L 1331 -91 
L 4250 4750 
z
M 1428 4750 
Q 1922 4750 2215 4408 
Q 2509 4066 2509 3481 
Q 2509 2891 2217 2550 
Q 1925 2209 1428 2209 
Q 931 2209 642 2551 
Q 353 2894 353 3481 
Q 353 4063 643 4406 
Q 934 4750 1428 4750 
z
" transform="scale(0.015625)"/>
       <path id="DejaVuSans-29" d="M 513 4856 
L 1013 4856 
Q 1481 4119 1714 3412 
Q 1947 2706 1947 2009 
Q 1947 1309 1714 600 
Q 1481 -109 1013 -844 
L 513 -844 
Q 928 -128 1133 580 
Q 1338 1288 1338 2009 
Q 1338 2731 1133 3434 
Q 928 4138 513 4856 
z
" transform="scale(0.015625)"/>
      </defs>
      <use xlink:href="#DejaVuSans-Oblique-51" transform="translate(0 0.125)"/>
      <use xlink:href="#DejaVuSans-Oblique-6c" transform="translate(78.710938 -16.28125) scale(0.7)"/>
      <use xlink:href="#DejaVuSans-Oblique-6f" transform="translate(98.15918 -16.28125) scale(0.7)"/>
      <use xlink:href="#DejaVuSans-Oblique-73" transform="translate(140.986328 -16.28125) scale(0.7)"/>
      <use xlink:href="#DejaVuSans-Oblique-73" transform="translate(177.456055 -16.28125) scale(0.7)"/>
      <use xlink:href="#DejaVuSans-2c" transform="translate(213.925781 -16.28125) scale(0.7)"/>
      <use xlink:href="#DejaVuSans-Oblique-63" transform="translate(249.814453 -16.28125) scale(0.7)"/>
      <use xlink:href="#DejaVuSans-Oblique-61" transform="translate(288.300781 -16.28125) scale(0.7)"/>
      <use xlink:href="#DejaVuSans-Oblique-6c" transform="translate(331.196289 -16.28125) scale(0.7)"/>
      <use xlink:href="#DejaVuSans-20" transform="translate(353.378906 0.125)"/>
      <use xlink:href="#DejaVuSans-28" transform="translate(385.166016 0.125)"/>
      <use xlink:href="#DejaVuSans-25" transform="translate(424.179688 0.125)"/>
      <use xlink:href="#DejaVuSans-29" transform="translate(519.199219 0.125)"/>
     </g>
    </g>
   </g>
   <g id="line2d_9">
    <path d="M 184.984375 247.1347 
L 184.984375 49.339099 
" clip-path="url(#pca13ffe630)" style="fill: none; stroke: #3f3f3f; stroke-width: 2.8125; stroke-linecap: square"/>
   </g>
   <g id="line2d_10">
    <path d="M 184.984375 223.117261 
L 184.984375 115.658965 
" clip-path="url(#pca13ffe630)" style="fill: none; stroke: #3f3f3f; stroke-width: 8.4375; stroke-linecap: square"/>
   </g>
   <g id="line2d_11">
    <path d="M 184.984375 169.8444 
" clip-path="url(#pca13ffe630)" style="fill: none; stroke: #3f3f3f; stroke-width: 2.25; stroke-linecap: square"/>
    <defs>
     <path id="mb07069b19e" d="M 3.515625 0 
L -3.515625 -0 
" style="stroke: #ffffff; stroke-width: 1.6875"/>
    </defs>
    <g clip-path="url(#pca13ffe630)">
     <use xlink:href="#mb07069b19e" x="184.984375" y="169.8444" style="fill: #ffffff; stroke: #ffffff; stroke-width: 1.6875"/>
    </g>
   </g>
   <g id="line2d_12">
    <path d="M 408.184375 178.512379 
L 408.184375 161.485448 
" clip-path="url(#pca13ffe630)" style="fill: none; stroke: #3f3f3f; stroke-width: 2.8125; stroke-linecap: square"/>
   </g>
   <g id="line2d_13">
    <path d="M 408.184375 178.512379 
L 408.184375 161.485448 
" clip-path="url(#pca13ffe630)" style="fill: none; stroke: #3f3f3f; stroke-width: 8.4375; stroke-linecap: square"/>
   </g>
   <g id="line2d_14">
    <path d="M 408.184375 161.485448 
" clip-path="url(#pca13ffe630)" style="fill: none; stroke: #3f3f3f; stroke-width: 2.25; stroke-linecap: square"/>
    <g clip-path="url(#pca13ffe630)">
     <use xlink:href="#mb07069b19e" x="408.184375" y="161.485448" style="fill: #ffffff; stroke: #ffffff; stroke-width: 1.6875"/>
    </g>
   </g>
   <g id="line2d_15">
    <path d="M 631.384375 251.442524 
L 631.384375 80.041837 
" clip-path="url(#pca13ffe630)" style="fill: none; stroke: #3f3f3f; stroke-width: 2.8125; stroke-linecap: square"/>
   </g>
   <g id="line2d_16">
    <path d="M 631.384375 213.948624 
L 631.384375 117.535737 
" clip-path="url(#pca13ffe630)" style="fill: none; stroke: #3f3f3f; stroke-width: 8.4375; stroke-linecap: square"/>
   </g>
   <g id="line2d_17">
    <path d="M 631.384375 165.74218 
" clip-path="url(#pca13ffe630)" style="fill: none; stroke: #3f3f3f; stroke-width: 2.25; stroke-linecap: square"/>
    <g clip-path="url(#pca13ffe630)">
     <use xlink:href="#mb07069b19e" x="631.384375" y="165.74218" style="fill: #ffffff; stroke: #ffffff; stroke-width: 1.6875"/>
    </g>
   </g>
   <g id="patch_3">
    <path d="M 73.384375 339.84 
L 73.384375 7.2 
" style="fill: none; stroke: #000000; stroke-width: 1.875; stroke-linejoin: miter; stroke-linecap: square"/>
   </g>
   <g id="patch_4">
    <path d="M 742.984375 339.84 
L 742.984375 7.2 
" style="fill: none; stroke: #000000; stroke-width: 1.875; stroke-linejoin: miter; stroke-linecap: square"/>
   </g>
   <g id="patch_5">
    <path d="M 73.384375 339.84 
L 742.984375 339.84 
" style="fill: none; stroke: #000000; stroke-width: 1.875; stroke-linejoin: miter; stroke-linecap: square"/>
   </g>
   <g id="patch_6">
    <path d="M 73.384375 7.2 
L 742.984375 7.2 
" style="fill: none; stroke: #000000; stroke-width: 1.875; stroke-linejoin: miter; stroke-linecap: square"/>
   </g>
  </g>
 </g>
 <defs>
  <clipPath id="pca13ffe630">
   <rect x="73.384375" y="7.2" width="669.6" height="332.64"/>
  </clipPath>
 </defs>
</svg>
