<?xml version="1.0" encoding="utf-8" standalone="no"?>
<!DOCTYPE svg PUBLIC "-//W3C//DTD SVG 1.1//EN"
  "http://www.w3.org/Graphics/SVG/1.1/DTD/svg11.dtd">
<svg xmlns:xlink="http://www.w3.org/1999/xlink" width="751.384375pt" height="378.89625pt" viewBox="0 0 751.384375 378.89625" xmlns="http://www.w3.org/2000/svg" version="1.1">
 <metadata>
  <rdf:RDF xmlns:dc="http://purl.org/dc/elements/1.1/" xmlns:cc="http://creativecommons.org/ns#" xmlns:rdf="http://www.w3.org/1999/02/22-rdf-syntax-ns#">
   <cc:Work>
    <dc:type rdf:resource="http://purl.org/dc/dcmitype/StillImage"/>
    <dc:date>2024-08-08T13:23:55.639841</dc:date>
    <dc:format>image/svg+xml</dc:format>
    <dc:creator>
     <cc:Agent>
      <dc:title>Matplotlib v3.8.2, https://matplotlib.org/</dc:title>
     </cc:Agent>
    </dc:creator>
   </cc:Work>
  </rdf:RDF>
 </metadata>
 <defs>
  <style type="text/css">*{stroke-linejoin: round; stroke-linecap: butt}</style>
 </defs>
 <g id="figure_1">
  <g id="patch_1">
   <path d="M 0 378.89625 
L 751.384375 378.89625 
L 751.384375 0 
L 0 0 
z
" style="fill: #ffffff"/>
  </g>
  <g id="axes_1">
   <g id="patch_2">
    <path d="M 74.584375 339.84 
L 744.184375 339.84 
L 744.184375 7.2 
L 74.584375 7.2 
z
" style="fill: #ffffff"/>
   </g>
   <g id="PolyCollection_1">
    <defs>
     <path id="m730db83187" d="M 131.130648 -161.96702 
L 129.638102 -161.96702 
L 129.153299 -163.93277 
L 128.456431 -165.89852 
L 127.516171 -167.86427 
L 126.327609 -169.830019 
L 124.923836 -171.795769 
L 123.380867 -173.761519 
L 121.81206 -175.727269 
L 120.351186 -177.693019 
L 119.127449 -179.658768 
L 118.239275 -181.624518 
L 117.734852 -183.590268 
L 117.605358 -185.556018 
L 117.792421 -187.521768 
L 118.206435 -189.487517 
L 118.749137 -191.453267 
L 119.333454 -193.419017 
L 119.895783 -195.384767 
L 120.399351 -197.350517 
L 120.830375 -199.316266 
L 121.190425 -201.282016 
L 121.488456 -203.247766 
L 121.734831 -205.213516 
L 121.938232 -207.179266 
L 122.105066 -209.145015 
L 122.240366 -211.110765 
L 122.349047 -213.076515 
L 122.43672 -215.042265 
L 122.5097 -217.008015 
L 122.574312 -218.973764 
L 122.635904 -220.939514 
L 122.698049 -222.905264 
L 122.762337 -224.871014 
L 122.828846 -226.836764 
L 122.89708 -228.802513 
L 122.966933 -230.768263 
L 123.039187 -232.734013 
L 123.115314 -234.699763 
L 123.196662 -236.665513 
L 123.283433 -238.631262 
L 123.373954 -240.597012 
L 123.464643 -242.562762 
L 123.550732 -244.528512 
L 123.627545 -246.494261 
L 123.691925 -248.460011 
L 123.743458 -250.425761 
L 123.785236 -252.391511 
L 123.824083 -254.357261 
L 123.870183 -256.32301 
L 123.93608 -258.28876 
L 124.034997 -260.25451 
L 124.178532 -262.22026 
L 124.374025 -264.18601 
L 124.622183 -266.151759 
L 124.915677 -268.117509 
L 125.239348 -270.083259 
L 125.572213 -272.049009 
L 125.890966 -274.014759 
L 126.174101 -275.980508 
L 126.40568 -277.946258 
L 126.577835 -279.912008 
L 126.691571 -281.877758 
L 126.755901 -283.843508 
L 126.785758 -285.809257 
L 126.799323 -287.775007 
L 126.815396 -289.740757 
L 126.85125 -291.706507 
L 126.921155 -293.672257 
L 127.035479 -295.638006 
L 127.200149 -297.603756 
L 127.416233 -299.569506 
L 127.679621 -301.535256 
L 127.98098 -303.501006 
L 128.306327 -305.466755 
L 128.638467 -307.432505 
L 128.959255 -309.398255 
L 129.25227 -311.364005 
L 129.505226 -313.329755 
L 129.711477 -315.295504 
L 129.870244 -317.261254 
L 129.985648 -319.227004 
L 130.06499 -321.192754 
L 130.116845 -323.158503 
L 130.149491 -325.124253 
L 130.169928 -327.090003 
L 130.183509 -329.055753 
L 130.194012 -331.021503 
L 130.203938 -332.987252 
L 130.214842 -334.953002 
L 130.227585 -336.918752 
L 130.242474 -338.884502 
L 130.259343 -340.850252 
L 130.277612 -342.816001 
L 130.296397 -344.781751 
L 130.314665 -346.747501 
L 130.331432 -348.713251 
L 130.345938 -350.679001 
L 130.357759 -352.64475 
L 130.366827 -354.6105 
L 130.373377 -356.57625 
L 130.395373 -356.57625 
L 130.395373 -356.57625 
L 130.401923 -354.6105 
L 130.410991 -352.64475 
L 130.422812 -350.679001 
L 130.437318 -348.713251 
L 130.454085 -346.747501 
L 130.472353 -344.781751 
L 130.491138 -342.816001 
L 130.509407 -340.850252 
L 130.526276 -338.884502 
L 130.541165 -336.918752 
L 130.553908 -334.953002 
L 130.564812 -332.987252 
L 130.574738 -331.021503 
L 130.585241 -329.055753 
L 130.598822 -327.090003 
L 130.619259 -325.124253 
L 130.651905 -323.158503 
L 130.70376 -321.192754 
L 130.783102 -319.227004 
L 130.898506 -317.261254 
L 131.057273 -315.295504 
L 131.263524 -313.329755 
L 131.51648 -311.364005 
L 131.809495 -309.398255 
L 132.130283 -307.432505 
L 132.462423 -305.466755 
L 132.78777 -303.501006 
L 133.089129 -301.535256 
L 133.352517 -299.569506 
L 133.568601 -297.603756 
L 133.733271 -295.638006 
L 133.847595 -293.672257 
L 133.9175 -291.706507 
L 133.953354 -289.740757 
L 133.969427 -287.775007 
L 133.982992 -285.809257 
L 134.012849 -283.843508 
L 134.077179 -281.877758 
L 134.190915 -279.912008 
L 134.36307 -277.946258 
L 134.594649 -275.980508 
L 134.877784 -274.014759 
L 135.196537 -272.049009 
L 135.529402 -270.083259 
L 135.853073 -268.117509 
L 136.146567 -266.151759 
L 136.394725 -264.18601 
L 136.590218 -262.22026 
L 136.733753 -260.25451 
L 136.83267 -258.28876 
L 136.898567 -256.32301 
L 136.944667 -254.357261 
L 136.983514 -252.391511 
L 137.025292 -250.425761 
L 137.076825 -248.460011 
L 137.141205 -246.494261 
L 137.218018 -244.528512 
L 137.304107 -242.562762 
L 137.394796 -240.597012 
L 137.485317 -238.631262 
L 137.572088 -236.665513 
L 137.653436 -234.699763 
L 137.729563 -232.734013 
L 137.801817 -230.768263 
L 137.87167 -228.802513 
L 137.939904 -226.836764 
L 138.006413 -224.871014 
L 138.070701 -222.905264 
L 138.132846 -220.939514 
L 138.194438 -218.973764 
L 138.25905 -217.008015 
L 138.33203 -215.042265 
L 138.419703 -213.076515 
L 138.528384 -211.110765 
L 138.663684 -209.145015 
L 138.830518 -207.179266 
L 139.033919 -205.213516 
L 139.280294 -203.247766 
L 139.578325 -201.282016 
L 139.938375 -199.316266 
L 140.369399 -197.350517 
L 140.872967 -195.384767 
L 141.435296 -193.419017 
L 142.019613 -191.453267 
L 142.562315 -189.487517 
L 142.976329 -187.521768 
L 143.163392 -185.556018 
L 143.033898 -183.590268 
L 142.529475 -181.624518 
L 141.641301 -179.658768 
L 140.417564 -177.693019 
L 138.95669 -175.727269 
L 137.387883 -173.761519 
L 135.844914 -171.795769 
L 134.441141 -169.830019 
L 133.252579 -167.86427 
L 132.312319 -165.89852 
L 131.615451 -163.93277 
L 131.130648 -161.96702 
z
" style="stroke: #3f3f3f; stroke-width: 1.875"/>
    </defs>
    <g clip-path="url(#pfc1f756073)">
     <use xlink:href="#m730db83187" x="0" y="378.89625" style="fill: #3274a1; stroke: #3f3f3f; stroke-width: 1.875"/>
    </g>
   </g>
   <g id="PolyCollection_2">
    <defs>
     <path id="m3951b13c05" d="M 242.340948 -95.085588 
L 241.627802 -95.085588 
L 241.464298 -96.731267 
L 241.25515 -98.376947 
L 241.001429 -100.022626 
L 240.710659 -101.668305 
L 240.397693 -103.313984 
L 240.084252 -104.959663 
L 239.796876 -106.605343 
L 239.563409 -108.251022 
L 239.408624 -109.896701 
L 239.349902 -111.54238 
L 239.394028 -113.188059 
L 239.535893 -114.833738 
L 239.759473 -116.479418 
L 240.040804 -118.125097 
L 240.352192 -119.770776 
L 240.666649 -121.416455 
L 240.961555 -123.062134 
L 241.220915 -124.707814 
L 241.435982 -126.353493 
L 241.604456 -127.999172 
L 241.728716 -129.644851 
L 241.813627 -131.29053 
L 241.864367 -132.936209 
L 241.884576 -134.581889 
L 241.874955 -136.227568 
L 241.832389 -137.873247 
L 241.749648 -139.518926 
L 241.615779 -141.164605 
L 241.417378 -142.810285 
L 241.140858 -144.455964 
L 240.775729 -146.101643 
L 240.31853 -147.747322 
L 239.776754 -149.393001 
L 239.171738 -151.038681 
L 238.539407 -152.68436 
L 237.928043 -154.330039 
L 237.392849 -155.975718 
L 236.987995 -157.621397 
L 236.757666 -159.267076 
L 236.728128 -160.912756 
L 236.902808 -162.558435 
L 237.261634 -164.204114 
L 237.764835 -165.849793 
L 238.360189 -167.495472 
L 238.9919 -169.141152 
L 239.60904 -170.786831 
L 240.171809 -172.43251 
L 240.654725 -174.078189 
L 241.046694 -175.723868 
L 241.348681 -177.369547 
L 241.570075 -179.015227 
L 241.724804 -180.660906 
L 241.828034 -182.306585 
L 241.893851 -183.952264 
L 241.933987 -185.597943 
L 241.957412 -187.243623 
L 241.970505 -188.889302 
L 241.977516 -190.534981 
L 241.981113 -192.18066 
L 241.982882 -193.826339 
L 241.983712 -195.472018 
L 241.984074 -197.117698 
L 241.984193 -198.763377 
L 241.984142 -200.409056 
L 241.983864 -202.054735 
L 241.983124 -203.700414 
L 241.981357 -205.346094 
L 241.977354 -206.991773 
L 241.968663 -208.637452 
L 241.950573 -210.283131 
L 241.914465 -211.92881 
L 241.845377 -213.574489 
L 241.718698 -215.220169 
L 241.496204 -216.865848 
L 241.122063 -218.511527 
L 240.52007 -220.157206 
L 239.59396 -221.802885 
L 238.233009 -223.448565 
L 236.324848 -225.094244 
L 233.776223 -226.739923 
L 230.540184 -228.385602 
L 226.645295 -230.031281 
L 222.219775 -231.67696 
L 217.502129 -233.32264 
L 212.830991 -234.968319 
L 208.610917 -236.613998 
L 205.257165 -238.259677 
L 203.129173 -239.905356 
L 202.467289 -241.551036 
L 203.348109 -243.196715 
L 205.66989 -244.842394 
L 209.171889 -246.488073 
L 213.482536 -248.133752 
L 218.184147 -249.779431 
L 222.878634 -251.425111 
L 227.240178 -253.07079 
L 231.045998 -254.716469 
L 234.183216 -256.362148 
L 236.635778 -258.007827 
L 247.332972 -258.007827 
L 247.332972 -258.007827 
L 249.785534 -256.362148 
L 252.922752 -254.716469 
L 256.728572 -253.07079 
L 261.090116 -251.425111 
L 265.784603 -249.779431 
L 270.486214 -248.133752 
L 274.796861 -246.488073 
L 278.29886 -244.842394 
L 280.620641 -243.196715 
L 281.501461 -241.551036 
L 280.839577 -239.905356 
L 278.711585 -238.259677 
L 275.357833 -236.613998 
L 271.137759 -234.968319 
L 266.466621 -233.32264 
L 261.748975 -231.67696 
L 257.323455 -230.031281 
L 253.428566 -228.385602 
L 250.192527 -226.739923 
L 247.643902 -225.094244 
L 245.735741 -223.448565 
L 244.37479 -221.802885 
L 243.44868 -220.157206 
L 242.846687 -218.511527 
L 242.472546 -216.865848 
L 242.250052 -215.220169 
L 242.123373 -213.574489 
L 242.054285 -211.92881 
L 242.018177 -210.283131 
L 242.000087 -208.637452 
L 241.991396 -206.991773 
L 241.987393 -205.346094 
L 241.985626 -203.700414 
L 241.984886 -202.054735 
L 241.984608 -200.409056 
L 241.984557 -198.763377 
L 241.984676 -197.117698 
L 241.985038 -195.472018 
L 241.985868 -193.826339 
L 241.987637 -192.18066 
L 241.991234 -190.534981 
L 241.998245 -188.889302 
L 242.011338 -187.243623 
L 242.034763 -185.597943 
L 242.074899 -183.952264 
L 242.140716 -182.306585 
L 242.243946 -180.660906 
L 242.398675 -179.015227 
L 242.620069 -177.369547 
L 242.922056 -175.723868 
L 243.314025 -174.078189 
L 243.796941 -172.43251 
L 244.35971 -170.786831 
L 244.97685 -169.141152 
L 245.608561 -167.495472 
L 246.203915 -165.849793 
L 246.707116 -164.204114 
L 247.065942 -162.558435 
L 247.240622 -160.912756 
L 247.211084 -159.267076 
L 246.980755 -157.621397 
L 246.575901 -155.975718 
L 246.040707 -154.330039 
L 245.429343 -152.68436 
L 244.797012 -151.038681 
L 244.191996 -149.393001 
L 243.65022 -147.747322 
L 243.193021 -146.101643 
L 242.827892 -144.455964 
L 242.551372 -142.810285 
L 242.352971 -141.164605 
L 242.219102 -139.518926 
L 242.136361 -137.873247 
L 242.093795 -136.227568 
L 242.084174 -134.581889 
L 242.104383 -132.936209 
L 242.155123 -131.29053 
L 242.240034 -129.644851 
L 242.364294 -127.999172 
L 242.532768 -126.353493 
L 242.747835 -124.707814 
L 243.007195 -123.062134 
L 243.302101 -121.416455 
L 243.616558 -119.770776 
L 243.927946 -118.125097 
L 244.209277 -116.479418 
L 244.432857 -114.833738 
L 244.574722 -113.188059 
L 244.618848 -111.54238 
L 244.560126 -109.896701 
L 244.405341 -108.251022 
L 244.171874 -106.605343 
L 243.884498 -104.959663 
L 243.571057 -103.313984 
L 243.258091 -101.668305 
L 242.967321 -100.022626 
L 242.7136 -98.376947 
L 242.504452 -96.731267 
L 242.340948 -95.085588 
z
" style="stroke: #3f3f3f; stroke-width: 1.875"/>
    </defs>
    <g clip-path="url(#pfc1f756073)">
     <use xlink:href="#m3951b13c05" x="0" y="378.89625" style="fill: #3274a1; stroke: #3f3f3f; stroke-width: 1.875"/>
    </g>
   </g>
   <g id="PolyCollection_3">
    <defs>
     <path id="m8277922eab" d="M 353.940948 -125.856501 
L 353.227802 -125.856501 
L 352.983328 -128.183383 
L 352.64804 -130.510265 
L 352.236288 -132.837147 
L 351.790583 -135.164029 
L 351.37839 -137.490912 
L 351.076887 -139.817794 
L 350.949447 -142.144676 
L 351.023079 -144.471558 
L 351.276975 -146.79844 
L 351.6471 -149.125323 
L 352.043553 -151.452205 
L 352.37169 -153.779087 
L 352.548514 -156.105969 
L 352.511735 -158.432852 
L 352.22536 -160.759734 
L 351.687479 -163.086616 
L 350.941371 -165.413498 
L 350.083441 -167.74038 
L 349.257062 -170.067263 
L 348.625222 -172.394145 
L 348.326403 -174.721027 
L 348.430397 -177.047909 
L 348.914783 -179.374791 
L 349.674217 -181.701674 
L 350.55831 -184.028556 
L 351.420006 -186.355438 
L 352.153579 -188.68232 
L 352.709831 -191.009203 
L 353.088938 -193.336085 
L 353.320266 -195.662967 
L 353.439753 -197.989849 
L 353.470709 -200.316731 
L 353.407871 -202.643614 
L 353.201335 -204.970496 
L 352.738674 -207.297378 
L 351.83046 -209.62426 
L 350.213988 -211.951142 
L 347.596283 -214.278025 
L 343.751353 -216.604907 
L 338.661503 -218.931789 
L 332.653808 -221.258671 
L 326.452973 -223.585554 
L 321.081183 -225.912436 
L 317.59765 -228.239318 
L 316.761206 -230.5662 
L 318.761667 -232.893082 
L 323.149856 -235.219965 
L 329.001488 -237.546847 
L 335.233286 -239.873729 
L 340.923802 -242.200611 
L 345.511887 -244.527493 
L 348.827476 -246.854376 
L 350.993759 -249.181258 
L 352.280474 -251.50814 
L 352.97785 -253.835022 
L 353.32363 -256.161905 
L 353.480779 -258.488787 
L 353.546335 -260.815669 
L 353.571466 -263.142551 
L 353.580326 -265.469433 
L 353.583201 -267.796316 
L 353.584061 -270.123198 
L 353.584297 -272.45008 
L 353.584357 -274.776962 
L 353.584371 -277.103844 
L 353.584374 -279.430727 
L 353.584375 -281.757609 
L 353.584375 -284.084491 
L 353.584375 -286.411373 
L 353.584375 -288.738256 
L 353.584375 -291.065138 
L 353.584375 -293.39202 
L 353.584373 -295.718902 
L 353.584366 -298.045784 
L 353.58434 -300.372667 
L 353.584247 -302.699549 
L 353.583946 -305.026431 
L 353.583044 -307.353313 
L 353.580554 -309.680195 
L 353.574237 -312.007078 
L 353.559516 -314.33396 
L 353.528042 -316.660842 
L 353.466396 -318.987724 
L 353.356022 -321.314607 
L 353.175894 -323.641489 
L 352.909071 -325.968371 
L 352.55259 -328.295253 
L 352.127434 -330.622135 
L 351.683046 -332.949018 
L 351.291212 -335.2759 
L 351.02829 -337.602782 
L 350.95121 -339.929664 
L 351.077438 -342.256546 
L 351.378549 -344.583429 
L 351.790626 -346.910311 
L 352.236298 -349.237193 
L 352.648042 -351.564075 
L 352.983328 -353.890958 
L 353.227802 -356.21784 
L 353.940948 -356.21784 
L 353.940948 -356.21784 
L 354.185422 -353.890958 
L 354.520708 -351.564075 
L 354.932452 -349.237193 
L 355.378124 -346.910311 
L 355.790201 -344.583429 
L 356.091312 -342.256546 
L 356.21754 -339.929664 
L 356.14046 -337.602782 
L 355.877538 -335.2759 
L 355.485704 -332.949018 
L 355.041316 -330.622135 
L 354.61616 -328.295253 
L 354.259679 -325.968371 
L 353.992856 -323.641489 
L 353.812728 -321.314607 
L 353.702354 -318.987724 
L 353.640708 -316.660842 
L 353.609234 -314.33396 
L 353.594513 -312.007078 
L 353.588196 -309.680195 
L 353.585706 -307.353313 
L 353.584804 -305.026431 
L 353.584503 -302.699549 
L 353.58441 -300.372667 
L 353.584384 -298.045784 
L 353.584377 -295.718902 
L 353.584375 -293.39202 
L 353.584375 -291.065138 
L 353.584375 -288.738256 
L 353.584375 -286.411373 
L 353.584375 -284.084491 
L 353.584375 -281.757609 
L 353.584376 -279.430727 
L 353.584379 -277.103844 
L 353.584393 -274.776962 
L 353.584453 -272.45008 
L 353.584689 -270.123198 
L 353.585549 -267.796316 
L 353.588424 -265.469433 
L 353.597284 -263.142551 
L 353.622415 -260.815669 
L 353.687971 -258.488787 
L 353.84512 -256.161905 
L 354.1909 -253.835022 
L 354.888276 -251.50814 
L 356.174991 -249.181258 
L 358.341274 -246.854376 
L 361.656863 -244.527493 
L 366.244948 -242.200611 
L 371.935464 -239.873729 
L 378.167262 -237.546847 
L 384.018894 -235.219965 
L 388.407083 -232.893082 
L 390.407544 -230.5662 
L 389.5711 -228.239318 
L 386.087567 -225.912436 
L 380.715777 -223.585554 
L 374.514942 -221.258671 
L 368.507247 -218.931789 
L 363.417397 -216.604907 
L 359.572467 -214.278025 
L 356.954762 -211.951142 
L 355.33829 -209.62426 
L 354.430076 -207.297378 
L 353.967415 -204.970496 
L 353.760879 -202.643614 
L 353.698041 -200.316731 
L 353.728997 -197.989849 
L 353.848484 -195.662967 
L 354.079812 -193.336085 
L 354.458919 -191.009203 
L 355.015171 -188.68232 
L 355.748744 -186.355438 
L 356.61044 -184.028556 
L 357.494533 -181.701674 
L 358.253967 -179.374791 
L 358.738353 -177.047909 
L 358.842347 -174.721027 
L 358.543528 -172.394145 
L 357.911688 -170.067263 
L 357.085309 -167.74038 
L 356.227379 -165.413498 
L 355.481271 -163.086616 
L 354.94339 -160.759734 
L 354.657015 -158.432852 
L 354.620236 -156.105969 
L 354.79706 -153.779087 
L 355.125197 -151.452205 
L 355.52165 -149.125323 
L 355.891775 -146.79844 
L 356.145671 -144.471558 
L 356.219303 -142.144676 
L 356.091863 -139.817794 
L 355.79036 -137.490912 
L 355.378167 -135.164029 
L 354.932462 -132.837147 
L 354.52071 -130.510265 
L 354.185422 -128.183383 
L 353.940948 -125.856501 
z
" style="stroke: #3f3f3f; stroke-width: 1.875"/>
    </defs>
    <g clip-path="url(#pfc1f756073)">
     <use xlink:href="#m8277922eab" x="0" y="378.89625" style="fill: #3274a1; stroke: #3f3f3f; stroke-width: 1.875"/>
    </g>
   </g>
   <g id="PolyCollection_4">
    <defs>
     <path id="md9a2fee36f" d="M 465.540948 -54.17625 
L 464.827802 -54.17625 
L 464.62474 -56.163077 
L 464.355097 -58.149904 
L 464.024174 -60.136731 
L 463.651859 -62.123559 
L 463.273136 -64.110386 
L 462.933956 -66.097213 
L 462.682589 -68.08404 
L 462.558493 -70.070867 
L 462.582187 -72.057694 
L 462.749702 -74.044522 
L 463.03367 -76.031349 
L 463.390636 -78.018176 
L 463.771915 -80.005003 
L 464.134273 -81.99183 
L 464.447277 -83.978657 
L 464.695883 -85.965485 
L 464.878723 -87.952312 
L 465.003809 -89.939139 
L 465.083662 -91.925966 
L 465.131339 -93.912793 
L 465.158006 -95.89962 
L 465.171997 -97.886448 
L 465.178889 -99.873275 
L 465.182079 -101.860102 
L 465.183468 -103.846929 
L 465.184037 -105.833756 
L 465.184256 -107.820583 
L 465.184335 -109.80741 
L 465.184363 -111.794238 
L 465.184371 -113.781065 
L 465.184374 -115.767892 
L 465.184375 -117.754719 
L 465.184375 -119.741546 
L 465.184375 -121.728373 
L 465.184375 -123.715201 
L 465.184375 -125.702028 
L 465.184375 -127.688855 
L 465.184375 -129.675682 
L 465.184375 -131.662509 
L 465.184375 -133.649336 
L 465.184375 -135.636164 
L 465.184375 -137.622991 
L 465.184375 -139.609818 
L 465.184375 -141.596645 
L 465.184375 -143.583472 
L 465.184375 -145.570299 
L 465.184375 -147.557127 
L 465.184375 -149.543954 
L 465.184375 -151.530781 
L 465.184375 -153.517608 
L 465.184375 -155.504435 
L 465.184375 -157.491262 
L 465.184375 -159.478089 
L 465.184375 -161.464917 
L 465.184375 -163.451744 
L 465.184375 -165.438571 
L 465.184375 -167.425398 
L 465.184375 -169.412225 
L 465.184375 -171.399052 
L 465.184375 -173.38588 
L 465.184375 -175.372707 
L 465.184375 -177.359534 
L 465.184375 -179.346361 
L 465.184375 -181.333188 
L 465.184375 -183.320015 
L 465.184374 -185.306843 
L 465.18437 -187.29367 
L 465.184357 -189.280497 
L 465.184312 -191.267324 
L 465.184164 -193.254151 
L 465.183702 -195.240978 
L 465.18235 -197.227806 
L 465.178624 -199.214633 
L 465.168957 -201.20146 
L 465.14535 -203.188287 
L 465.091113 -205.175114 
L 464.973947 -207.161941 
L 464.736103 -209.148768 
L 464.282767 -211.135596 
L 463.472262 -213.122423 
L 462.11475 -215.10925 
L 459.988286 -217.096077 
L 456.880015 -219.082904 
L 452.653709 -221.069731 
L 447.332637 -223.056559 
L 441.172548 -225.043386 
L 434.690806 -227.030213 
L 428.622396 -229.01704 
L 423.79494 -231.003867 
L 420.947172 -232.990694 
L 420.544375 -234.977522 
L 422.654013 -236.964349 
L 426.927249 -238.951176 
L 432.693309 -240.938003 
L 439.131602 -242.92483 
L 445.460951 -244.911657 
L 451.08665 -246.898485 
L 455.670573 -248.885312 
L 459.122631 -250.872139 
L 471.246119 -250.872139 
L 471.246119 -250.872139 
L 474.698177 -248.885312 
L 479.2821 -246.898485 
L 484.907799 -244.911657 
L 491.237148 -242.92483 
L 497.675441 -240.938003 
L 503.441501 -238.951176 
L 507.714737 -236.964349 
L 509.824375 -234.977522 
L 509.421578 -232.990694 
L 506.57381 -231.003867 
L 501.746354 -229.01704 
L 495.677944 -227.030213 
L 489.196202 -225.043386 
L 483.036113 -223.056559 
L 477.715041 -221.069731 
L 473.488735 -219.082904 
L 470.380464 -217.096077 
L 468.254 -215.10925 
L 466.896488 -213.122423 
L 466.085983 -211.135596 
L 465.632647 -209.148768 
L 465.394803 -207.161941 
L 465.277637 -205.175114 
L 465.2234 -203.188287 
L 465.199793 -201.20146 
L 465.190126 -199.214633 
L 465.1864 -197.227806 
L 465.185048 -195.240978 
L 465.184586 -193.254151 
L 465.184438 -191.267324 
L 465.184393 -189.280497 
L 465.18438 -187.29367 
L 465.184376 -185.306843 
L 465.184375 -183.320015 
L 465.184375 -181.333188 
L 465.184375 -179.346361 
L 465.184375 -177.359534 
L 465.184375 -175.372707 
L 465.184375 -173.38588 
L 465.184375 -171.399052 
L 465.184375 -169.412225 
L 465.184375 -167.425398 
L 465.184375 -165.438571 
L 465.184375 -163.451744 
L 465.184375 -161.464917 
L 465.184375 -159.478089 
L 465.184375 -157.491262 
L 465.184375 -155.504435 
L 465.184375 -153.517608 
L 465.184375 -151.530781 
L 465.184375 -149.543954 
L 465.184375 -147.557127 
L 465.184375 -145.570299 
L 465.184375 -143.583472 
L 465.184375 -141.596645 
L 465.184375 -139.609818 
L 465.184375 -137.622991 
L 465.184375 -135.636164 
L 465.184375 -133.649336 
L 465.184375 -131.662509 
L 465.184375 -129.675682 
L 465.184375 -127.688855 
L 465.184375 -125.702028 
L 465.184375 -123.715201 
L 465.184375 -121.728373 
L 465.184375 -119.741546 
L 465.184375 -117.754719 
L 465.184376 -115.767892 
L 465.184379 -113.781065 
L 465.184387 -111.794238 
L 465.184415 -109.80741 
L 465.184494 -107.820583 
L 465.184713 -105.833756 
L 465.185282 -103.846929 
L 465.186671 -101.860102 
L 465.189861 -99.873275 
L 465.196753 -97.886448 
L 465.210744 -95.89962 
L 465.237411 -93.912793 
L 465.285088 -91.925966 
L 465.364941 -89.939139 
L 465.490027 -87.952312 
L 465.672867 -85.965485 
L 465.921473 -83.978657 
L 466.234477 -81.99183 
L 466.596835 -80.005003 
L 466.978114 -78.018176 
L 467.33508 -76.031349 
L 467.619048 -74.044522 
L 467.786563 -72.057694 
L 467.810257 -70.070867 
L 467.686161 -68.08404 
L 467.434794 -66.097213 
L 467.095614 -64.110386 
L 466.716891 -62.123559 
L 466.344576 -60.136731 
L 466.013653 -58.149904 
L 465.74401 -56.163077 
L 465.540948 -54.17625 
z
" style="stroke: #3f3f3f; stroke-width: 1.875"/>
    </defs>
    <g clip-path="url(#pfc1f756073)">
     <use xlink:href="#md9a2fee36f" x="0" y="378.89625" style="fill: #3274a1; stroke: #3f3f3f; stroke-width: 1.875"/>
    </g>
   </g>
   <g id="PolyCollection_5">
    <defs>
     <path id="m24ba5fa93f" d="M 577.140948 -96.250247 
L 576.427802 -96.250247 
L 576.147953 -98.855525 
L 575.75536 -101.460804 
L 575.277151 -104.066082 
L 574.784449 -106.67136 
L 574.3804 -109.276638 
L 574.166639 -111.881917 
L 574.202105 -114.487195 
L 574.476793 -117.092473 
L 574.916307 -119.697751 
L 575.414415 -122.30303 
L 575.874246 -124.908308 
L 576.23663 -127.513586 
L 576.485745 -130.118864 
L 576.636883 -132.724143 
L 576.718384 -135.329421 
L 576.757628 -137.934699 
L 576.774554 -140.539978 
L 576.781108 -143.145256 
L 576.783391 -145.750534 
L 576.784106 -148.355812 
L 576.784309 -150.961091 
L 576.78436 -153.566369 
L 576.784372 -156.171647 
L 576.784374 -158.776925 
L 576.784375 -161.382204 
L 576.784375 -163.987482 
L 576.784375 -166.59276 
L 576.784375 -169.198038 
L 576.784375 -171.803317 
L 576.784375 -174.408595 
L 576.784373 -177.013873 
L 576.784364 -179.619151 
L 576.784314 -182.22443 
L 576.784081 -184.829708 
L 576.783078 -187.434986 
L 576.779202 -190.040265 
L 576.76568 -192.645543 
L 576.723173 -195.250821 
L 576.602871 -197.856099 
L 576.296749 -200.461378 
L 575.597602 -203.066656 
L 574.167826 -205.671934 
L 571.558371 -208.277212 
L 567.328743 -210.882491 
L 561.28582 -213.487769 
L 553.771453 -216.093047 
L 545.829278 -218.698325 
L 539.06431 -221.303604 
L 535.146115 -223.908882 
L 535.146115 -226.51416 
L 539.06431 -229.119438 
L 545.829278 -231.724717 
L 553.771453 -234.329995 
L 561.28582 -236.935273 
L 567.328743 -239.540551 
L 571.558371 -242.14583 
L 574.167826 -244.751108 
L 575.597602 -247.356386 
L 576.296749 -249.961665 
L 576.602871 -252.566943 
L 576.723173 -255.172221 
L 576.76568 -257.777499 
L 576.779202 -260.382778 
L 576.783078 -262.988056 
L 576.784081 -265.593334 
L 576.784314 -268.198612 
L 576.784364 -270.803891 
L 576.784373 -273.409169 
L 576.784375 -276.014447 
L 576.784375 -278.619725 
L 576.784375 -281.225004 
L 576.784375 -283.830282 
L 576.784375 -286.43556 
L 576.784375 -289.040838 
L 576.784374 -291.646117 
L 576.784372 -294.251395 
L 576.78436 -296.856673 
L 576.784309 -299.461952 
L 576.784106 -302.06723 
L 576.783391 -304.672508 
L 576.781108 -307.277786 
L 576.774554 -309.883065 
L 576.757628 -312.488343 
L 576.718384 -315.093621 
L 576.636883 -317.698899 
L 576.485745 -320.304178 
L 576.23663 -322.909456 
L 575.874246 -325.514734 
L 575.414415 -328.120012 
L 574.916307 -330.725291 
L 574.476793 -333.330569 
L 574.202105 -335.935847 
L 574.166639 -338.541125 
L 574.3804 -341.146404 
L 574.784449 -343.751682 
L 575.277151 -346.35696 
L 575.75536 -348.962238 
L 576.147953 -351.567517 
L 576.427802 -354.172795 
L 577.140948 -354.172795 
L 577.140948 -354.172795 
L 577.420797 -351.567517 
L 577.81339 -348.962238 
L 578.291599 -346.35696 
L 578.784301 -343.751682 
L 579.18835 -341.146404 
L 579.402111 -338.541125 
L 579.366645 -335.935847 
L 579.091957 -333.330569 
L 578.652443 -330.725291 
L 578.154335 -328.120012 
L 577.694504 -325.514734 
L 577.33212 -322.909456 
L 577.083005 -320.304178 
L 576.931867 -317.698899 
L 576.850366 -315.093621 
L 576.811122 -312.488343 
L 576.794196 -309.883065 
L 576.787642 -307.277786 
L 576.785359 -304.672508 
L 576.784644 -302.06723 
L 576.784441 -299.461952 
L 576.78439 -296.856673 
L 576.784378 -294.251395 
L 576.784376 -291.646117 
L 576.784375 -289.040838 
L 576.784375 -286.43556 
L 576.784375 -283.830282 
L 576.784375 -281.225004 
L 576.784375 -278.619725 
L 576.784375 -276.014447 
L 576.784377 -273.409169 
L 576.784386 -270.803891 
L 576.784436 -268.198612 
L 576.784669 -265.593334 
L 576.785672 -262.988056 
L 576.789548 -260.382778 
L 576.80307 -257.777499 
L 576.845577 -255.172221 
L 576.965879 -252.566943 
L 577.272001 -249.961665 
L 577.971148 -247.356386 
L 579.400924 -244.751108 
L 582.010379 -242.14583 
L 586.240007 -239.540551 
L 592.28293 -236.935273 
L 599.797297 -234.329995 
L 607.739472 -231.724717 
L 614.50444 -229.119438 
L 618.422635 -226.51416 
L 618.422635 -223.908882 
L 614.50444 -221.303604 
L 607.739472 -218.698325 
L 599.797297 -216.093047 
L 592.28293 -213.487769 
L 586.240007 -210.882491 
L 582.010379 -208.277212 
L 579.400924 -205.671934 
L 577.971148 -203.066656 
L 577.272001 -200.461378 
L 576.965879 -197.856099 
L 576.845577 -195.250821 
L 576.80307 -192.645543 
L 576.789548 -190.040265 
L 576.785672 -187.434986 
L 576.784669 -184.829708 
L 576.784436 -182.22443 
L 576.784386 -179.619151 
L 576.784377 -177.013873 
L 576.784375 -174.408595 
L 576.784375 -171.803317 
L 576.784375 -169.198038 
L 576.784375 -166.59276 
L 576.784375 -163.987482 
L 576.784375 -161.382204 
L 576.784376 -158.776925 
L 576.784378 -156.171647 
L 576.78439 -153.566369 
L 576.784441 -150.961091 
L 576.784644 -148.355812 
L 576.785359 -145.750534 
L 576.787642 -143.145256 
L 576.794196 -140.539978 
L 576.811122 -137.934699 
L 576.850366 -135.329421 
L 576.931867 -132.724143 
L 577.083005 -130.118864 
L 577.33212 -127.513586 
L 577.694504 -124.908308 
L 578.154335 -122.30303 
L 578.652443 -119.697751 
L 579.091957 -117.092473 
L 579.366645 -114.487195 
L 579.402111 -111.881917 
L 579.18835 -109.276638 
L 578.784301 -106.67136 
L 578.291599 -104.066082 
L 577.81339 -101.460804 
L 577.420797 -98.855525 
L 577.140948 -96.250247 
z
" style="stroke: #3f3f3f; stroke-width: 1.875"/>
    </defs>
    <g clip-path="url(#pfc1f756073)">
     <use xlink:href="#m24ba5fa93f" x="0" y="378.89625" style="fill: #3274a1; stroke: #3f3f3f; stroke-width: 1.875"/>
    </g>
   </g>
   <g id="PolyCollection_6">
    <defs>
     <path id="mfbc2b06873" d="M 688.81831 -147.627987 
L 687.95044 -147.627987 
L 687.769786 -149.032666 
L 687.536001 -150.437345 
L 687.242416 -151.842024 
L 686.884543 -153.246703 
L 686.460873 -154.651382 
L 685.973345 -156.056061 
L 685.427305 -157.46074 
L 684.830885 -158.865419 
L 684.193833 -160.270098 
L 683.52602 -161.674776 
L 682.835972 -163.079455 
L 682.129888 -164.484134 
L 681.411543 -165.888813 
L 680.683344 -167.293492 
L 679.948494 -168.698171 
L 679.213895 -170.10285 
L 678.493094 -171.507529 
L 677.808403 -172.912208 
L 677.191341 -174.316887 
L 676.680848 -175.721566 
L 676.31919 -177.126245 
L 676.146069 -178.530924 
L 676.191952 -179.935602 
L 676.471969 -181.340281 
L 676.981702 -182.74496 
L 677.695857 -184.149639 
L 678.570245 -185.554318 
L 679.546781 -186.958997 
L 680.560637 -188.363676 
L 681.548252 -189.768355 
L 682.454826 -191.173034 
L 683.240109 -192.577713 
L 683.881717 -193.982392 
L 684.375673 -195.387071 
L 684.734421 -196.79175 
L 684.98288 -198.196429 
L 685.153365 -199.601107 
L 685.280251 -201.005786 
L 685.395157 -202.410465 
L 685.523277 -203.815144 
L 685.681169 -205.219823 
L 685.876129 -206.624502 
L 686.106951 -208.029181 
L 686.365742 -209.43386 
L 686.640323 -210.838539 
L 686.916716 -212.243218 
L 687.181307 -213.647897 
L 687.422351 -215.052576 
L 687.630678 -216.457255 
L 687.799556 -217.861933 
L 687.923826 -219.266612 
L 687.998479 -220.671291 
L 688.016899 -222.07597 
L 687.969032 -223.480649 
L 687.839764 -224.885328 
L 687.607827 -226.290007 
L 687.245608 -227.694686 
L 686.720211 -229.099365 
L 685.996107 -230.504044 
L 685.039521 -231.908723 
L 683.824421 -233.313402 
L 682.339577 -234.718081 
L 680.595717 -236.122759 
L 678.631408 -237.527438 
L 676.51613 -238.932117 
L 674.349166 -240.336796 
L 672.253469 -241.741475 
L 670.364531 -243.146154 
L 668.81538 -244.550833 
L 667.719795 -245.955512 
L 667.156511 -247.360191 
L 667.157284 -248.76487 
L 667.701172 -250.169549 
L 668.71629 -251.574228 
L 670.088942 -252.978907 
L 671.678646 -254.383586 
L 673.336524 -255.788264 
L 674.92403 -257.192943 
L 676.329116 -258.597622 
L 677.477551 -260.002301 
L 678.338102 -261.40698 
L 678.921377 -262.811659 
L 679.27312 -264.216338 
L 679.463476 -265.621017 
L 679.574179 -267.025696 
L 679.685715 -268.430375 
L 679.866267 -269.835054 
L 680.163821 -271.239733 
L 680.602193 -272.644412 
L 681.181054 -274.04909 
L 681.879419 -275.453769 
L 682.66156 -276.858448 
L 683.484087 -278.263127 
L 684.302893 -279.667806 
L 685.078923 -281.072485 
L 685.782099 -282.477164 
L 686.393163 -283.881843 
L 686.903632 -285.286522 
L 687.314304 -286.691201 
L 689.454446 -286.691201 
L 689.454446 -286.691201 
L 689.865118 -285.286522 
L 690.375587 -283.881843 
L 690.986651 -282.477164 
L 691.689827 -281.072485 
L 692.465857 -279.667806 
L 693.284663 -278.263127 
L 694.10719 -276.858448 
L 694.889331 -275.453769 
L 695.587696 -274.04909 
L 696.166557 -272.644412 
L 696.604929 -271.239733 
L 696.902483 -269.835054 
L 697.083035 -268.430375 
L 697.194571 -267.025696 
L 697.305274 -265.621017 
L 697.49563 -264.216338 
L 697.847373 -262.811659 
L 698.430648 -261.40698 
L 699.291199 -260.002301 
L 700.439634 -258.597622 
L 701.84472 -257.192943 
L 703.432226 -255.788264 
L 705.090104 -254.383586 
L 706.679808 -252.978907 
L 708.05246 -251.574228 
L 709.067578 -250.169549 
L 709.611466 -248.76487 
L 709.612239 -247.360191 
L 709.048955 -245.955512 
L 707.95337 -244.550833 
L 706.404219 -243.146154 
L 704.515281 -241.741475 
L 702.419584 -240.336796 
L 700.25262 -238.932117 
L 698.137342 -237.527438 
L 696.173033 -236.122759 
L 694.429173 -234.718081 
L 692.944329 -233.313402 
L 691.729229 -231.908723 
L 690.772643 -230.504044 
L 690.048539 -229.099365 
L 689.523142 -227.694686 
L 689.160923 -226.290007 
L 688.928986 -224.885328 
L 688.799718 -223.480649 
L 688.751851 -222.07597 
L 688.770271 -220.671291 
L 688.844924 -219.266612 
L 688.969194 -217.861933 
L 689.138072 -216.457255 
L 689.346399 -215.052576 
L 689.587443 -213.647897 
L 689.852034 -212.243218 
L 690.128427 -210.838539 
L 690.403008 -209.43386 
L 690.661799 -208.029181 
L 690.892621 -206.624502 
L 691.087581 -205.219823 
L 691.245473 -203.815144 
L 691.373593 -202.410465 
L 691.488499 -201.005786 
L 691.615385 -199.601107 
L 691.78587 -198.196429 
L 692.034329 -196.79175 
L 692.393077 -195.387071 
L 692.887033 -193.982392 
L 693.528641 -192.577713 
L 694.313924 -191.173034 
L 695.220498 -189.768355 
L 696.208113 -188.363676 
L 697.221969 -186.958997 
L 698.198505 -185.554318 
L 699.072893 -184.149639 
L 699.787048 -182.74496 
L 700.296781 -181.340281 
L 700.576798 -179.935602 
L 700.622681 -178.530924 
L 700.44956 -177.126245 
L 700.087902 -175.721566 
L 699.577409 -174.316887 
L 698.960347 -172.912208 
L 698.275656 -171.507529 
L 697.554855 -170.10285 
L 696.820256 -168.698171 
L 696.085406 -167.293492 
L 695.357207 -165.888813 
L 694.638862 -164.484134 
L 693.932778 -163.079455 
L 693.24273 -161.674776 
L 692.574917 -160.270098 
L 691.937865 -158.865419 
L 691.341445 -157.46074 
L 690.795405 -156.056061 
L 690.307877 -154.651382 
L 689.884207 -153.246703 
L 689.526334 -151.842024 
L 689.232749 -150.437345 
L 688.998964 -149.032666 
L 688.81831 -147.627987 
z
" style="stroke: #3f3f3f; stroke-width: 1.875"/>
    </defs>
    <g clip-path="url(#pfc1f756073)">
     <use xlink:href="#mfbc2b06873" x="0" y="378.89625" style="fill: #3274a1; stroke: #3f3f3f; stroke-width: 1.875"/>
    </g>
   </g>
   <g id="matplotlib.axis_1">
    <g id="xtick_1">
     <g id="line2d_1">
      <defs>
       <path id="mce58a40463" d="M 0 0 
L 0 9 
" style="stroke: #000000; stroke-width: 1.875"/>
      </defs>
      <g>
       <use xlink:href="#mce58a40463" x="130.384375" y="339.84" style="stroke: #000000; stroke-width: 1.875"/>
      </g>
     </g>
     <g id="text_1">
      <!-- FEC -->
      <g transform="translate(111.33125 367.536875) scale(0.2 -0.2)">
       <defs>
        <path id="DejaVuSans-46" d="M 628 4666 
L 3309 4666 
L 3309 4134 
L 1259 4134 
L 1259 2759 
L 3109 2759 
L 3109 2228 
L 1259 2228 
L 1259 0 
L 628 0 
L 628 4666 
z
" transform="scale(0.015625)"/>
        <path id="DejaVuSans-45" d="M 628 4666 
L 3578 4666 
L 3578 4134 
L 1259 4134 
L 1259 2753 
L 3481 2753 
L 3481 2222 
L 1259 2222 
L 1259 531 
L 3634 531 
L 3634 0 
L 628 0 
L 628 4666 
z
" transform="scale(0.015625)"/>
        <path id="DejaVuSans-43" d="M 4122 4306 
L 4122 3641 
Q 3803 3938 3442 4084 
Q 3081 4231 2675 4231 
Q 1875 4231 1450 3742 
Q 1025 3253 1025 2328 
Q 1025 1406 1450 917 
Q 1875 428 2675 428 
Q 3081 428 3442 575 
Q 3803 722 4122 1019 
L 4122 359 
Q 3791 134 3420 21 
Q 3050 -91 2638 -91 
Q 1578 -91 968 557 
Q 359 1206 359 2328 
Q 359 3453 968 4101 
Q 1578 4750 2638 4750 
Q 3056 4750 3426 4639 
Q 3797 4528 4122 4306 
z
" transform="scale(0.015625)"/>
       </defs>
       <use xlink:href="#DejaVuSans-46"/>
       <use xlink:href="#DejaVuSans-45" x="57.519531"/>
       <use xlink:href="#DejaVuSans-43" x="120.703125"/>
      </g>
     </g>
    </g>
    <g id="xtick_2">
     <g id="line2d_2">
      <g>
       <use xlink:href="#mce58a40463" x="241.984375" y="339.84" style="stroke: #000000; stroke-width: 1.875"/>
      </g>
     </g>
     <g id="text_2">
      <!-- Ch-rate -->
      <g transform="translate(204.74375 367.536875) scale(0.2 -0.2)">
       <defs>
        <path id="DejaVuSans-68" d="M 3513 2113 
L 3513 0 
L 2938 0 
L 2938 2094 
Q 2938 2591 2744 2837 
Q 2550 3084 2163 3084 
Q 1697 3084 1428 2787 
Q 1159 2491 1159 1978 
L 1159 0 
L 581 0 
L 581 4863 
L 1159 4863 
L 1159 2956 
Q 1366 3272 1645 3428 
Q 1925 3584 2291 3584 
Q 2894 3584 3203 3211 
Q 3513 2838 3513 2113 
z
" transform="scale(0.015625)"/>
        <path id="DejaVuSans-2d" d="M 313 2009 
L 1997 2009 
L 1997 1497 
L 313 1497 
L 313 2009 
z
" transform="scale(0.015625)"/>
        <path id="DejaVuSans-72" d="M 2631 2963 
Q 2534 3019 2420 3045 
Q 2306 3072 2169 3072 
Q 1681 3072 1420 2755 
Q 1159 2438 1159 1844 
L 1159 0 
L 581 0 
L 581 3500 
L 1159 3500 
L 1159 2956 
Q 1341 3275 1631 3429 
Q 1922 3584 2338 3584 
Q 2397 3584 2469 3576 
Q 2541 3569 2628 3553 
L 2631 2963 
z
" transform="scale(0.015625)"/>
        <path id="DejaVuSans-61" d="M 2194 1759 
Q 1497 1759 1228 1600 
Q 959 1441 959 1056 
Q 959 750 1161 570 
Q 1363 391 1709 391 
Q 2188 391 2477 730 
Q 2766 1069 2766 1631 
L 2766 1759 
L 2194 1759 
z
M 3341 1997 
L 3341 0 
L 2766 0 
L 2766 531 
Q 2569 213 2275 61 
Q 1981 -91 1556 -91 
Q 1019 -91 701 211 
Q 384 513 384 1019 
Q 384 1609 779 1909 
Q 1175 2209 1959 2209 
L 2766 2209 
L 2766 2266 
Q 2766 2663 2505 2880 
Q 2244 3097 1772 3097 
Q 1472 3097 1187 3025 
Q 903 2953 641 2809 
L 641 3341 
Q 956 3463 1253 3523 
Q 1550 3584 1831 3584 
Q 2591 3584 2966 3190 
Q 3341 2797 3341 1997 
z
" transform="scale(0.015625)"/>
        <path id="DejaVuSans-74" d="M 1172 4494 
L 1172 3500 
L 2356 3500 
L 2356 3053 
L 1172 3053 
L 1172 1153 
Q 1172 725 1289 603 
Q 1406 481 1766 481 
L 2356 481 
L 2356 0 
L 1766 0 
Q 1100 0 847 248 
Q 594 497 594 1153 
L 594 3053 
L 172 3053 
L 172 3500 
L 594 3500 
L 594 4494 
L 1172 4494 
z
" transform="scale(0.015625)"/>
        <path id="DejaVuSans-65" d="M 3597 1894 
L 3597 1613 
L 953 1613 
Q 991 1019 1311 708 
Q 1631 397 2203 397 
Q 2534 397 2845 478 
Q 3156 559 3463 722 
L 3463 178 
Q 3153 47 2828 -22 
Q 2503 -91 2169 -91 
Q 1331 -91 842 396 
Q 353 884 353 1716 
Q 353 2575 817 3079 
Q 1281 3584 2069 3584 
Q 2775 3584 3186 3129 
Q 3597 2675 3597 1894 
z
M 3022 2063 
Q 3016 2534 2758 2815 
Q 2500 3097 2075 3097 
Q 1594 3097 1305 2825 
Q 1016 2553 972 2059 
L 3022 2063 
z
" transform="scale(0.015625)"/>
       </defs>
       <use xlink:href="#DejaVuSans-43"/>
       <use xlink:href="#DejaVuSans-68" x="69.824219"/>
       <use xlink:href="#DejaVuSans-2d" x="133.203125"/>
       <use xlink:href="#DejaVuSans-72" x="169.287109"/>
       <use xlink:href="#DejaVuSans-61" x="210.400391"/>
       <use xlink:href="#DejaVuSans-74" x="271.679688"/>
       <use xlink:href="#DejaVuSans-65" x="310.888672"/>
      </g>
     </g>
    </g>
    <g id="xtick_3">
     <g id="line2d_3">
      <g>
       <use xlink:href="#mce58a40463" x="353.584375" y="339.84" style="stroke: #000000; stroke-width: 1.875"/>
      </g>
     </g>
     <g id="text_3">
      <!-- Disch-rate -->
      <g transform="translate(302.140625 367.536875) scale(0.2 -0.2)">
       <defs>
        <path id="DejaVuSans-44" d="M 1259 4147 
L 1259 519 
L 2022 519 
Q 2988 519 3436 956 
Q 3884 1394 3884 2338 
Q 3884 3275 3436 3711 
Q 2988 4147 2022 4147 
L 1259 4147 
z
M 628 4666 
L 1925 4666 
Q 3281 4666 3915 4102 
Q 4550 3538 4550 2338 
Q 4550 1131 3912 565 
Q 3275 0 1925 0 
L 628 0 
L 628 4666 
z
" transform="scale(0.015625)"/>
        <path id="DejaVuSans-69" d="M 603 3500 
L 1178 3500 
L 1178 0 
L 603 0 
L 603 3500 
z
M 603 4863 
L 1178 4863 
L 1178 4134 
L 603 4134 
L 603 4863 
z
" transform="scale(0.015625)"/>
        <path id="DejaVuSans-73" d="M 2834 3397 
L 2834 2853 
Q 2591 2978 2328 3040 
Q 2066 3103 1784 3103 
Q 1356 3103 1142 2972 
Q 928 2841 928 2578 
Q 928 2378 1081 2264 
Q 1234 2150 1697 2047 
L 1894 2003 
Q 2506 1872 2764 1633 
Q 3022 1394 3022 966 
Q 3022 478 2636 193 
Q 2250 -91 1575 -91 
Q 1294 -91 989 -36 
Q 684 19 347 128 
L 347 722 
Q 666 556 975 473 
Q 1284 391 1588 391 
Q 1994 391 2212 530 
Q 2431 669 2431 922 
Q 2431 1156 2273 1281 
Q 2116 1406 1581 1522 
L 1381 1569 
Q 847 1681 609 1914 
Q 372 2147 372 2553 
Q 372 3047 722 3315 
Q 1072 3584 1716 3584 
Q 2034 3584 2315 3537 
Q 2597 3491 2834 3397 
z
" transform="scale(0.015625)"/>
        <path id="DejaVuSans-63" d="M 3122 3366 
L 3122 2828 
Q 2878 2963 2633 3030 
Q 2388 3097 2138 3097 
Q 1578 3097 1268 2742 
Q 959 2388 959 1747 
Q 959 1106 1268 751 
Q 1578 397 2138 397 
Q 2388 397 2633 464 
Q 2878 531 3122 666 
L 3122 134 
Q 2881 22 2623 -34 
Q 2366 -91 2075 -91 
Q 1284 -91 818 406 
Q 353 903 353 1747 
Q 353 2603 823 3093 
Q 1294 3584 2113 3584 
Q 2378 3584 2631 3529 
Q 2884 3475 3122 3366 
z
" transform="scale(0.015625)"/>
       </defs>
       <use xlink:href="#DejaVuSans-44"/>
       <use xlink:href="#DejaVuSans-69" x="77.001953"/>
       <use xlink:href="#DejaVuSans-73" x="104.785156"/>
       <use xlink:href="#DejaVuSans-63" x="156.884766"/>
       <use xlink:href="#DejaVuSans-68" x="211.865234"/>
       <use xlink:href="#DejaVuSans-2d" x="275.244141"/>
       <use xlink:href="#DejaVuSans-72" x="311.328125"/>
       <use xlink:href="#DejaVuSans-61" x="352.441406"/>
       <use xlink:href="#DejaVuSans-74" x="413.720703"/>
       <use xlink:href="#DejaVuSans-65" x="452.929688"/>
      </g>
     </g>
    </g>
    <g id="xtick_4">
     <g id="line2d_4">
      <g>
       <use xlink:href="#mce58a40463" x="465.184375" y="339.84" style="stroke: #000000; stroke-width: 1.875"/>
      </g>
     </g>
     <g id="text_4">
      <!-- T -->
      <g transform="translate(459.076562 367.536875) scale(0.2 -0.2)">
       <defs>
        <path id="DejaVuSans-54" d="M -19 4666 
L 3928 4666 
L 3928 4134 
L 2272 4134 
L 2272 0 
L 1638 0 
L 1638 4134 
L -19 4134 
L -19 4666 
z
" transform="scale(0.015625)"/>
       </defs>
       <use xlink:href="#DejaVuSans-54"/>
      </g>
     </g>
    </g>
    <g id="xtick_5">
     <g id="line2d_5">
      <g>
       <use xlink:href="#mce58a40463" x="576.784375" y="339.84" style="stroke: #000000; stroke-width: 1.875"/>
      </g>
     </g>
     <g id="text_5">
      <!-- SOC -->
      <g transform="translate(555.58125 367.536875) scale(0.2 -0.2)">
       <defs>
        <path id="DejaVuSans-53" d="M 3425 4513 
L 3425 3897 
Q 3066 4069 2747 4153 
Q 2428 4238 2131 4238 
Q 1616 4238 1336 4038 
Q 1056 3838 1056 3469 
Q 1056 3159 1242 3001 
Q 1428 2844 1947 2747 
L 2328 2669 
Q 3034 2534 3370 2195 
Q 3706 1856 3706 1288 
Q 3706 609 3251 259 
Q 2797 -91 1919 -91 
Q 1588 -91 1214 -16 
Q 841 59 441 206 
L 441 856 
Q 825 641 1194 531 
Q 1563 422 1919 422 
Q 2459 422 2753 634 
Q 3047 847 3047 1241 
Q 3047 1584 2836 1778 
Q 2625 1972 2144 2069 
L 1759 2144 
Q 1053 2284 737 2584 
Q 422 2884 422 3419 
Q 422 4038 858 4394 
Q 1294 4750 2059 4750 
Q 2388 4750 2728 4690 
Q 3069 4631 3425 4513 
z
" transform="scale(0.015625)"/>
        <path id="DejaVuSans-4f" d="M 2522 4238 
Q 1834 4238 1429 3725 
Q 1025 3213 1025 2328 
Q 1025 1447 1429 934 
Q 1834 422 2522 422 
Q 3209 422 3611 934 
Q 4013 1447 4013 2328 
Q 4013 3213 3611 3725 
Q 3209 4238 2522 4238 
z
M 2522 4750 
Q 3503 4750 4090 4092 
Q 4678 3434 4678 2328 
Q 4678 1225 4090 567 
Q 3503 -91 2522 -91 
Q 1538 -91 948 565 
Q 359 1222 359 2328 
Q 359 3434 948 4092 
Q 1538 4750 2522 4750 
z
" transform="scale(0.015625)"/>
       </defs>
       <use xlink:href="#DejaVuSans-53"/>
       <use xlink:href="#DejaVuSans-4f" x="63.476562"/>
       <use xlink:href="#DejaVuSans-43" x="142.1875"/>
      </g>
     </g>
    </g>
    <g id="xtick_6">
     <g id="line2d_6">
      <g>
       <use xlink:href="#mce58a40463" x="688.384375" y="339.84" style="stroke: #000000; stroke-width: 1.875"/>
      </g>
     </g>
     <g id="text_6">
      <!-- DOC -->
      <g transform="translate(665.829687 367.536875) scale(0.2 -0.2)">
       <use xlink:href="#DejaVuSans-44"/>
       <use xlink:href="#DejaVuSans-4f" x="77.001953"/>
       <use xlink:href="#DejaVuSans-43" x="155.712891"/>
      </g>
     </g>
    </g>
   </g>
   <g id="matplotlib.axis_2">
    <g id="ytick_1">
     <g id="line2d_7">
      <defs>
       <path id="m86c5306873" d="M 0 0 
L -9 0 
" style="stroke: #000000; stroke-width: 1.875"/>
      </defs>
      <g>
       <use xlink:href="#m86c5306873" x="74.584375" y="303.57315" style="stroke: #000000; stroke-width: 1.875"/>
      </g>
     </g>
     <g id="text_7">
      <!-- −4 -->
      <g transform="translate(32.6 311.171587) scale(0.2 -0.2)">
       <defs>
        <path id="DejaVuSans-2212" d="M 678 2272 
L 4684 2272 
L 4684 1741 
L 678 1741 
L 678 2272 
z
" transform="scale(0.015625)"/>
        <path id="DejaVuSans-34" d="M 2419 4116 
L 825 1625 
L 2419 1625 
L 2419 4116 
z
M 2253 4666 
L 3047 4666 
L 3047 1625 
L 3713 1625 
L 3713 1100 
L 3047 1100 
L 3047 0 
L 2419 0 
L 2419 1100 
L 313 1100 
L 313 1709 
L 2253 4666 
z
" transform="scale(0.015625)"/>
       </defs>
       <use xlink:href="#DejaVuSans-2212"/>
       <use xlink:href="#DejaVuSans-34" x="83.789062"/>
      </g>
     </g>
    </g>
    <g id="ytick_2">
     <g id="line2d_8">
      <g>
       <use xlink:href="#m86c5306873" x="74.584375" y="228.628939" style="stroke: #000000; stroke-width: 1.875"/>
      </g>
     </g>
     <g id="text_8">
      <!-- −2 -->
      <g transform="translate(32.6 236.227377) scale(0.2 -0.2)">
       <defs>
        <path id="DejaVuSans-32" d="M 1228 531 
L 3431 531 
L 3431 0 
L 469 0 
L 469 531 
Q 828 903 1448 1529 
Q 2069 2156 2228 2338 
Q 2531 2678 2651 2914 
Q 2772 3150 2772 3378 
Q 2772 3750 2511 3984 
Q 2250 4219 1831 4219 
Q 1534 4219 1204 4116 
Q 875 4013 500 3803 
L 500 4441 
Q 881 4594 1212 4672 
Q 1544 4750 1819 4750 
Q 2544 4750 2975 4387 
Q 3406 4025 3406 3419 
Q 3406 3131 3298 2873 
Q 3191 2616 2906 2266 
Q 2828 2175 2409 1742 
Q 1991 1309 1228 531 
z
" transform="scale(0.015625)"/>
       </defs>
       <use xlink:href="#DejaVuSans-2212"/>
       <use xlink:href="#DejaVuSans-32" x="83.789062"/>
      </g>
     </g>
    </g>
    <g id="ytick_3">
     <g id="line2d_9">
      <g>
       <use xlink:href="#m86c5306873" x="74.584375" y="153.684729" style="stroke: #000000; stroke-width: 1.875"/>
      </g>
     </g>
     <g id="text_9">
      <!-- 0 -->
      <g transform="translate(49.359375 161.283166) scale(0.2 -0.2)">
       <defs>
        <path id="DejaVuSans-30" d="M 2034 4250 
Q 1547 4250 1301 3770 
Q 1056 3291 1056 2328 
Q 1056 1369 1301 889 
Q 1547 409 2034 409 
Q 2525 409 2770 889 
Q 3016 1369 3016 2328 
Q 3016 3291 2770 3770 
Q 2525 4250 2034 4250 
z
M 2034 4750 
Q 2819 4750 3233 4129 
Q 3647 3509 3647 2328 
Q 3647 1150 3233 529 
Q 2819 -91 2034 -91 
Q 1250 -91 836 529 
Q 422 1150 422 2328 
Q 422 3509 836 4129 
Q 1250 4750 2034 4750 
z
" transform="scale(0.015625)"/>
       </defs>
       <use xlink:href="#DejaVuSans-30"/>
      </g>
     </g>
    </g>
    <g id="ytick_4">
     <g id="line2d_10">
      <g>
       <use xlink:href="#m86c5306873" x="74.584375" y="78.740518" style="stroke: #000000; stroke-width: 1.875"/>
      </g>
     </g>
     <g id="text_10">
      <!-- 2 -->
      <g transform="translate(49.359375 86.338956) scale(0.2 -0.2)">
       <use xlink:href="#DejaVuSans-32"/>
      </g>
     </g>
    </g>
    <g id="text_11">
     <!-- $Q_{loss, cyc}$ (%) -->
     <g transform="translate(22.4 231.12) rotate(-90) scale(0.2 -0.2)">
      <defs>
       <path id="DejaVuSans-Oblique-51" d="M 2309 -84 
Q 2275 -88 2237 -89 
Q 2200 -91 2125 -91 
Q 1250 -91 756 411 
Q 263 913 263 1797 
Q 263 2319 452 2844 
Q 641 3369 978 3788 
Q 1369 4269 1858 4509 
Q 2347 4750 2938 4750 
Q 3794 4750 4287 4245 
Q 4781 3741 4781 2869 
Q 4781 1928 4265 1147 
Q 3750 366 2919 44 
L 3553 -825 
L 2847 -825 
L 2309 -84 
z
M 2919 4238 
Q 2400 4238 2003 3986 
Q 1606 3734 1313 3219 
Q 1125 2891 1026 2522 
Q 928 2153 928 1778 
Q 928 1128 1239 775 
Q 1550 422 2119 422 
Q 2631 422 3032 676 
Q 3434 931 3719 1434 
Q 3909 1772 4009 2142 
Q 4109 2513 4109 2881 
Q 4109 3528 3796 3883 
Q 3484 4238 2919 4238 
z
" transform="scale(0.015625)"/>
       <path id="DejaVuSans-Oblique-6c" d="M 1172 4863 
L 1747 4863 
L 800 0 
L 225 0 
L 1172 4863 
z
" transform="scale(0.015625)"/>
       <path id="DejaVuSans-Oblique-6f" d="M 1625 -91 
Q 1009 -91 651 289 
Q 294 669 294 1325 
Q 294 1706 417 2101 
Q 541 2497 738 2766 
Q 1047 3184 1428 3384 
Q 1809 3584 2291 3584 
Q 2888 3584 3255 3212 
Q 3622 2841 3622 2241 
Q 3622 1825 3500 1412 
Q 3378 1000 3181 728 
Q 2875 309 2494 109 
Q 2113 -91 1625 -91 
z
M 891 1344 
Q 891 869 1089 633 
Q 1288 397 1691 397 
Q 2269 397 2648 901 
Q 3028 1406 3028 2181 
Q 3028 2634 2825 2865 
Q 2622 3097 2228 3097 
Q 1903 3097 1650 2945 
Q 1397 2794 1197 2484 
Q 1050 2253 970 1956 
Q 891 1659 891 1344 
z
" transform="scale(0.015625)"/>
       <path id="DejaVuSans-Oblique-73" d="M 3200 3397 
L 3091 2853 
Q 2863 2978 2609 3040 
Q 2356 3103 2088 3103 
Q 1634 3103 1373 2948 
Q 1113 2794 1113 2528 
Q 1113 2219 1719 2053 
Q 1766 2041 1788 2034 
L 1972 1978 
Q 2547 1819 2739 1644 
Q 2931 1469 2931 1166 
Q 2931 609 2489 259 
Q 2047 -91 1331 -91 
Q 1053 -91 747 -37 
Q 441 16 72 128 
L 184 722 
Q 500 559 806 475 
Q 1113 391 1394 391 
Q 1816 391 2080 572 
Q 2344 753 2344 1031 
Q 2344 1331 1650 1516 
L 1591 1531 
L 1394 1581 
Q 956 1697 753 1886 
Q 550 2075 550 2369 
Q 550 2928 970 3256 
Q 1391 3584 2113 3584 
Q 2397 3584 2667 3537 
Q 2938 3491 3200 3397 
z
" transform="scale(0.015625)"/>
       <path id="DejaVuSans-2c" d="M 750 794 
L 1409 794 
L 1409 256 
L 897 -744 
L 494 -744 
L 750 256 
L 750 794 
z
" transform="scale(0.015625)"/>
       <path id="DejaVuSans-Oblique-63" d="M 3431 3366 
L 3316 2797 
Q 3109 2947 2876 3022 
Q 2644 3097 2394 3097 
Q 2119 3097 1870 3000 
Q 1622 2903 1453 2725 
Q 1184 2453 1037 2087 
Q 891 1722 891 1331 
Q 891 859 1127 628 
Q 1363 397 1844 397 
Q 2081 397 2348 469 
Q 2616 541 2906 684 
L 2797 116 
Q 2547 13 2283 -39 
Q 2019 -91 1741 -91 
Q 1044 -91 669 257 
Q 294 606 294 1253 
Q 294 1797 489 2255 
Q 684 2713 1069 3078 
Q 1331 3328 1684 3456 
Q 2038 3584 2456 3584 
Q 2700 3584 2940 3529 
Q 3181 3475 3431 3366 
z
" transform="scale(0.015625)"/>
       <path id="DejaVuSans-Oblique-79" d="M 1588 -325 
Q 1188 -997 936 -1164 
Q 684 -1331 294 -1331 
L -159 -1331 
L -63 -850 
L 269 -850 
Q 509 -850 678 -719 
Q 847 -588 1056 -206 
L 1234 128 
L 459 3500 
L 1069 3500 
L 1650 819 
L 3256 3500 
L 3859 3500 
L 1588 -325 
z
" transform="scale(0.015625)"/>
       <path id="DejaVuSans-20" transform="scale(0.015625)"/>
       <path id="DejaVuSans-28" d="M 1984 4856 
Q 1566 4138 1362 3434 
Q 1159 2731 1159 2009 
Q 1159 1288 1364 580 
Q 1569 -128 1984 -844 
L 1484 -844 
Q 1016 -109 783 600 
Q 550 1309 550 2009 
Q 550 2706 781 3412 
Q 1013 4119 1484 4856 
L 1984 4856 
z
" transform="scale(0.015625)"/>
       <path id="DejaVuSans-25" d="M 4653 2053 
Q 4381 2053 4226 1822 
Q 4072 1591 4072 1178 
Q 4072 772 4226 539 
Q 4381 306 4653 306 
Q 4919 306 5073 539 
Q 5228 772 5228 1178 
Q 5228 1588 5073 1820 
Q 4919 2053 4653 2053 
z
M 4653 2450 
Q 5147 2450 5437 2106 
Q 5728 1763 5728 1178 
Q 5728 594 5436 251 
Q 5144 -91 4653 -91 
Q 4153 -91 3862 251 
Q 3572 594 3572 1178 
Q 3572 1766 3864 2108 
Q 4156 2450 4653 2450 
z
M 1428 4353 
Q 1159 4353 1004 4120 
Q 850 3888 850 3481 
Q 850 3069 1003 2837 
Q 1156 2606 1428 2606 
Q 1700 2606 1854 2837 
Q 2009 3069 2009 3481 
Q 2009 3884 1853 4118 
Q 1697 4353 1428 4353 
z
M 4250 4750 
L 4750 4750 
L 1831 -91 
L 1331 -91 
L 4250 4750 
z
M 1428 4750 
Q 1922 4750 2215 4408 
Q 2509 4066 2509 3481 
Q 2509 2891 2217 2550 
Q 1925 2209 1428 2209 
Q 931 2209 642 2551 
Q 353 2894 353 3481 
Q 353 4063 643 4406 
Q 934 4750 1428 4750 
z
" transform="scale(0.015625)"/>
       <path id="DejaVuSans-29" d="M 513 4856 
L 1013 4856 
Q 1481 4119 1714 3412 
Q 1947 2706 1947 2009 
Q 1947 1309 1714 600 
Q 1481 -109 1013 -844 
L 513 -844 
Q 928 -128 1133 580 
Q 1338 1288 1338 2009 
Q 1338 2731 1133 3434 
Q 928 4138 513 4856 
z
" transform="scale(0.015625)"/>
      </defs>
      <use xlink:href="#DejaVuSans-Oblique-51" transform="translate(0 0.125)"/>
      <use xlink:href="#DejaVuSans-Oblique-6c" transform="translate(78.710938 -16.28125) scale(0.7)"/>
      <use xlink:href="#DejaVuSans-Oblique-6f" transform="translate(98.15918 -16.28125) scale(0.7)"/>
      <use xlink:href="#DejaVuSans-Oblique-73" transform="translate(140.986328 -16.28125) scale(0.7)"/>
      <use xlink:href="#DejaVuSans-Oblique-73" transform="translate(177.456055 -16.28125) scale(0.7)"/>
      <use xlink:href="#DejaVuSans-2c" transform="translate(213.925781 -16.28125) scale(0.7)"/>
      <use xlink:href="#DejaVuSans-Oblique-63" transform="translate(249.814453 -16.28125) scale(0.7)"/>
      <use xlink:href="#DejaVuSans-Oblique-79" transform="translate(288.300781 -16.28125) scale(0.7)"/>
      <use xlink:href="#DejaVuSans-Oblique-63" transform="translate(329.726562 -16.28125) scale(0.7)"/>
      <use xlink:href="#DejaVuSans-20" transform="translate(370.947266 0.125)"/>
      <use xlink:href="#DejaVuSans-28" transform="translate(402.734375 0.125)"/>
      <use xlink:href="#DejaVuSans-25" transform="translate(441.748047 0.125)"/>
      <use xlink:href="#DejaVuSans-29" transform="translate(536.767578 0.125)"/>
     </g>
    </g>
   </g>
   <g id="line2d_11">
    <path d="M 130.384375 200.354528 
L 130.384375 38.894702 
" clip-path="url(#pfc1f756073)" style="fill: none; stroke: #3f3f3f; stroke-width: 2.8125; stroke-linecap: square"/>
   </g>
   <g id="line2d_12">
    <path d="M 130.384375 188.88949 
L 130.384375 124.596498 
" clip-path="url(#pfc1f756073)" style="fill: none; stroke: #3f3f3f; stroke-width: 8.4375; stroke-linecap: square"/>
   </g>
   <g id="line2d_13">
    <path d="M 130.384375 158.920829 
" clip-path="url(#pfc1f756073)" style="fill: none; stroke: #3f3f3f; stroke-width: 2.25; stroke-linecap: square"/>
    <defs>
     <path id="m274aa60a53" d="M 3.515625 0 
L -3.515625 -0 
" style="stroke: #ffffff; stroke-width: 1.6875"/>
    </defs>
    <g clip-path="url(#pfc1f756073)">
     <use xlink:href="#m274aa60a53" x="130.384375" y="158.920829" style="fill: #ffffff; stroke: #ffffff; stroke-width: 1.6875"/>
    </g>
   </g>
   <g id="line2d_14">
    <path d="M 241.984375 137.463125 
L 241.984375 137.463125 
" clip-path="url(#pfc1f756073)" style="fill: none; stroke: #3f3f3f; stroke-width: 2.8125; stroke-linecap: square"/>
   </g>
   <g id="line2d_15">
    <path d="M 241.984375 137.463125 
L 241.984375 137.463125 
" clip-path="url(#pfc1f756073)" style="fill: none; stroke: #3f3f3f; stroke-width: 8.4375; stroke-linecap: square"/>
   </g>
   <g id="line2d_16">
    <path d="M 241.984375 137.463125 
" clip-path="url(#pfc1f756073)" style="fill: none; stroke: #3f3f3f; stroke-width: 2.25; stroke-linecap: square"/>
    <g clip-path="url(#pfc1f756073)">
     <use xlink:href="#m274aa60a53" x="241.984375" y="137.463125" style="fill: #ffffff; stroke: #ffffff; stroke-width: 1.6875"/>
    </g>
   </g>
   <g id="line2d_17">
    <path d="M 353.584375 148.815298 
L 353.584375 148.815298 
" clip-path="url(#pfc1f756073)" style="fill: none; stroke: #3f3f3f; stroke-width: 2.8125; stroke-linecap: square"/>
   </g>
   <g id="line2d_18">
    <path d="M 353.584375 148.815298 
L 353.584375 148.815298 
" clip-path="url(#pfc1f756073)" style="fill: none; stroke: #3f3f3f; stroke-width: 8.4375; stroke-linecap: square"/>
   </g>
   <g id="line2d_19">
    <path d="M 353.584375 148.815298 
" clip-path="url(#pfc1f756073)" style="fill: none; stroke: #3f3f3f; stroke-width: 2.25; stroke-linecap: square"/>
    <g clip-path="url(#pfc1f756073)">
     <use xlink:href="#m274aa60a53" x="353.584375" y="148.815298" style="fill: #ffffff; stroke: #ffffff; stroke-width: 1.6875"/>
    </g>
   </g>
   <g id="line2d_20">
    <path d="M 465.184375 144.598813 
L 465.184375 144.598813 
" clip-path="url(#pfc1f756073)" style="fill: none; stroke: #3f3f3f; stroke-width: 2.8125; stroke-linecap: square"/>
   </g>
   <g id="line2d_21">
    <path d="M 465.184375 144.598813 
L 465.184375 144.598813 
" clip-path="url(#pfc1f756073)" style="fill: none; stroke: #3f3f3f; stroke-width: 8.4375; stroke-linecap: square"/>
   </g>
   <g id="line2d_22">
    <path d="M 465.184375 144.598813 
" clip-path="url(#pfc1f756073)" style="fill: none; stroke: #3f3f3f; stroke-width: 2.25; stroke-linecap: square"/>
    <g clip-path="url(#pfc1f756073)">
     <use xlink:href="#m274aa60a53" x="465.184375" y="144.598813" style="fill: #ffffff; stroke: #ffffff; stroke-width: 1.6875"/>
    </g>
   </g>
   <g id="line2d_23">
    <path d="M 576.784375 153.684729 
L 576.784375 153.684729 
" clip-path="url(#pfc1f756073)" style="fill: none; stroke: #3f3f3f; stroke-width: 2.8125; stroke-linecap: square"/>
   </g>
   <g id="line2d_24">
    <path d="M 576.784375 153.684729 
L 576.784375 153.684729 
" clip-path="url(#pfc1f756073)" style="fill: none; stroke: #3f3f3f; stroke-width: 8.4375; stroke-linecap: square"/>
   </g>
   <g id="line2d_25">
    <path d="M 576.784375 153.684729 
" clip-path="url(#pfc1f756073)" style="fill: none; stroke: #3f3f3f; stroke-width: 2.25; stroke-linecap: square"/>
    <g clip-path="url(#pfc1f756073)">
     <use xlink:href="#m274aa60a53" x="576.784375" y="153.684729" style="fill: #ffffff; stroke: #ffffff; stroke-width: 1.6875"/>
    </g>
   </g>
   <g id="line2d_26">
    <path d="M 688.384375 214.693561 
L 688.384375 108.779751 
" clip-path="url(#pfc1f756073)" style="fill: none; stroke: #3f3f3f; stroke-width: 2.8125; stroke-linecap: square"/>
   </g>
   <g id="line2d_27">
    <path d="M 688.384375 197.970328 
L 688.384375 131.077395 
" clip-path="url(#pfc1f756073)" style="fill: none; stroke: #3f3f3f; stroke-width: 8.4375; stroke-linecap: square"/>
   </g>
   <g id="line2d_28">
    <path d="M 688.384375 131.077395 
" clip-path="url(#pfc1f756073)" style="fill: none; stroke: #3f3f3f; stroke-width: 2.25; stroke-linecap: square"/>
    <g clip-path="url(#pfc1f756073)">
     <use xlink:href="#m274aa60a53" x="688.384375" y="131.077395" style="fill: #ffffff; stroke: #ffffff; stroke-width: 1.6875"/>
    </g>
   </g>
   <g id="patch_3">
    <path d="M 74.584375 339.84 
L 74.584375 7.2 
" style="fill: none; stroke: #000000; stroke-width: 1.875; stroke-linejoin: miter; stroke-linecap: square"/>
   </g>
   <g id="patch_4">
    <path d="M 744.184375 339.84 
L 744.184375 7.2 
" style="fill: none; stroke: #000000; stroke-width: 1.875; stroke-linejoin: miter; stroke-linecap: square"/>
   </g>
   <g id="patch_5">
    <path d="M 74.584375 339.84 
L 744.184375 339.84 
" style="fill: none; stroke: #000000; stroke-width: 1.875; stroke-linejoin: miter; stroke-linecap: square"/>
   </g>
   <g id="patch_6">
    <path d="M 74.584375 7.2 
L 744.184375 7.2 
" style="fill: none; stroke: #000000; stroke-width: 1.875; stroke-linejoin: miter; stroke-linecap: square"/>
   </g>
  </g>
 </g>
 <defs>
  <clipPath id="pfc1f756073">
   <rect x="74.584375" y="7.2" width="669.6" height="332.64"/>
  </clipPath>
 </defs>
</svg>
